<?xml version="1.0" encoding="utf-8"?>
<!-- Generator: Adobe Illustrator 16.0.0, SVG Export Plug-In . SVG Version: 6.00 Build 0)  -->
<svg version="1.2" baseProfile="tiny" id="Layer_1" xmlns="http://www.w3.org/2000/svg" xmlns:xlink="http://www.w3.org/1999/xlink"
	 x="0px" y="0px" width="283.465px" height="283.465px" viewBox="0 0 283.465 283.465" xml:space="preserve">
<g>
	<g>
		<path d="M83.383,132.193c0-6.873-5.572-12.444-12.445-12.444H14.174v12.444H83.383z"/>
		<path d="M63.937,133.235c-0.337,1.774-1.541,3.178-3.418,3.178c-0.009,0-34.625,0-34.625,0v10.281h37.787
			c0,1.908-1.019,3.455-2.928,3.455l-46.579-0.051v13.619h56.764c6.873,0,12.445-5.572,12.445-12.445v-18.037H63.937z"/>
	</g>
	<g>
		<path d="M157.541,132.193c-0.467-6.966-5.291-12.444-12.404-12.444H87.081v12.444H157.541z"/>
		<path d="M109.857,147.053c0.002,0,35.984,0,35.984,0c7.309,0,11.74-7.129,11.74-13.818c0-0.024-18.897,0-18.897,0
			c-0.324,1.94-1.578,3.382-3.663,3.382c-0.036,0-36.221-0.003-36.221-0.003c-5.703,0-11.72,4.846-11.72,11.722v15.381h70.325
			v-13.326h-50.711C106.695,148.764,107.625,147.053,109.857,147.053z"/>
	</g>
	<g>
		<polygon points="246.456,132.193 269.291,119.749 238.297,119.749 215.626,132.193 		"/>
		<polygon points="210.856,132.193 188.812,119.749 157.348,119.749 179.919,132.193 		"/>
		<polygon points="158.202,163.717 188.616,163.717 212.995,150.43 237.093,163.717 266.698,163.717 228.344,142.065 
			244.545,133.235 213.729,133.235 213.208,133.521 212.702,133.235 181.809,133.235 197.733,142.015 		"/>
	</g>
</g>
</svg>
