<?xml version="1.0" encoding="utf-8"?>
<!-- Generator: Adobe Illustrator 16.0.0, SVG Export Plug-In . SVG Version: 6.00 Build 0)  -->
<svg version="1.2" baseProfile="tiny" id="Layer_1" xmlns="http://www.w3.org/2000/svg" xmlns:xlink="http://www.w3.org/1999/xlink"
	 x="0px" y="0px" width="283.465px" height="283.465px" viewBox="0 0 283.465 283.465" xml:space="preserve">
<g id="layer1" transform="translate(210,-414.59367)">
	<path id="path5" fill="#003296" d="M21.023,567.634c-2.126-0.532-2.657-1.595-2.924-3.721c-0.53-3.454-0.53-11.959,0-15.679
		c0.267-1.86,1.33-2.924,2.924-3.455c1.86-0.531,18.868-0.797,20.729,0c1.595,0.531,2.126,1.595,2.392,3.189
		c0.798,3.454,0.798,12.224,0,15.679c-0.266,1.594-0.797,2.392-2.392,3.188C40.157,568.165,23.416,568.165,21.023,567.634
		L21.023,567.634z M47.333,533.086c-5.05-1.063-24.449-1.328-32.156,0c-5.846,1.063-10.364,5.315-11.692,10.63
		c-1.063,6.112-1.063,19.666,0,25.246c1.063,5.05,5.314,9.567,11.692,10.63c6.645,1.329,26.31,1.063,32.422-0.266
		c7.175-1.594,10.099-6.909,10.896-10.364c1.063-5.314,1.063-18.867,0-25.246C57.165,538.136,52.382,534.149,47.333,533.086z
		 M-19.37,533.351h14.616v45.975H-19.37V533.351z M-42.756,561.787c2.392,0.531,2.923,2.392,2.923,3.986
		c0,1.594-0.266,3.454-2.923,3.721c-2.924,0.531-12.756,0.531-16.477,0c-1.595-0.267-3.455-0.267-3.986-3.189v-0.797h-14.615
		c0,0.266,0,1.063,0.265,2.126c0.531,6.112,2.924,10.364,9.833,11.692c5.581,1.063,26.574,1.328,32.953,0
		c7.44-1.594,9.301-8.238,9.301-14.085c0-6.643-2.393-11.161-8.238-13.021c-1.595-0.532-5.314-0.798-6.909-0.798
		c-1.328,0-17.009-0.532-20.463-1.063c-2.126-0.266-2.658-1.596-2.658-3.455c0-1.86,0.267-3.189,2.924-3.721
		c3.188-0.531,15.68-0.531,17.008,0c1.595,0.531,2.126,1.595,2.126,2.924v1.063h14.616c0-1.063-0.266-1.86-0.266-2.657
		c-0.797-7.176-4.783-11.162-11.959-11.693c-7.175-0.797-23.651-0.531-28.7,0.266c-4.783,1.063-9.567,3.986-9.567,13.819
		c0,7.972,3.721,11.958,10.098,13.287c1.86,0.267,7.176,0.531,7.973,0.531C-57.639,560.989-43.819,561.521-42.756,561.787z
		 M-100.422,561.521h-16.211l6.909-18.337h2.392L-100.422,561.521z M-97.234,571.088l3.189,8.238h15.679l-19.665-46.24h-21.261
		l-19.399,46.24h15.68l3.189-8.504L-97.234,571.088L-97.234,571.088z M-180.679,564.179c0.266,2.657,1.595,3.188,2.924,3.455
		c2.126,0.531,17.273,0.531,19.931,0c1.86-0.267,3.189-1.595,3.455-3.188c0-0.798,0.266-2.127,0.266-2.658h15.147
		c0,1.063,0,3.721-0.266,6.112c-0.797,5.58-3.986,10.099-10.896,11.692c-4.784,1.063-27.903,1.063-33.219,0
		c-5.581-1.328-10.364-4.783-11.693-10.63c-1.063-5.314-1.063-19.134,0-24.979c0.798-4.252,4.784-9.301,11.428-10.631
		c6.112-1.063,27.638-1.328,33.484,0c7.707,1.86,10.099,8.771,10.364,11.162c0.266,2.657,0.266,4.518,0.266,5.581h-15.147
		c0-1.063,0.266-3.986-2.393-4.784c-1.594-0.531-16.476-0.531-20.196-0.266c-1.86,0.266-2.923,1.063-3.189,2.924
		C-181.21,551.688-181.21,560.724-180.679,564.179L-180.679,564.179z"/>
</g>
</svg>
