<?xml version="1.0" encoding="utf-8"?>
<!-- Generator: Adobe Illustrator 16.0.0, SVG Export Plug-In . SVG Version: 6.00 Build 0)  -->
<svg version="1.2" baseProfile="tiny" id="Layer_1" xmlns="http://www.w3.org/2000/svg" xmlns:xlink="http://www.w3.org/1999/xlink"
	 x="0px" y="0px" width="283.465px" height="283.465px" viewBox="0 0 283.465 283.465" xml:space="preserve">
<path d="M98.492,131.084h4.838c0.451,0,0.743,0.159,0.743,0.731l0,0c0,0.56,0.445,0.406,0.706,0.303
	c1.587-0.663,3.289-1.015,5.009-1.035c1.561,0,2.776,0.493,3.406,1.235c0.601,0.709,0.63,0.817,1.656,0.262
	c1.795-0.962,3.798-1.471,5.834-1.481c4.446,0,5.373,2.695,4.014,4.844l-3.849,6.155c-0.228,0.372-0.631,0.601-1.067,0.603
	l-4.324,0.023c-1.126,0-1.561-0.28-0.793-1.436l3.382-5.315c0.798-1.275,0.392-2.147-1.216-2.147c-1.323,0-2.641,0.805-3.456,2.097
	l-3.898,6.186c-0.219,0.362-0.611,0.583-1.034,0.583h-4.328c-1.317,0-1.549-0.298-0.801-1.455l3.395-5.357
	c0.798-1.275-0.015-2.053-1.429-2.053c-1.508-0.024-2.917,0.749-3.708,2.034l-3.991,6.249c-0.232,0.362-0.632,0.582-1.063,0.582
	h-4.29c-1.01,0-1.668-0.133-0.794-1.439l6.06-9.617C97.709,131.291,98.086,131.084,98.492,131.084z M161.377,134.945
	c0.784-1.444-5.332-1.744-9.377-0.611c-0.801,0.224-1.353,0.08-0.709-0.958l0.788-1.25c0.342-0.543,0.6-0.891,1.588-0.846
	c2.396,0.109,5.82-0.262,9.771-0.118c3.443,0.126,7.084,1.075,4.701,4.846l-3.521,5.535c-0.681,1.067-0.818,1.161-2.108,1.161
	l-4.013,0.006c-0.364,0.001-0.703-0.182-0.903-0.485l0,0c-0.146-0.22-0.431-0.298-0.668-0.182c-1.582,0.755-3.305,1.173-5.057,1.229
	c-1.286,0-5.898-0.201-4.285-4.043c1.612-3.841,6.525-3.661,8.879-3.618C158.817,135.656,160.951,135.729,161.377,134.945z
	 M154.887,138.775c-0.485,0.766-0.151,1.528,0.851,1.528c1.616,0,3.022-0.942,4.14-2.164c0.39-0.425,0.434-0.839-0.393-0.722
	C157.823,137.653,155.687,137.513,154.887,138.775z M124.644,156.557c0.785-1.444-5.332-1.744-9.376-0.611
	c-0.801,0.224-1.353,0.079-0.71-0.958l0.789-1.249c0.342-0.543,0.6-0.892,1.588-0.847c2.396,0.109,5.82-0.262,9.771-0.118
	c3.443,0.127,7.084,1.076,4.701,4.847l-3.52,5.535c-0.681,1.066-0.819,1.161-2.109,1.161l-4.013,0.006
	c-0.364,0-0.704-0.182-0.903-0.485l0,0c-0.146-0.22-0.431-0.298-0.667-0.183c-1.583,0.755-3.305,1.174-5.058,1.23
	c-1.286,0-5.897-0.203-4.285-4.044c1.612-3.841,6.526-3.661,8.879-3.617S124.218,157.34,124.644,156.557z M118.153,160.387
	c-0.485,0.765-0.151,1.527,0.851,1.527c1.616,0,3.022-0.941,4.14-2.164c0.39-0.425,0.433-0.838-0.393-0.721
	C121.09,159.264,118.954,159.124,118.153,160.387L118.153,160.387z M131.924,131.076h4.541c0.823,0,0.97,0.208,1,0.524l0,0
	c0.066,0.385,0.251,0.538,0.765,0.327c1.199-0.494,2.626-0.817,4.535-0.831c2.884-0.021,6.879,0.357,3.405,5.962
	c-2.943,4.751-6.229,5.9-10.716,5.9c-1.684,0-2.659-0.262-3.286-0.671c-0.768-0.499-0.879-0.63-1.546,0.377l-3.113,4.964
	c-0.25,0.399-0.688,0.642-1.159,0.642h-4.37c-1.034,0-1.443-0.295-0.735-1.331l9.61-15.273
	C131.088,131.299,131.491,131.076,131.924,131.076z M134.348,136.727c-1.618,2.569-0.527,3.499,0.717,3.499
	c1.244,0,2.798-0.741,4.343-3.195c1.471-2.336,0.525-3.139-0.829-3.139C137.086,133.892,135.367,135.108,134.348,136.727z
	 M146.351,156.953c-4.474,0.159-4.867-0.68-4.249-1.27c0.638-0.609,2.178-0.754,4.335-0.754c1.829-0.025,3.652,0.215,5.413,0.712
	c1.169,0.352,1.469,0.332,2.201-0.736l0.232-0.317c0.66-0.849,0.68-1.342-0.617-1.578c-2.636-0.492-5.315-0.715-7.997-0.663
	c-2.548,0.089-6.819,0.204-10.013,3.481c-2.573,2.641-1.595,5.027,4.401,4.924c2.785-0.049,3.198,0.32,2.781,1.094
	c-0.329,0.609-1.107,0.908-3.681,0.908c-1.69,0-3.974,0.012-5.784-0.857c-0.89-0.429-1.151-0.419-1.614,0.598l-0.083,0.188
	c-0.499,1.011-0.267,1.242,0.737,1.574c1.981,0.652,4.864,0.875,7.768,0.875c3.574,0,8.093-1.037,10.177-3.719
	C151.581,159.844,152.321,156.74,146.351,156.953L146.351,156.953z M182.748,134.181c0.986,0,2.356,0.124,3.396,0.586
	c1.131,0.502,1.442,0.343,2.019-0.701l0.598-0.979c0.604-0.916,0.408-1.344-0.739-1.348c-2.972-0.011-3.851-0.617-7.186-0.617
	c-6.211,0-11.494,3.457-11.494,8.05c0,3.71,4.948,4.411,7.719,4.411c1.488,0,2.877-0.038,4.219-0.314
	c1.396-0.288,1.614-0.491,2.275-1.554l0.848-1.316c0.603-0.936,0.262-1.241-0.691-0.799c-1.363,0.643-2.85,0.982-4.357,0.995
	c-2.828,0-3.784-1.705-2.467-3.859C178.435,134.205,181.326,134.181,182.748,134.181z M218.262,158.914l1.654-2.616
	c0.318-0.542,0.652-0.696,1.257-0.696l3.816-0.016c0.438-0.002,0.846-0.229,1.077-0.601l0.542-0.867
	c0.566-0.833,0.431-1.271-0.704-1.271h-2.604c-0.832,0-1.098-0.283-0.548-0.996l0.443-0.701c0.555-0.854,0.365-1.267-0.698-1.267
	h-4.475c-0.445,0-0.86,0.229-1.099,0.605l-1.1,1.739c-0.243,0.385-0.668,0.619-1.124,0.619h-5.118c-0.922,0-1.019-0.371-0.555-1.016
	l0.46-0.714c0.522-0.721,0.401-1.234-0.675-1.234h-4.434c-0.499,0-0.964,0.255-1.23,0.678l-1.119,1.771
	c-0.203,0.32-0.557,0.516-0.937,0.516h-1.395c-0.487,0-0.938,0.256-1.189,0.673l-0.532,0.883c-0.614,0.907-0.135,1.174,0.633,1.187
	l0.36,0.018c0.768,0.032,0.763,0.396,0.445,0.86l-1.547,2.446c-3.461,5.523-0.326,5.803,2.855,5.803
	c1.62-0.001,3.893-0.318,5.239-0.535c1.036-0.168,1.366-0.456,1.613-0.934l0.102-0.195c0.446-0.818,0.185-1.195-0.748-0.977
	c-0.694,0.148-1.404,0.218-2.114,0.206c-2.205,0-1.35-1.659-0.406-3.155l1.932-3.049c0.183-0.288,0.5-0.463,0.841-0.465l5.276-0.027
	c0.954,0,1.063,0.301,0.581,1.049l-1.441,2.279c-3.542,5.581-0.32,5.803,2.861,5.803c1.645-0.001,4.331-0.404,5.65-0.621
	c0.491-0.08,0.915-0.387,1.145-0.828l0.11-0.211c0.417-0.703,0.301-1.256-0.744-0.979c-0.65,0.146-1.316,0.212-1.982,0.193
	C216.182,162.271,217.241,160.447,218.262,158.914z M266.559,115.232H43.101c-2.155,0-3.91,1.024-4.9,2.603l-23.564,37.571
	c-1.09,1.561-0.22,4.064,2.254,4.064h59.485c0.416,0,0.8-0.221,1.01-0.58l0.778-1.334c0.163-0.279,0.069-0.637-0.21-0.8
	c-0.09-0.052-0.191-0.079-0.295-0.079H19.168c-1.008,0-1.189-0.726-0.759-1.363l22.442-35.831c0.564-0.9,1.451-1.465,2.764-1.465
	l220.397-0.015c1.364,0,1.582,0.639,0.92,1.659l-11.772,18.784c-0.564,0.9-1.35,1.756-2.873,1.662l-51.463,0.104
	c0,0-0.474,0-0.621,0c-2.74,0-1.161-2.04-0.612-2.897l1.856-2.936c0.245-0.389,0.678-0.502,1.138-0.502l3.584,0.026
	c0.71,0,1.042-0.23,1.288-0.619l0.692-1.095c0.413-0.601,0.123-1.045-0.68-1.045h-2.922c-0.729,0-0.846-0.343-0.479-0.91
	l0.537-0.847c0.473-0.73,0.386-1.188-0.653-1.188l-4.594,0.003c-0.407,0-0.786,0.208-1.006,0.55l-1.221,1.904
	c-0.199,0.311-0.544,0.499-0.913,0.499h-1.546c-0.408,0-0.786,0.212-0.999,0.561l-0.66,1.07c-0.519,0.789-0.145,1.126,0.604,1.106
	l0.275,0.005c0.931,0.015,0.999,0.327,0.55,1.021l-1.514,2.396c-3.503,5.514-0.456,5.657,3.427,5.657l56.423,0.002
	c1.973,0.029,3.816-0.975,4.86-2.647l13.196-21.002C270.056,117.293,268.663,115.232,266.559,115.232L266.559,115.232z
	 M90.833,137.632c-2.261,3.585-5.218,5.268-12.08,5.268c-5.796,0-9.389-1.813-6.2-6.87c2.261-3.585,5.351-5.244,11.929-5.244
	C90.278,130.786,94.022,132.576,90.833,137.632L90.833,137.632z M84.728,137.097c1.086-1.722,1.377-3.747-1.083-3.747
	c-2.472,0-3.683,1.128-4.968,3.167c-1.086,1.722-1.422,3.831,1.045,3.831C82.231,140.348,83.442,139.134,84.728,137.097
	L84.728,137.097z M195.076,156.732c-0.479,0.902-1.276,2.135-1.782,2.889c-0.418,0.625-0.644,0.787-1.608,0.787h-9.561
	c-0.723,0-0.912,0.313-0.987,0.701c-0.152,0.791,0.319,1.745,3.613,1.745c2.698,0,4.59-0.319,5.841-0.693
	c1.043-0.312,1.196,0.255,0.706,0.933l-0.512,0.816c-0.457,0.66-0.754,0.747-1.501,0.798c-1.461,0.099-4.524,0.403-7.689,0.298
	c-2.816-0.094-10.01-0.046-5.617-7.01c2.157-3.421,4.168-5.152,12.104-5.152C193.27,152.844,196.767,153.551,195.076,156.732
	L195.076,156.732z M187.688,157.525c0.958-1.594,0.573-2.233-0.993-2.233c-1.553,0-2.445,0.479-3.563,2.126
	c-0.26,0.383-0.029,0.674,0.472,0.674h3.076C187.095,158.102,187.481,157.885,187.688,157.525L187.688,157.525z M76.958,124.862
	c-4.327-0.098-5.781-1.106-11.506-1.106c-5.198,0-15.62,0.924-21.438,10.055c-8.405,13.191,11.507,13.927,20.808,11.123
	c0.569-0.172,1.057-0.545,1.371-1.051l1.02-1.645c0.669-1.077,0.505-1.521-0.277-1.214c-0.038,0.016-0.077,0.032-0.116,0.048
	l-0.005,0.002l0,0c-1.426,0.589-3.781,1.282-7.074,1.347c-5.402,0.107-9.145-4.14-5.459-9.092c3.728-5.01,9.707-5.656,12.714-5.656
	c2.646,0,5.45,0.665,7.266,1.737c0.392,0.232,0.897,0.104,1.13-0.288l2.031-3.42c0.157-0.264,0.07-0.606-0.194-0.763
	C77.146,124.891,77.053,124.864,76.958,124.862z M115.394,146.832c-4.326-0.098-5.78-1.105-11.506-1.105
	c-5.198,0-15.619,0.924-21.437,10.055c-8.405,13.189,11.506,13.927,20.807,11.121c0.57-0.171,1.057-0.544,1.371-1.049l1.021-1.645
	c0.669-1.078,0.505-1.521-0.277-1.215c-0.038,0.016-0.077,0.032-0.116,0.049l-0.005,0.002l0,0c-1.427,0.59-3.782,1.281-7.074,1.348
	c-5.402,0.107-9.145-4.141-5.459-9.093c3.728-5.01,9.707-5.655,12.714-5.655c2.646,0,5.45,0.664,7.266,1.736
	c0.391,0.232,0.896,0.104,1.13-0.287l2.031-3.422c0.157-0.264,0.07-0.605-0.195-0.762
	C115.583,146.861,115.49,146.834,115.394,146.832z M167.268,156.953c-4.475,0.159-4.867-0.68-4.249-1.27
	c0.639-0.609,2.178-0.754,4.336-0.754c1.829-0.025,3.651,0.215,5.412,0.712c1.17,0.352,1.47,0.332,2.201-0.736l0.232-0.317
	c0.661-0.849,0.681-1.342-0.616-1.578c-2.637-0.492-5.316-0.715-7.997-0.663c-2.549,0.089-6.819,0.204-10.013,3.481
	c-2.573,2.641-1.596,5.027,4.4,4.924c2.786-0.049,3.199,0.32,2.781,1.094c-0.328,0.609-1.107,0.908-3.681,0.908
	c-1.69,0-3.975,0.012-5.784-0.857c-0.89-0.429-1.151-0.419-1.613,0.598l-0.084,0.188c-0.498,1.011-0.267,1.242,0.738,1.574
	c1.98,0.652,4.863,0.875,7.768,0.875c3.574,0,8.093-1.037,10.177-3.719C172.497,159.844,173.238,156.74,167.268,156.953z
	 M245.081,156.732c-0.479,0.902-1.275,2.135-1.781,2.889c-0.419,0.625-0.644,0.787-1.608,0.787h-9.562
	c-0.722,0-0.911,0.313-0.986,0.701c-0.152,0.791,0.319,1.745,3.612,1.745c2.699,0,4.591-0.319,5.842-0.693
	c1.043-0.312,1.195,0.255,0.705,0.933l-0.511,0.816c-0.457,0.66-0.755,0.747-1.502,0.798c-1.461,0.099-4.523,0.403-7.688,0.298
	c-2.816-0.094-10.01-0.046-5.618-7.01c2.158-3.421,4.168-5.152,12.105-5.152C243.275,152.844,246.772,153.551,245.081,156.732
	L245.081,156.732z M237.694,157.525c0.958-1.594,0.573-2.233-0.994-2.233c-1.552,0-2.444,0.479-3.562,2.126
	c-0.26,0.383-0.029,0.674,0.472,0.674h3.076C237.101,158.102,237.487,157.885,237.694,157.525z"/>
</svg>
