<?xml version="1.0" encoding="utf-8"?>
<!-- Generator: Adobe Illustrator 16.0.0, SVG Export Plug-In . SVG Version: 6.00 Build 0)  -->
<svg version="1.2" baseProfile="tiny" id="Layer_1" xmlns="http://www.w3.org/2000/svg" xmlns:xlink="http://www.w3.org/1999/xlink"
	 x="0px" y="0px" width="283.465px" height="283.465px" viewBox="0 0 283.465 283.465" overflow="scroll" xml:space="preserve">
<g>
	<path d="M187.262,173.805c0.692,0.08,0.998,0.293,1.038,0.891c0.118,1.451,0.208,3.992,0.034,5.396
		c-0.064,0.522-0.33,0.852-1.047,0.938c-0.909,0.107-2.91,0.029-4.086,0.056c0.005-2.108,0.01-4.854,0.005-7.354
		C184.574,173.756,186.625,173.727,187.262,173.805L187.262,173.805z M179.723,184.201c3.305,0,7.164,0.285,9.575-0.213
		c0.86-0.178,1.739-0.342,2.332-1.408c0.504-0.93,0.494-9.081,0-10.316c-0.138-0.336-0.702-1.221-2.485-1.492
		c-2.084-0.326-6.149-0.191-9.422-0.191C179.742,171.799,179.742,180.1,179.723,184.201L179.723,184.201z"/>
	<path d="M201.68,170.684c2.313-0.563,6.563-0.523,8.145,0.104c0.879,0.353,1.496,0.644,1.675,1.754
		c0.271,1.772,0.319,7.461,0.079,9.294c-0.1,0.734-0.1,1.873-2.169,2.355c-2.332,0.533-6.435,0.414-8.175-0.129
		c-0.521-0.168-1.647-0.588-1.775-2.303c-0.141-1.906-0.258-7.945,0.105-9.22C199.866,171.453,200.068,171.072,201.68,170.684
		L201.68,170.684z M203.844,173.617c-0.479,0.158-0.775,0.207-0.879,0.859c-0.104,0.65-0.1,4.524,0.098,6.019
		c0.057,0.346,0.238,0.563,0.608,0.712c0.696,0.275,2.56,0.172,3.612,0.049c0.365-0.039,0.621-0.168,0.73-0.701
		c0.217-1.048,0.178-4.467-0.012-6.187c-0.066-0.632-0.605-0.722-0.711-0.751C206.531,173.359,204.723,173.32,203.844,173.617
		L203.844,173.617z"/>
	<polygon points="193.912,170.584 197.445,170.584 197.445,184.221 193.912,184.221 	"/>
	<path d="M168.729,170.584h-3.512c0,0,0.004,9.891,0.01,10.982c0,1.732,0.988,2.563,2.668,2.852c2.725,0.475,5.969,0.262,7.174-0.02
		c1.205-0.297,2.225-0.684,2.225-2.361c-0.01-2.719,0.012-10.145-0.016-11.453c-1.229,0-2.523-0.025-3.336,0
		c-0.004,1.15,0,8.577,0,9.199c0,0.633,0.052,1.65-1.205,1.68c-1.256,0.021-2.381,0.104-2.903-0.029
		c-0.522-0.129-1.077-0.074-1.099-1.283C168.715,178.993,168.729,170.584,168.729,170.584L168.729,170.584z"/>
	<polygon points="137.328,170.578 140.86,170.578 140.86,180.762 146.277,180.762 146.277,184.221 137.328,184.221 	"/>
	<polygon points="107.277,170.584 110.837,170.584 110.837,184.23 107.255,184.23 	"/>
	<polygon points="87.018,170.574 90.58,170.574 90.58,184.211 87.045,184.211 	"/>
	<path d="M159.445,179.195c-1.047,0-2.1,0-3.145,0c0.506-1.744,1.146-3.879,1.592-5.42
		C158.418,175.371,158.941,177.373,159.445,179.195L159.445,179.195z M151.303,184.211c1.393,0,2.777,0.004,3.508,0.004
		c0.336-1.15,0.6-2.113,0.813-2.796c0.785,0,3.953-0.005,4.574-0.005c0.188,0.656,0.666,2.421,0.814,2.807c1.098,0,2.762,0,3.375,0
		c-0.316-1.176-3.425-12.115-4.003-13.637c-1.097,0.029-3.854-0.02-5.03,0.01C154.727,172.58,151.748,182.719,151.303,184.211
		L151.303,184.211z"/>
	<polygon points="112.668,170.574 122.508,170.574 122.508,174.111 119.288,174.082 119.288,184.23 115.805,184.23 115.805,174.111 
		112.668,174.111 	"/>
	<path d="M126.326,170.584c1.179-0.02,3.859,0.029,4.956,0c0.575,1.521,3.688,12.455,4.002,13.637c-0.494-0.006-2.258,0-3.353,0
		c-0.146-0.386-0.627-2.025-0.811-2.684c-0.627,0-3.794,0.006-4.58,0.006c-0.209,0.682-0.444,1.521-0.785,2.668
		c-0.733,0-2.092,0-3.48,0C122.72,182.719,125.697,172.58,126.326,170.584L126.326,170.584z M128.819,173.875
		c-0.447,1.541-1.087,3.676-1.599,5.414c1.048,0,2.098,0,3.143,0C129.861,177.461,129.34,175.471,128.819,173.875L128.819,173.875z"
		/>
	<path d="M80.135,173.814c0.693,0.084,0.998,0.291,1.042,0.891c0.111,1.452,0.202,4.002,0.03,5.4
		c-0.064,0.525-0.326,0.844-1.048,0.938c-0.907,0.104-2.907,0.03-4.083,0.055c0.004-2.113,0.014-4.854,0.004-7.355
		C77.449,173.766,79.5,173.736,80.135,173.814L80.135,173.814z M72.598,184.211c3.305,0,7.166,0.286,9.58-0.208
		c0.852-0.178,1.734-0.341,2.326-1.413c0.508-0.929,0.497-9.07,0-10.316c-0.133-0.336-0.701-1.215-2.486-1.49
		c-2.086-0.326-6.145-0.188-9.42-0.188C72.614,171.814,72.614,180.109,72.598,184.211L72.598,184.211z"/>
	<path d="M95.053,170.6c2.11-0.529,6.466-0.479,8,0.053c0.828,0.287,1.756,0.714,1.947,2.172c0.101,0.766,0.104,1.771,0.131,2.387
		c-1.189,0-2.369,0-3.561,0c0-0.263-0.092-0.662-0.139-0.932c-0.054-0.279-0.172-0.603-0.881-0.721
		c-0.578-0.1-2.057-0.188-3.039-0.055c-0.862,0.123-1.125,0.415-1.176,1.15c-0.134,1.889-0.06,4.771,0.024,5.707
		c0.066,0.729,0.554,0.84,0.971,0.914c0.595,0.113,2.124,0.146,3.036,0.029c0.654-0.09,0.937-0.13,1.1-0.918
		c0.055-0.27,0.104-0.691,0.104-1.1c-0.758-0.061-1.961,0.029-2.72-0.049c0-0.719-0.005-1.537-0.005-2.256c2.027,0,4.18,0,6.205,0
		c0.252,1.307,0.188,4.734-0.234,5.861c-0.186,0.493-0.773,0.959-1.255,1.155c-1.556,0.618-5.727,0.712-8.063,0.326
		c-0.832-0.134-1.521-0.438-1.885-0.751c-0.265-0.217-0.566-0.701-0.627-1.098c-0.245-1.553-0.316-2.953-0.319-5.785
		c0-0.914,0.163-3.643,0.265-4.155C93.203,171.146,93.937,170.881,95.053,170.6L95.053,170.6z"/>
	<path d="M94.033,130.37c0,6.725,0,20.864,0,22.431c0,2.092-1.176,3.51-3.325,3.51c-1.937-0.006-3.089-1.754-3.089-3.119
		c0-0.414-0.051-12.521-0.051-23.158c0-1.9,1.57-3.17,3.35-3.17C92.699,126.862,94.033,128.426,94.033,130.37L94.033,130.37z
		 M84.611,130.37c0,18.513,0.027,19.907,0.027,23.217c0,1.284,0.834,3.144,1.961,4.081c1.124,0.943,2.236,1.602,4.133,1.602
		c2.065,0,3.225-0.617,4.504-1.809c1.234-1.146,1.806-2.697,1.806-4.525c0-1.234-0.044-17.499-0.044-22.854
		c0-2.802-2.229-6.201-5.922-6.201C87.727,123.88,84.611,125.896,84.611,130.37L84.611,130.37z"/>
	<path d="M202.652,119.307c2.041,0.055,5.925,1.248,5.955,5.49c0.049,4.679-0.041,7.866-0.041,9.057c0,1.2,0,2.146-1.518,2.092
		c-1.357-0.044-5.426-0.049-6.334-0.054c-0.766-0.01-1.631-0.262-1.596-1.725c0.027-0.85,0.273-1.813,0.027-4.61
		c-0.235-2.582-1.877-5.536-5.443-5.442c-2.813,0.072-5.348,1.764-5.604,5.813c-0.099,1.532,0.012,16.852-0.039,23.743
		c-0.028,3.444,2.877,5.825,5.69,5.835c2.283,0,4.351-1.734,5.08-3.513c0.711-1.754,0.364-6.388,0.364-6.597
		c0-1.105,0.427-1.619,1.412-1.619c1.021,0,5.367-0.021,5.861-0.021c0.616,0,2.252-0.229,2.252,1.902c0,2.416-0.06,5.263-0.05,7.904
		c0,3.902-2.724,6.022-4.763,6.022c-1.452,0-18.063,0-19.428,0c-4.394,0-5.776-3.756-5.776-5.885c0-7.822,0.073-30.028,0.021-32.803
		c-0.052-2.775,2.584-5.593,5.262-5.643C186.654,119.208,200.611,119.258,202.652,119.307L202.652,119.307z M176.641,121.183
		c-1.117,2.255-0.842,3.562-0.842,4.607c0,6.74,0.012,31.019,0.021,32.259c0.054,5.133,4.378,8.479,8.912,8.424
		c5.679-0.029,16.711,0,18.942,0c4.664,0,7.927-4.545,7.927-7.807c-0.006-3.873,0.06-8.902,0.06-10.316
		c0-2.191-1.279-3.604-2.826-3.557c-2.707,0.088-7.125-0.061-10.063-0.021c-2.17,0.03-2.556,2.021-2.556,3.998
		c0,2.926,0.158,3.351,0.158,4.401c0,1.201-0.522,3.291-2.51,3.291c-1.991,0-2.781-1.442-2.777-3.662
		c0-1.397-0.004-21.114-0.049-22.72c-0.039-1.235,0.83-3.049,2.657-3.026c1.632,0.025,2.539,1.346,2.521,2.557
		c-0.038,2.298-0.044,3.219-0.049,5.917c-0.01,2.045,1.306,3.35,3.19,3.35c1.15,0,7.024-0.022,9.121-0.022
		c2.09,0,3.123-1.257,3.074-3.698c-0.052-2.456-0.031-4.202-0.031-10.309c0-3.091-2.281-8.646-8.605-8.646
		c-2.145-0.002-14.813-0.042-19.003,0C180.365,116.231,177.895,118.64,176.641,121.183L176.641,121.183z"/>
	<path d="M165.641,119.3c1.482,0,1.469,1.186,1.475,1.517c0-1.131,0,4.345,0,5.393c0,1.045-0.219,1.346-1.521,1.309
		c-1.832-0.054-12.584,0.018-14.21,0.018c-3.688,0-5.055,3.426-5.001,4.795c0.104,2.745,2.036,5.049,5.238,5.102
		c3.189,0.052,8.268-0.022,10.83-0.022c4.396,0,6.295,2.152,6.295,6.602c0,5.118-0.012,11.146-0.012,13.705
		c0,4.715-4.205,5.79-5.307,5.79c-1.098,0-22.336-0.028-23.746-0.028c-1.416,0-1.361-0.991-1.361-2.192
		c0-1.205-0.037-2.5-0.021-4.506c0-1.099,0.803-1.464,1.748-1.464c5.109,0,12.669,0,15.812,0c1.621,0,4.765-1.362,4.709-4.922
		c-0.023-1.782-1.565-4.815-4.709-4.815c-2.236,0-6.48,0-11.31,0c-3.81-0.005-6.176-2.356-6.176-6.072s0.017-11.515,0.02-14.45
		c-0.006-3.227,2.512-5.756,5.736-5.756C149.465,119.29,163.289,119.3,165.641,119.3L165.641,119.3z M135.314,124.409
		c-0.008,3.32,0.02,12.743,0.02,14.573c0,6.493,4.254,9.575,9.16,9.575c4.871,0,8.168,0,10.523,0s2.619,1.156,2.619,1.996
		c0,0.83-0.781,1.828-2.041,1.828c-1.318,0-16.378,0-17.697,0c-1.361,0-2.616,1.374-2.616,2.826c-0.007,2.343,0,6.182,0,8.326
		c0,2.148,2.248,2.979,3.296,2.979c1.047,0,21.862-0.059,26.122-0.01c2.427,0.03,4.585-2.025,5.229-2.91
		c0.465-0.646,1.838-2.523,1.838-5.4c0-5.986,0.021-17.315-0.045-14.916c0.073-2.666-0.986-4.84-2.207-6.124
		c-0.914-0.961-2.927-2.774-6.33-2.774s-8.83,0.002-11.938,0c-1.345,0-1.833-1.05-1.833-2.095c0-0.731,0.544-1.781,2.204-1.781
		c5.163,0,14.495,0,15.752,0c1.254,0,2.544-1.117,2.638-2.513c0.1-1.381-0.01-7.068-0.021-8.792
		c-0.004-1.665-1.065-3.007-4.051-2.952c-1.738,0.027-15.061,0.052-22.018,0C139.479,116.202,135.314,119.987,135.314,124.409
		L135.314,124.409z"/>
	<path d="M126.49,119.3c0.622-0.002,1.432,0.388,1.432,1.537c0,32.287,0.03,38.353,0.03,40.601c0,2.254-0.837,2.041-1.411,2.041
		c-0.575,0-6.195,0.029-7.746,0.029c-0.836,0-1.416-0.395-1.416-1.808c0-3.765,0.055-38.838,0.055-40.622
		c-0.016-1.126,0.266-1.779,1.516-1.779C119.047,119.3,124.039,119.3,126.49,119.3L126.49,119.3z M114.555,119.456
		c0,1.257,0.02,42.308,0.02,43.46c0,2.41,1.404,3.596,3.279,3.596c5,0,8.896,0,10.415,0c1.882,0,2.671-2.06,2.618-3.557
		c-0.037-1.047-0.055-25.33-0.055-43.028c0-2.747-1.484-3.738-3.162-3.738c-1.778,0-6.766,0.047-10.133,0.055
		C115.215,116.264,114.555,118.198,114.555,119.456L114.555,119.456z"/>
	<path d="M183.34,107.679c-1.048,0-2.096,0-3.143,0c0.514-1.744,1.15-3.874,1.596-5.42
		C182.316,103.855,182.836,105.854,183.34,107.679L183.34,107.679z M175.201,112.798c1.389,0,2.624,0,3.41,0
		c0.34-1.154,0.695-2.189,0.904-2.871c0.789,0,3.928,0,4.555,0c0.188,0.655,0.691,2.463,0.84,2.851c1.098,0,2.807-0.005,3.424,0
		c-0.316-1.178-3.547-12.258-4.125-13.78c-1.098,0.027-3.73-0.022-4.911,0.002C178.625,101.142,175.602,111.457,175.201,112.798
		L175.201,112.798z"/>
	<path d="M171.512,102.58c0.391,0.292,0.523,2.67,0.078,3.325c-0.445,0.655-3.072,0.422-4.451,0.42c0.024-1.213-0.025-2.959,0-4.135
		C169.18,102.19,170.773,102.037,171.512,102.58L171.512,102.58z M163.709,112.773c1.111,0,2.316,0.025,3.43,0.025
		c0-0.993-0.025-2.399,0-3.236c0.494,0.04,2.119,0.027,3.344-0.002c2.037-0.044,3.91-0.274,4.479-1.411
		c0.521-1.038,0.443-3.928,0.342-5.312c-0.068-0.929-0.023-1.789-0.576-2.515c-0.332-0.44-0.604-0.801-1.554-1.137
		c-1.565-0.558-6.282-0.19-9.438-0.19C163.744,103.321,163.709,111.59,163.709,112.773L163.709,112.773z"/>
	<path d="M143.605,98.998c0.81,0,3.389-0.002,5.138-0.002c1.67,4.708,3.028,8.525,3.528,10.018c0.811-2.199,1.66-4.615,3.446-10.015
		c1.69-0.02,3.438-0.002,5.114-0.002c0,4.689-0.006,12.5-0.006,13.777c-0.706,0.027-1.906,0.02-3.43,0
		c-0.006-1.423-0.006-7.485,0-9.857c-0.683,1.828-1.67,4.691-3.43,9.857c-1.146,0-2.203,0.025-3.35,0.025
		c-1.482-4.18-2.876-8.13-3.454-9.934c-0.024,0.889-0.005,6.692-0.005,9.909c-1.127,0-2.422,0.025-3.557,0.025
		C143.615,108.608,143.585,100.288,143.605,98.998L143.605,98.998z"/>
	<path d="M105.995,101.997c1.307-0.027,1.368,0.956,1.386,1.388c0.035,0.801,0.032,57.357,0.032,58.344
		c0,1.207-0.347,1.789-1.67,1.778c-13.299-0.054-23.383-0.028-25.372-0.028c-2.46,0-5.654-1.957-5.654-5.543
		c-0.057-17.292,0.092-31.806,0.052-33.585c-0.052-2.406,2.577-5.109,5.313-5.104c4.113,0.01,10.915,0.007,13.637,0
		c2.043-0.002,3.304-0.998,3.271-3.481c0.072-6.352,0.074-9.397,0.027-12.065c-0.037-2.147,1.426-1.67,1.857-1.729
		C98.813,101.982,104.164,101.945,105.995,101.997L105.995,101.997z M94.033,102.024c0.066,1.791,0,4.076,0,12.93
		c0.01,0.768-0.546,1.235-1.487,1.235c-0.944,0-8.065-0.02-12.698,0.02c-4.454,0.027-8.088,4.435-8.088,7.567
		c0.037,16.189-0.027,29.376-0.027,34.05c0,4.783,3.214,7.125,5.547,8.063c1.593,0.633,3.846,0.622,6.074,0.622
		c3.014,0,16.235-0.028,23.165,0c4.228,0.025,3.97-3.11,3.97-4.125c0-0.677-0.02-13.315-0.02-60.205c0-0.313,0-3.191-3.14-3.191
		c-1.937,0-7.088-0.097-10.68,0C95.567,99.015,93.957,100.12,94.033,102.024L94.033,102.024z"/>
	<path d="M137.322,102.148c0.102,0.034,0.467,0.096,0.536,0.726c0.188,1.719,0.229,5.141,0.013,6.184
		c-0.113,0.536-0.368,0.662-0.734,0.707c-1.052,0.124-2.912,0.225-3.609-0.052c-0.37-0.146-0.553-0.358-0.607-0.709
		c-0.197-1.497-0.205-5.364-0.099-6.016c0.104-0.655,0.302-0.729,0.759-0.84C134.627,101.891,136.663,101.928,137.322,102.148
		L137.322,102.148z M129.42,101.048c-0.361,1.275-0.248,7.31-0.106,9.215c0.126,1.722,1.257,2.137,1.781,2.302
		c1.733,0.546,5.833,0.667,8.165,0.128c2.072-0.481,2.072-1.621,2.174-2.354c0.239-1.831,0.192-7.518-0.082-9.292
		c-0.178-1.112-0.793-1.406-1.675-1.754c-1.576-0.625-5.833-0.669-8.14-0.104C129.926,99.579,129.721,99.964,129.42,101.048
		L129.42,101.048z"/>
	<path d="M121.596,98.771c0.813-0.024,2.08,0.055,3.225,0.312c1.289,0.292,2.139,1.038,2.245,1.915
		c0.081,0.699,0.155,1.875,0.155,3.167c-1.15,0-2.646,0.025-3.482-0.002c-0.08-0.761,0.023-1.344-0.232-1.724
		c-0.336-0.504-4.467-0.657-4.869,0c-0.195,0.311-0.179,1.102-0.208,1.517c-0.087,1.126-0.175,4.701,0.231,5.366
		c0.4,0.647,4.213,0.731,4.738,0.104c0.235-0.282,0.322-1.263,0.34-1.7c1.012,0,2.355,0,3.482,0c0,1.008,0.05,1.971-0.143,2.767
		c-0.299,1.25-0.65,1.695-1.584,1.999c-1.689,0.541-6.487,0.759-8.602,0.032c-0.922-0.316-1.688-0.514-1.844-1.999
		c-0.43-4.125-0.074-8.239,0.027-9.422c0.131-1.517,1.68-1.966,2.902-2.125C119.252,98.808,120.704,98.8,121.596,98.771
		L121.596,98.771z"/>
	<path d="M195.375,98.83c0.811-0.03,2.08,0.054,3.227,0.309c1.285,0.296,2.142,1.038,2.244,1.915
		c0.084,0.702,0.157,1.851,0.157,3.143c-1.151,0-2.479,0-3.538,0c0-0.788,0.006-1.126-0.183-1.7
		c-0.179-0.578-4.333-0.687-4.63-0.133c-0.178,0.324-0.313,0.474-0.37,1.492c-0.064,1.126-0.247,4.857,0.157,5.524
		c0.398,0.647,4.211,0.731,4.738,0.106c0.236-0.282,0.297-1.29,0.314-1.732c1.014,0,2.355,0.005,3.482,0.005
		c-0.107,1.008-0.08,1.764-0.223,2.789c-0.123,0.862-0.549,1.694-1.482,1.996c-1.688,0.541-6.485,0.761-8.602,0.037
		c-0.92-0.319-1.689-0.514-1.838-1.999c-0.436-4.128-0.08-8.244,0.023-9.425c0.135-1.517,1.676-1.964,2.898-2.127
		C193.033,98.865,194.486,98.857,195.375,98.83L195.375,98.83z"/>
	<polygon points="201.783,99 211.631,99 211.631,102.704 208.409,102.704 208.409,112.783 204.926,112.783 204.926,102.731 
		201.783,102.731 	"/>
</g>
</svg>
