<?xml version="1.0" encoding="utf-8"?>
<!-- Generator: Adobe Illustrator 16.0.0, SVG Export Plug-In . SVG Version: 6.00 Build 0)  -->
<svg version="1.2" baseProfile="tiny" id="Layer_1" xmlns="http://www.w3.org/2000/svg" xmlns:xlink="http://www.w3.org/1999/xlink"
	 x="0px" y="0px" width="283.465px" height="283.465px" viewBox="0 0 283.465 283.465" overflow="scroll" xml:space="preserve">
<path id="XMLID_5_" fill="#F3EA2D" stroke="#000000" stroke-miterlimit="10" d="M265.727,130.176
	c1.795,0.872,3.506,0.748,3.506,0.748v24.744c0,0-7.451-0.54-7.451,8.523v19.722c0,4.37,3.938,4.902,3.938,5.542v17.423h-19.3
	c0,0-1.494-2.991-4.262-2.991h-29.742c-7.145,0-8.216,4.803-8.216,4.803h-18.012v-5.915h-23.985v11.199h-40.932v-11.199H97.289
	v5.915H79.266c0,0-1.064-4.803-8.205-4.803H41.319c-2.775,0-4.262,2.991-4.262,2.991H17.751v-17.423c0-0.64,3.946-1.171,3.946-5.542
	V164.19c0-9.063-7.465-8.523-7.465-8.523v-24.744c0,0,7.465,0.537,7.465-8.527v-19.723c0-4.374-3.946-4.898-3.946-5.545V79.708
	h19.306c0,0,1.487,2.995,4.262,2.995h45.519c3.198,0,4.369-2.995,4.369-2.995h10.442c0,0,1.924-2.825,3.63-0.699
	c1.699,2.136,2.131,2.347,2.555,1.391c0.424-0.955,0-1.599,0.851-2.662c0.86-1.076,2.353-1.287,2.353-1.287l0.207-1.276h-4.366
	v-3.302h19.137v-2.38h31.44v2.38h19.133v3.198h-4.257v0.955c0,0,1.806-0.104,2.339,1.274c0.536,1.392,0.748,2.992,0.748,2.992
	l1.279,0.526l0.964-0.847c0,0,0.959-2.026,2.235-1.607c1.28,0.437,2.026,0.562,1.918,1.342h10.443c0,0,1.179,2.995,4.374,2.995
	h45.522c2.767,0,4.261-2.995,4.261-2.995h19.3v17.421c0,0.647-3.938,1.171-3.938,5.546v19.722c0,9.064,7.451,8.527,7.451,8.527"/>
<g>
	<path id="XMLID_225_" d="M87.379,126.128c0,0,3.271-3.614,6.707-4.207c3.418-0.599,8.847-0.453,9.219,6.625
		c0.371,7.073-5.646,9.209-8.11,8.85l2.96-10.747l-2.866,0.012l-3.085,11.524c4.334,0.626,13.644-0.79,13.793-9.785
		c0.1-6.637-7.971-8.795-13.249-7.373c-2.321,0.607-4.492,2.256-6.725,4.352L87.379,126.128z"/>
	<path id="XMLID_229_" d="M66.982,138.151l2.164-1.276c-4.542-3.412-14.115-5.454-21.066-1.184
		c-7.751,4.757-8.11,15.433-0.748,17.485c5.059,1.419,11.099-1.032,14.148-3.49c-0.974,3.422-2.54,8.898-6.339,9.386
		c-1.774,0.219-3.793-0.823-4.903-2.007l-1.717,1.252c2.379,1.647,7.809,3.331,13.176-1.252c2.076-1.798,4.542-8.422,4.46-10.801
		h-3.423c-3.643,5.059-10.523,7.357-13.911,4.606c-3.95-3.192-3.057-10.641,1.334-14.285
		C54.55,132.942,62.226,132.942,66.982,138.151"/>
	<path id="XMLID_236_" d="M132.342,159.653h3.276c0,0,1.857-5.792,2.524-7.962c0.673-2.146,2.535-2.9,4.247-3.49
		c1.713-0.604,1.939,0.289,1.565,1.484c-0.41,1.321-3.05,9.968-3.05,9.968h3.132c0,0,2.594-8.169,3.115-9.597
		c0.522-1.416,2.008-1.788,3.655-2.229c2.705-0.744,1.484,1.184,0.145,5.348c-0.97,3.043-1.712,5.966-1.489,6.559
		c0.221,0.593,9.456-2.147,11.317-3.205l-0.445-2.075c0,0-2.078,2.749-5.218,3.133c-2.744,0.324-0.961-2.692-0.063-5.606
		c1.015-3.306,2.077-5.638,1.554-6.241c-0.35-0.396-5.437,1.114-6.254,1.413c-0.823,0.292-2.006,1.046-2.452,0.676
		c-0.303-0.256,0.68-1.334,0.295-1.718c-0.382-0.369-5.437,1.127-6.255,1.416c-1.037,0.371-1.849,0.963-2.461,0.593
		c-0.33-0.219,0.68-1.335,0.303-1.717c-0.365-0.36-5.431,1.125-6.253,1.428c-0.818,0.289-0.893,1.044,0.156,0.662
		c1.032-0.371,1.855-0.058,1.855-0.058s-1.02,3.747-1.496,5.35C133.235,156.611,132.342,159.653,132.342,159.653"/>
	<path id="XMLID_243_" d="M226.431,149.163c1.74-0.52,1.943,0.082,1.572,1.276c-0.42,1.322-2.762,9.295-2.762,9.295l3.133-0.081
		c0,0,2.6-8.169,3.123-9.597c0.511-1.416,2.014-1.788,3.654-2.229c2.703-0.744,1.484,1.184,0.146,5.348
		c-0.982,3.043-1.718,5.966-1.487,6.559c0.22,0.593,5.438-1.046,7.293-2.078l0.219-1.045c0,0-1.195,0.594-1.939,0.894
		c-2.568,1.021-0.886-2.61,0-5.524c1.033-3.306,2.098-5.638,1.566-6.241c-0.348-0.396-5.423,1.114-6.253,1.413
		c-0.827,0.292-2.021,1.046-2.461,0.676c-0.3-0.256,0.528-1.949,0.528-1.949h-3.349c-0.598,1.194-2.169,2.552-3.511,2.609
		c-1.338,0.08-2.522,1.346-2.825-1.044c-0.289-2.379-1.565-2.229-2.008-2.011c-0.44,0.233-0.975,1.953,0.302,2.903
		c1.259,0.975,0.818,3.145,0.068,4.63c-0.743,1.484-3.272,4.979-5.736,4.618c-2.441-0.382-4.908-8.273,2.384-11.024l0.376-0.742
		c-3.578,0.289-6.7,1.252-7.896,5.581c-1.184,4.315,0.743,7.668,3.354,8.564c0,0,4.768-1.416,6.706-4.025
		c1.926-2.6,2.599-4.457,2.669-5.964C223.305,149.976,224.945,149.616,226.431,149.163"/>
	<path id="XMLID_252_" d="M194.431,159.653h-3.568l6.619-22.025h3.568c0,0-2.228,7.89-2.529,8.771
		c-0.302,0.907,0.22,1.195,1.933,0.604c1.713-0.604,7.646-3.063,6.714,0.232c-0.758,2.599-2.092,7.357-2.474,8.633
		c-0.358,1.252,0,1.916,1.566,1.194c0.963-0.451,3.284-1.346,4.397-2.539l0.222,1.496c0,0-2.902,1.565-5.286,2.295
		c-2.385,0.756-6.099,2.393-5.438,0c0.676-2.376,2.31-7.819,2.756-9.071c0.447-1.266-0.748-1.939-2.756-1.266
		c-2.008,0.663-2.452,0.813-3.202,3.122C196.202,153.409,194.431,159.653,194.431,159.653"/>
	<path id="XMLID_259_" d="M97.95,147.005c0,0-1.206,3.806-2.088,6.103c-1.189,3.122-3.644,4.804-6.77,4.549
		c-0.465-0.047-2.378-5.442,1.114-8.645C93.703,145.822,97.95,147.005,97.95,147.005l0.077-1.159
		c-7.571-0.348-10.28,3.504-12.211,6.079c0,0-0.745,0.141-2.598,0.965c-1.862,0.813-1.946-1.718-1.862-5.06
		c0.069-3.354-1.945-1.046-3.951,1.264c-2.005,2.311-3.718,4.537-4.088,4.386c-0.371-0.139,0.671-3.271,1.78-7.215h-3.499
		l-3.784,13.389h3.191c0.673-1.402,2.31-3.864,5.139-7.288c2.832-3.411,2.456,0.151,2.524,1.938
		c0.077,1.777,0.893,1.637,2.025,1.115c1.103-0.522,3.411-1.788,4.531-1.939c-0.963,5.13,1.635,6.776,2.239,6.848
		c0.587,0.08,5.501-2.379,6.695-3.122c1.184-0.745,0.818,0.813,0.517,1.938c-0.459,1.706,1.642,0.976,9.451-2.02
		c2.692-1.008,1.939,0.464,1.195,2.53h3.128c0,0,1.862-5.792,2.528-7.962c0.674-2.146,2.53-2.9,4.241-3.49
		c1.717-0.604,1.944,0.289,1.566,1.484c-0.411,1.321-2.983,9.968-2.983,9.968h3.063c0,0,2.598-8.169,3.119-9.597
		c0.517-1.416,2.002-1.788,3.657-2.229c2.702-0.744,1.479,1.184,0.145,5.348c-0.974,3.043-1.713,5.966-1.491,6.559
		c0.22,0.593,5.43-1.046,7.292-2.078l0.221-1.045c0,0-1.19,0.594-1.932,0.894c-2.563,1.021-0.887-2.61,0-5.524
		c1.021-3.306,2.088-5.638,1.566-6.241c-0.348-0.396-5.43,1.114-6.259,1.413c-0.812,0.292-2.007,1.046-2.447,0.676
		c-0.309-0.256,0.667-1.334,0.302-1.718c-0.382-0.369-5.436,1.127-6.261,1.416c-1.042,0.371-1.861,0.964-2.46,0.593
		c-0.336-0.219,0.673-1.335,0.302-1.717c-0.371-0.36-5.43,1.125-6.254,1.428c-0.824,0.289-0.887,1.044,0.152,0.662
		c1.042-0.371,1.855-0.058,1.855-0.058s-0.598,3.933-1.496,5.35c-1.428,2.273-7.212,3.944-7.879,3.804
		c-0.667-0.161,1.409-6.416,2.976-11.243c-1.445-0.279-2.761-0.44-3.944-0.499L97.95,147.005"/>
	<path id="XMLID_271_" d="M180.389,153.352l1.538-4.711c3.562-1.565,5.5-1.717,4.537,5.732c-0.437,3.317-3.423,4.549-4.988,4.467
		c-1.572-0.069-2.308-1.483-2.239-1.926L180.389,153.352l-3.867-0.082c-1.683,5.464-2.861,9.585-2.861,9.585h3.868l1.116-3.864
		c0,0,6.107,2.749,9.454-2.238c4.26-6.337,1.119-10.873,0.521-10.873c-2.183,0-4.096,1.043-5.059,1.425
		c-0.976,0.373-1.497-0.23-1.127-1.345h-3.573c-0.812,2.239-2.529,2.991-3.422,3.133c-1.318,0.22-2.447,0.824-2.75-1.565
		c-0.302-2.379-1.565-2.228-2.014-2.008c-0.452,0.221-0.97,1.927,0.295,2.912c1.266,0.95,0.824,3.109,0.082,4.595
		c-0.743,1.495-3.273,4.988-5.731,4.628c-2.462-0.382-4.92-8.272,2.379-11.021l0.369-0.756c-3.573,0.313-6.695,1.275-7.89,5.604
		c-1.195,4.305,0.743,7.659,3.347,8.552c0,0,4.775-1.426,6.695-4.016c1.944-2.609,2.616-4.479,2.691-5.963
		c0,0,1.514-0.069,3.046-0.291c0.97-0.148,1.788-0.451,1.788-0.451c-0.44,1.357-0.841,2.703-1.229,3.955L180.389,153.352"/>
	<path id="XMLID_279_" d="M185.895,128.637c-2.041,0.88-1.868,3.726-1.868,3.726s1.345,0,3.423-1.414
		c0.951-0.661,1.195-2.754,1.195-2.754S187.497,127.932,185.895,128.637l-1.624-1.208c1.537-0.976,3.654-1.434,6.468-0.858
		c0.145,4.24-4.611,6.86-6.839,6.919c0,1.426,1.276,3.376,3.342,2.239c0.818-0.451,3.466-1.902,3.466-1.902l-0.677,1.566
		c0,0-1.896,1.751-5.022,2.122c-1.854,0.22-3.718-0.755-4.103-2.749c-2.008,0.895-3.748,1.602-5.244,2.345
		c-3.064,1.532-2.598-0.905-2.234-2.24c0.377-1.346,0.982-3.866,1.34-5.061c0.788-2.501-1.706-1.333-3.491-0.371
		c-1.794,0.974-2.536,4.761-3.877,8.566h-2.517c0,0,0.138-1.044,1.103-3.726c0,0-0.295,0.072-1.776,0.964
		c-1.494,0.906-4.699,2.68-6.568,2.761c-1.851,0.068-2.001-4.329-1.101-7.893c-1.717,0.517-3.127,0.3-3.127,0.3
		c-1.643-2.458-2.757-3.359-4.173-2.836c-1.428,0.517-0.452,1.863,1.113,3.883c1.561,2.008,2.831,4.235,0.22,5.94
		c-3.445,2.273-6.764-0.22-7.953-1.927c0,0-1.87,0.895-3.504,1.566c-4.173,1.696-3.575-0.08-2.907-2.238
		c0,0-3.417,1.565-6.179,2.598c-2.754,1.044-2.674-0.22-2.081-2.064c0,0-3.645,1.483-6.028,2.378
		c-2.379,0.881-1.423-1.126-0.888-2.761c-1.869,0.962-6.404,2.61-8.204,3.121c-1.777,0.522-3.72-0.741-4.091-2.737
		c-1.037,0.359-4.241,1.625-4.241,1.625l-0.521-0.522c0,0,3.051-1.335,4.694-2.088c0-2.021,0.998-4.888,3.493-6.413l1.52,1.3
		c-2.036,0.876-1.867,3.722-1.867,3.722s1.34,0,3.428-1.415c0.963-0.648,1.195-2.75,1.195-2.75s-1.149-0.254-2.756,0.441l-1.52-1.3
		c1.531-0.935,3.625-1.362,6.411-0.807c0.15,4.25-4.612,6.86-6.851,6.919c0,1.427,1.19,3.134,3.428,2.391
		c2.227-0.744,5.43-2.159,6.248-3.643c0.818-1.496,1.78-3.131,2.384-5.508h2.448c0,0-0.593,2.001-1.252,4.382
		c-0.674,2.378-1.275,4.098-0.97,4.178c0.296,0.069,3.347-1.044,4.393-2.83c1.037-1.788,2.229-5.728,2.229-5.728h2.749
		c0,0-0.741,2.307-1.335,4.243c-0.585,1.938-1.201,4.003-0.818,4.166c0.371,0.151,4.09-1.032,5.139-2.83
		c1.034-1.778,1.856-4.91,1.856-4.91h-2.081l0.369-0.964h2.083l1.189-3.655h2.688l-1.125,3.719h2.157l-0.289,1.038h-2.087
		c0,0-0.744,2.021-1.266,3.948c-0.516,1.951-1.206,3.342-0.958,3.654c0.516,0.675,2.674-1.112,5.053-2.019
		c0.29,1.659,1.485,3.505,2.976,3.573c3.795,0.188,2.014-2.899,0.522-4.687c-2.727-3.274-1.341-4.76,0.813-6.032
		c2.163-1.257,4.768,1.207,6.263,2.692c0,0,1.185,0,2.299-0.231c0,0,0.893-0.366,2.013-1.189c3.081-2.256,5.286-1.045,6.627,0.439
		l-2.084,1.717c0.145-1.484-1.408-2.908-3.354-1.717c-1.925,1.196-1.713,6.339-0.444,7.451c1.263,1.126,5.354-1.868,6.781-3.502
		c1.095-1.262,2.084-6.107,3.493-9.902h2.527l-1.635,5.889c0,0,3.134-0.819,5.209-1.421c4.19-1.188,1.266,4.993,0.594,7.37
		c-0.662,2.378,2.577,0.487,4.288-0.337c0-2.02,0.975-4.835,3.428-6.361L185.895,128.637"/>
	<path id="XMLID_291_" d="M87.379,126.128c0,0,3.271-3.614,6.707-4.207c3.418-0.599,8.847-0.453,9.219,6.625
		c0.371,7.073-5.646,9.209-8.11,8.85l2.96-10.747l-2.866,0.012l-3.085,11.524c4.334,0.626,13.644-0.79,13.793-9.785
		c0.1-6.637-7.971-8.795-13.249-7.373c-2.321,0.607-4.492,2.256-6.725,4.352L87.379,126.128z"/>
	<path id="XMLID_295_" d="M94.115,138.609c-0.716,0-1.377-0.046-1.957-0.13l-0.334-0.05l3.233-12.064l3.485-0.016l-2.967,10.78
		l0.18,0.004c2.497-0.01,7.261-2.058,7.27-7.967c0-0.199-0.008-0.402-0.016-0.601c-0.32-5.423-3.493-6.525-6.533-6.565
		c-0.819,0-1.622,0.089-2.337,0.216c-3.279,0.546-6.54,4.099-6.536,4.11l-0.16,0.172l-1.92-1.058l0.298-0.279
		c2.247-2.105,4.445-3.788,6.849-4.422c1.049-0.283,2.201-0.43,3.383-0.43c4.83,0.007,10.227,2.458,10.242,7.969v0.126
		c-0.145,8.015-7.373,10.204-12.113,10.204H94.115z M94.115,138.012c4.635-0.017,11.461-2.033,11.584-9.609v-0.122
		c-0.008-5.027-4.962-7.363-9.65-7.375c-1.129,0-2.235,0.142-3.229,0.409c-2.133,0.559-4.18,2.056-6.294,4.004l0.797,0.441
		c0.701-0.728,3.581-3.577,6.713-4.129c0.739-0.13,1.577-0.228,2.44-0.228c3.183-0.04,6.855,1.411,7.127,7.13
		c0.011,0.212,0.015,0.427,0.015,0.633c-0.007,6.298-5.114,8.554-7.863,8.562c-0.212,0-0.413-0.014-0.595-0.034l-0.346-0.042
		l2.95-10.703l-2.25,0.008l-2.937,10.979C93.042,137.986,93.563,138.012,94.115,138.012z M87.379,126.128l0.141-0.261
		L87.379,126.128z"/>
	<path id="XMLID_296_" d="M66.982,138.151l2.164-1.276c-4.542-3.412-14.115-5.454-21.066-1.184
		c-7.751,4.757-8.11,15.433-0.748,17.485c5.059,1.419,11.099-1.032,14.148-3.49c-0.974,3.422-2.54,8.898-6.339,9.386
		c-1.774,0.219-3.793-0.823-4.903-2.007l-1.717,1.252c2.379,1.647,7.809,3.331,13.176-1.252c2.076-1.798,4.542-8.422,4.46-10.801
		h-3.423c-3.643,5.059-10.523,7.357-13.911,4.606c-3.95-3.192-3.057-10.641,1.334-14.285
		C54.55,132.942,62.226,132.942,66.982,138.151"/>
	<path id="XMLID_300_" d="M48.352,158.561l-0.342-0.241l2.266-1.649l0.182,0.191c0.944,1.015,2.662,1.948,4.194,1.941l0.454-0.024
		c3.229-0.359,4.868-4.919,5.851-8.326c-2.556,1.793-6.52,3.432-10.439,3.438c-1.104,0-2.203-0.13-3.263-0.426
		c-3.686-1.028-5.53-4.172-5.521-7.634c0.004-3.73,2.092-7.874,6.193-10.392c2.846-1.754,6.113-2.457,9.295-2.457
		c4.752,0.003,9.317,1.565,12.107,3.654l0.359,0.265l-2.553,1.508l-0.208,0.121l-0.161-0.178c-2.533-2.78-5.904-4.037-9.147-4.037
		c-2.713,0-5.331,0.886-7.267,2.498c-2.41,1.995-3.745,5.2-3.743,8.154c0,2.268,0.776,4.357,2.407,5.674
		c0.921,0.744,2.135,1.102,3.503,1.102c3.313,0.009,7.46-2.146,9.981-5.654l0.086-0.123h3.866v0.3l0.004,0.115
		c-0.033,2.62-2.406,8.992-4.569,10.911c-2.644,2.259-5.329,3.036-7.666,3.036C51.724,160.321,49.63,159.442,48.352,158.561z
		 M54.222,159.727c2.207,0,4.735-0.723,7.281-2.889c1.877-1.582,4.265-7.814,4.357-10.28h-2.974
		c-2.646,3.582-6.851,5.771-10.374,5.776c-1.471,0-2.828-0.385-3.875-1.235c-1.799-1.458-2.627-3.743-2.627-6.134
		c0-3.129,1.395-6.484,3.958-8.61c2.061-1.711,4.807-2.632,7.646-2.636c3.327,0,6.788,1.266,9.424,4.053l1.564-0.925
		c-2.686-1.868-6.971-3.278-11.382-3.273c-3.095,0-6.251,0.685-8.983,2.366c-3.932,2.412-5.909,6.379-5.909,9.888
		c0.012,3.265,1.673,6.097,5.086,7.058c1,0.28,2.048,0.405,3.105,0.405c4.12,0.007,8.405-1.933,10.781-3.841l0.721-0.579
		l-0.252,0.891c-0.994,3.404-2.492,9.018-6.59,9.601c-0.174,0.021-0.352,0.032-0.524,0.032c-1.665-0.008-3.362-0.894-4.443-1.943
		l-1.166,0.85C50.247,159.042,52.086,159.728,54.222,159.727z M66.98,138.151l0.222-0.2L66.98,138.151z"/>
	<path id="XMLID_301_" d="M132.342,159.653h3.276c0,0,1.857-5.792,2.524-7.962c0.673-2.146,2.535-2.9,4.247-3.49
		c1.713-0.604,1.939,0.289,1.565,1.484c-0.41,1.321-3.05,9.968-3.05,9.968h3.132c0,0,2.594-8.169,3.115-9.597
		c0.522-1.416,2.008-1.788,3.655-2.229c2.705-0.744,1.484,1.184,0.145,5.348c-0.97,3.043-1.712,5.966-1.489,6.559
		c0.221,0.593,9.456-2.147,11.317-3.205l-0.445-2.075c0,0-2.078,2.749-5.218,3.133c-2.744,0.324-0.961-2.692-0.063-5.606
		c1.015-3.306,2.077-5.638,1.554-6.241c-0.35-0.396-5.437,1.114-6.254,1.413c-0.823,0.292-2.006,1.046-2.452,0.676
		c-0.303-0.256,0.68-1.334,0.295-1.718c-0.382-0.369-5.437,1.127-6.255,1.416c-1.037,0.371-1.849,0.963-2.461,0.593
		c-0.33-0.219,0.68-1.335,0.303-1.717c-0.365-0.36-5.431,1.125-6.253,1.428c-0.818,0.289-0.893,1.044,0.156,0.662
		c1.032-0.371,1.855-0.058,1.855-0.058s-1.02,3.747-1.496,5.35C133.235,156.611,132.342,159.653,132.342,159.653"/>
	<path id="XMLID_304_" d="M149.19,159.858l-0.071-0.438c0.007-1.083,0.693-3.639,1.548-6.335c0.758-2.352,1.468-4.028,1.452-4.741
		c-0.053-0.356,0.004-0.327-0.394-0.375c-0.189-0.004-0.473,0.044-0.84,0.147c-1.674,0.44-3.012,0.812-3.455,2.043
		c-0.517,1.406-3.106,9.572-3.111,9.584l-0.063,0.205h-3.753l0.12-0.384c0,0,2.639-8.643,3.052-9.965
		c0.086-0.299,0.139-0.564,0.139-0.771c-0.042-0.413-0.063-0.488-0.492-0.526c-0.196,0-0.472,0.05-0.83,0.181
		c-1.714,0.593-3.437,1.306-4.064,3.298c-0.664,2.175-2.524,7.965-2.524,7.965l-0.066,0.204h-3.499h-0.395l0.111-0.376
		c0-0.012,0.893-3.042,1.706-5.873c0.395-1.33,1.166-4.15,1.417-5.057c-0.117-0.023-0.273-0.042-0.457-0.039
		c-0.268,0-0.586,0.039-0.939,0.165c-0.23,0.079-0.418,0.115-0.588,0.12c-0.252-0.005-0.583-0.175-0.583-0.49
		c0.031-0.417,0.359-0.674,0.814-0.846c0.783-0.29,4.833-1.493,6.089-1.508c0.165,0.012,0.297-0.009,0.481,0.149l0.168,0.437
		c-0.027,0.492-0.389,1.062-0.448,1.274l0.204,0.029c0.393,0.022,1.082-0.38,1.918-0.685c0.771-0.274,4.787-1.482,6.069-1.499
		c0.178,0.013,0.313,0.004,0.491,0.15l0.175,0.455c-0.026,0.493-0.384,1.055-0.438,1.266l0.086,0.007
		c0.397,0.02,1.33-0.496,2.023-0.75c0.771-0.282,4.776-1.493,6.066-1.503c0.182,0.01,0.33-0.008,0.517,0.169
		c0.168,0.198,0.209,0.438,0.209,0.693c-0.011,1.122-0.88,3.127-1.706,5.835c-0.56,1.769-1.406,3.593-1.39,4.529
		c0.045,0.522,0.093,0.661,0.791,0.708l0.341-0.017c2.982-0.354,5.013-3.009,5.02-3.017l0.386-0.518l0.633,2.919l-0.193,0.11
		c-1.795,0.995-9.399,3.303-11.171,3.321C149.572,160.083,149.376,160.164,149.19,159.858z M152.469,147.63
		c0.186,0.192,0.247,0.449,0.247,0.714c-0.017,0.987-0.74,2.573-1.481,4.922c-0.851,2.655-1.527,5.268-1.519,6.152l0.001,0.099
		l0.038-0.001c1.426,0.021,8.75-2.172,10.689-3.146l-0.275-1.272c-0.76,0.823-2.555,2.473-5.017,2.779l-0.414,0.028
		c-0.908-0.004-1.388-0.586-1.388-1.308c0.016-1.21,0.884-2.974,1.418-4.707c0.838-2.703,1.694-4.811,1.678-5.656l-0.041-0.266
		l-0.094-0.003c-1.039-0.014-5.188,1.204-5.862,1.467c-0.633,0.21-1.509,0.771-2.226,0.786c-0.178,0-0.361-0.041-0.516-0.165
		l-0.169-0.375c0.039-0.509,0.468-1.085,0.44-1.327v-0.005l-0.071-0.002c-1.032-0.015-5.187,1.206-5.869,1.458
		c-0.775,0.271-1.43,0.71-2.117,0.73c-0.201,0-0.411-0.051-0.612-0.172l-0.191-0.394c0.04-0.497,0.467-1.08,0.451-1.327h-0.055
		c-1.008-0.015-5.204,1.203-5.89,1.471l-0.333,0.173l0.292-0.073c0.42-0.152,0.811-0.204,1.137-0.204
		c0.543,0.005,0.907,0.14,0.93,0.151l0.244,0.093l-0.066,0.26c0,0-1.022,3.748-1.497,5.355c-0.638,2.229-1.33,4.587-1.594,5.489
		h2.665c0.336-1.053,1.864-5.825,2.456-7.751c0.721-2.297,2.719-3.094,4.431-3.682c0.397-0.141,0.731-0.211,1.027-0.215
		c0.705,0.004,1.087,0.543,1.087,1.122c0,0.296-0.066,0.611-0.165,0.946c-0.357,1.153-2.415,7.888-2.935,9.579h2.516
		c0.405-1.28,2.572-8.089,3.05-9.401c0.605-1.596,2.234-1.968,3.857-2.41c0.393-0.107,0.716-0.168,0.995-0.171
		C152.011,147.369,152.277,147.437,152.469,147.63z"/>
	<path id="XMLID_305_" d="M226.431,149.163c1.74-0.52,1.943,0.082,1.572,1.276c-0.42,1.322-2.762,9.295-2.762,9.295l3.133-0.081
		c0,0,2.6-8.169,3.123-9.597c0.511-1.416,2.014-1.788,3.654-2.229c2.703-0.744,1.484,1.184,0.146,5.348
		c-0.982,3.043-1.718,5.966-1.487,6.559c0.22,0.593,5.438-1.046,7.293-2.078l0.219-1.045c0,0-1.195,0.594-1.939,0.894
		c-2.568,1.021-0.886-2.61,0-5.524c1.033-3.306,2.098-5.638,1.566-6.241c-0.348-0.396-5.423,1.114-6.253,1.413
		c-0.827,0.292-2.021,1.046-2.461,0.676c-0.3-0.256,0.528-1.949,0.528-1.949h-3.349c-0.598,1.194-2.169,2.552-3.511,2.609
		c-1.338,0.08-2.522,1.346-2.825-1.044c-0.289-2.379-1.565-2.229-2.008-2.011c-0.44,0.233-0.975,1.953,0.302,2.903
		c1.259,0.975,0.818,3.145,0.068,4.63c-0.743,1.484-3.272,4.979-5.736,4.618c-2.441-0.382-4.908-8.273,2.384-11.024l0.376-0.742
		c-3.578,0.289-6.7,1.252-7.896,5.581c-1.184,4.315,0.743,7.668,3.354,8.564c0,0,4.768-1.416,6.706-4.025
		c1.926-2.6,2.599-4.457,2.669-5.964C223.305,149.976,224.945,149.616,226.431,149.163"/>
	<path id="XMLID_308_" d="M213.831,160.246c-2.214-0.763-3.915-3.146-3.915-6.304c0-0.824,0.12-1.705,0.37-2.619
		c1.219-4.477,4.561-5.529,8.16-5.798l0.525-0.045l-0.24,0.479l-0.429,0.84l-0.11,0.041c-3.525,1.337-4.64,3.833-4.653,6.092
		c-0.023,2.286,1.257,4.268,2.205,4.363l0.313,0.018c2.082,0.052,4.462-3.107,5.119-4.476c0.386-0.779,0.691-1.761,0.691-2.602
		c-0.005-0.712-0.203-1.291-0.674-1.657c-0.688-0.511-0.925-1.231-0.921-1.847c0.026-0.712,0.237-1.299,0.652-1.556
		c0.171-0.091,0.393-0.149,0.65-0.149c0.722-0.017,1.606,0.589,1.794,2.384c0.176,1.12,0.383,1.171,0.665,1.187
		c0.384,0.02,1.068-0.344,1.856-0.403c1.157-0.024,2.72-1.34,3.253-2.447l0.085-0.162h4.01l-0.213,0.427
		c0.004,0.006-0.585,1.234-0.564,1.609l0.096,0.01c0.399,0.02,1.339-0.495,2.03-0.754c0.783-0.278,4.779-1.488,6.068-1.502
		c0.178,0.014,0.324-0.008,0.516,0.172c0.166,0.196,0.209,0.435,0.211,0.694c-0.016,1.126-0.881,3.129-1.721,5.831
		c-0.547,1.768-1.365,3.82-1.354,4.797c0.042,0.459,0.059,0.488,0.333,0.514c0.138,0.007,0.352-0.039,0.629-0.148
		c0.727-0.292,1.916-0.881,1.916-0.881l0.547-0.271l-0.121,0.594l-0.25,1.177l-0.119,0.066c-1.666,0.903-5.633,2.221-7.05,2.24
		c-0.233-0.02-0.491,0.016-0.66-0.305l-0.072-0.445c0.009-1.096,0.685-3.638,1.548-6.321c0.758-2.35,1.465-4.028,1.449-4.739
		c-0.052-0.355,0.004-0.327-0.392-0.379c-0.195,0-0.475,0.046-0.842,0.149c-1.665,0.439-3.026,0.812-3.455,2.041
		c-0.514,1.407-3.112,9.576-3.116,9.584l-0.063,0.2l-3.754,0.096l0.116-0.387c0,0,2.342-7.97,2.759-9.29
		c0.093-0.313,0.143-0.568,0.138-0.736c-0.045-0.313,0.01-0.306-0.406-0.357c-0.204,0-0.519,0.056-0.929,0.179
		c-1.173,0.358-2.435,0.656-2.934,0.768c-0.124,1.546-0.858,3.4-2.709,5.9c-2.05,2.736-6.84,4.118-6.857,4.136l-0.097,0.025
		L213.831,160.246z M210.861,151.481c-0.24,0.866-0.348,1.691-0.348,2.461c0,2.899,1.527,5.01,3.414,5.711
		c0.646-0.216,4.786-1.602,6.469-3.892c1.905-2.576,2.542-4.376,2.61-5.801l0.01-0.23l0.223-0.048c0,0,1.631-0.356,3.102-0.806
		l0.089,0.284l-0.085-0.284c0.441-0.131,0.799-0.202,1.1-0.202c0.604,0,0.999,0.433,1.004,0.95
		c-0.005,0.271-0.067,0.565-0.167,0.903c-0.36,1.138-2.167,7.282-2.646,8.898l2.515-0.067c0.403-1.26,2.585-8.092,3.063-9.402
		c0.595-1.607,2.243-1.974,3.853-2.413c0.396-0.111,0.719-0.171,0.998-0.171c0.29,0,0.555,0.067,0.745,0.258
		c0.188,0.191,0.245,0.45,0.245,0.717c-0.016,0.985-0.74,2.57-1.479,4.918c-0.856,2.64-1.521,5.233-1.514,6.139l0.007,0.149
		l0.127,0.007c1.116,0.015,5.036-1.251,6.641-2.1l0.068-0.316c-0.416,0.199-0.984,0.461-1.414,0.637
		c-0.327,0.127-0.599,0.192-0.849,0.195c-0.637-0.003-0.925-0.566-0.929-1.11c0.013-1.222,0.85-3.22,1.39-4.973
		c0.845-2.703,1.706-4.805,1.688-5.656l-0.041-0.265l-0.09-0.004c-1.039-0.017-5.177,1.201-5.862,1.468
		c-0.637,0.214-1.521,0.767-2.236,0.787c-0.178-0.005-0.358-0.04-0.517-0.177l-0.172-0.43c0.011-0.427,0.248-1.033,0.43-1.438
		h-2.706c-0.707,1.233-2.217,2.518-3.671,2.604c-0.613,0.029-1.242,0.392-1.884,0.409c-0.655,0.016-1.143-0.551-1.252-1.713
		c-0.229-1.668-0.819-1.843-1.207-1.863l-0.367,0.083c-0.05,0-0.359,0.491-0.339,1.028c0.004,0.481,0.166,0.981,0.686,1.377
		c0.666,0.517,0.911,1.317,0.907,2.129c0,0.977-0.337,2.02-0.756,2.865c-0.757,1.457-3.03,4.755-5.647,4.811l-0.4-0.028
		c-1.498-0.292-2.689-2.479-2.712-4.952c-0.014-2.434,1.271-5.197,4.926-6.602l0.083-0.16
		C214.645,146.523,211.975,147.514,210.861,151.481z"/>
	<path id="XMLID_309_" d="M194.431,159.653h-3.568l6.619-22.025h3.568c0,0-2.228,7.89-2.529,8.771
		c-0.302,0.907,0.22,1.195,1.933,0.604c1.713-0.604,7.646-3.063,6.714,0.232c-0.758,2.599-2.092,7.357-2.474,8.633
		c-0.358,1.252,0,1.916,1.566,1.194c0.963-0.451,3.284-1.346,4.397-2.539l0.222,1.496c0,0-2.902,1.565-5.286,2.295
		c-2.385,0.756-6.099,2.393-5.438,0c0.676-2.376,2.31-7.819,2.756-9.071c0.447-1.266-0.748-1.939-2.756-1.266
		c-2.008,0.663-2.452,0.813-3.202,3.122C196.202,153.409,194.431,159.653,194.431,159.653"/>
	<path id="XMLID_313_" d="M190.461,159.944l6.8-22.618h4.182l-0.108,0.384c0,0.004-2.222,7.874-2.535,8.784l-0.065,0.323
		c0.037,0.17-0.039,0.148,0.324,0.192c0.265,0,0.706-0.091,1.293-0.287c1.056-0.364,3.709-1.461,5.48-1.469
		c0.872,0,1.722,0.361,1.725,1.351c0,0.213-0.036,0.44-0.106,0.713c-0.756,2.597-2.09,7.355-2.473,8.635
		c-0.078,0.273-0.12,0.508-0.118,0.68c0.041,0.382,0.041,0.389,0.34,0.426c0.196,0,0.509-0.071,0.929-0.267
		c0.98-0.448,3.282-1.356,4.309-2.474l0.419-0.449l0.096,0.61l0.252,1.697l-0.186,0.104c-0.008,0.004-2.907,1.573-5.338,2.315
		c-1.447,0.456-3.387,1.256-4.649,1.269c-0.624-0.004-1.255-0.319-1.26-1.055c0-0.179,0.037-0.373,0.099-0.576
		c0.677-2.385,2.31-7.815,2.759-9.088l0.074-0.401c-0.007-0.435-0.298-0.715-1.12-0.74c-0.362,0-0.822,0.075-1.335,0.255
		c-2.028,0.709-2.225,0.649-3.012,2.931c-0.744,2.299-2.518,8.531-2.518,8.543l-0.061,0.212H190.461z M194.429,159.65v-0.298V159.65
		z M191.258,159.353h2.944c0.321-1.11,1.797-6.278,2.465-8.346c0.715-2.334,1.403-2.696,3.387-3.309
		c0.567-0.198,1.08-0.284,1.527-0.286c0.956,0.002,1.713,0.489,1.718,1.334c0,0.189-0.04,0.39-0.113,0.599
		c-0.438,1.232-2.077,6.682-2.75,9.059l-0.071,0.406c0.029,0.37,0.12,0.416,0.665,0.457c1.033,0.009,3.003-0.768,4.476-1.234
		c1.987-0.605,4.373-1.822,5.047-2.175l-0.109-0.732c-1.259,1.061-3.213,1.803-4.064,2.208c-0.471,0.207-0.85,0.314-1.18,0.319
		c-0.595-0.005-0.937-0.498-0.937-1.021c0-0.259,0.056-0.542,0.143-0.85c0.382-1.268,1.72-6.027,2.471-8.621
		c0.06-0.226,0.081-0.411,0.081-0.557c-0.014-0.573-0.318-0.719-1.128-0.756c-1.558-0.007-4.223,1.055-5.285,1.433
		c-0.623,0.21-1.102,0.321-1.487,0.325c-0.494-0.004-0.917-0.321-0.92-0.789c0.003-0.171,0.04-0.337,0.103-0.515
		c0.255-0.742,1.97-6.795,2.417-8.38h-2.956L191.258,159.353z"/>
	<path id="XMLID_314_" d="M97.95,147.005c0,0-1.206,3.806-2.088,6.103c-1.189,3.122-3.644,4.804-6.77,4.549
		c-0.465-0.047-2.378-5.442,1.114-8.645C93.703,145.822,97.95,147.005,97.95,147.005l0.077-1.159
		c-7.571-0.348-10.28,3.504-12.211,6.079c0,0-0.745,0.141-2.598,0.965c-1.862,0.813-1.946-1.718-1.862-5.06
		c0.069-3.354-1.945-1.046-3.951,1.264c-2.005,2.311-3.718,4.537-4.088,4.386c-0.371-0.139,0.671-3.271,1.78-7.215h-3.499
		l-3.784,13.389h3.191c0.673-1.402,2.31-3.864,5.139-7.288c2.832-3.411,2.456,0.151,2.524,1.938
		c0.077,1.777,0.893,1.637,2.025,1.115c1.103-0.522,3.411-1.788,4.531-1.939c-0.963,5.13,1.635,6.776,2.239,6.848
		c0.587,0.08,5.501-2.379,6.695-3.122c1.184-0.745,0.818,0.813,0.517,1.938c-0.459,1.706,1.642,0.976,9.451-2.02
		c2.692-1.008,1.939,0.464,1.195,2.53h3.128c0,0,1.862-5.792,2.528-7.962c0.674-2.146,2.53-2.9,4.241-3.49
		c1.717-0.604,1.944,0.289,1.566,1.484c-0.411,1.321-2.983,9.968-2.983,9.968h3.063c0,0,2.598-8.169,3.119-9.597
		c0.517-1.416,2.002-1.788,3.657-2.229c2.702-0.744,1.479,1.184,0.145,5.348c-0.974,3.043-1.713,5.966-1.491,6.559
		c0.22,0.593,5.43-1.046,7.292-2.078l0.221-1.045c0,0-1.19,0.594-1.932,0.894c-2.563,1.021-0.887-2.61,0-5.524
		c1.021-3.306,2.088-5.638,1.566-6.241c-0.348-0.396-5.43,1.114-6.259,1.413c-0.812,0.292-2.007,1.046-2.447,0.676
		c-0.309-0.256,0.667-1.334,0.302-1.718c-0.382-0.369-5.436,1.127-6.261,1.416c-1.042,0.371-1.861,0.964-2.46,0.593
		c-0.336-0.219,0.673-1.335,0.302-1.717c-0.371-0.36-5.43,1.125-6.254,1.428c-0.824,0.289-0.887,1.044,0.152,0.662
		c1.042-0.371,1.855-0.058,1.855-0.058s-0.598,3.933-1.496,5.35c-1.428,2.273-7.212,3.944-7.879,3.804
		c-0.667-0.161,1.409-6.416,2.976-11.243c-1.445-0.279-2.761-0.44-3.944-0.499L97.95,147.005"/>
	<path id="XMLID_319_" d="M87.423,160.62c-0.728-0.115-2.694-1.426-2.709-5.021c0-0.526,0.045-1.106,0.142-1.738
		c-1.13,0.322-3.067,1.358-4.045,1.828c-0.444,0.195-0.855,0.361-1.26,0.364c-0.713,0.018-1.17-0.63-1.178-1.74
		c-0.027-0.646,0-1.478-0.068-2.135c-0.063-0.693-0.264-0.952-0.377-0.945c-0.16-0.028-0.728,0.299-1.556,1.317
		c-2.821,3.414-4.448,5.866-5.101,7.227l-0.082,0.169h-3.774l3.951-13.983h4.117l-0.108,0.382c-0.874,3.083-1.707,5.738-1.833,6.685
		l0.146-0.135c0.237-0.224,0.543-0.561,0.899-0.966c0.709-0.81,1.609-1.909,2.588-3.031c1.319-1.479,2.477-2.983,3.53-3.06
		c0.705,0.037,0.939,0.733,0.944,1.82l-0.004,0.178c-0.011,0.476-0.022,0.943-0.022,1.38c0,1.099,0.056,2.038,0.228,2.664
		c0.189,0.643,0.397,0.854,0.732,0.858c0.13,0,0.3-0.036,0.508-0.122c1.479-0.657,2.266-0.888,2.547-0.959
		c1.832-2.466,4.546-6.152,11.445-6.135c0.217,0,0.438,0.006,0.662,0.014v-0.003l0.292,0.017l0.303,0.01v0.007
		c1.119,0.066,2.348,0.228,3.684,0.484l0.33,0.063l-0.103,0.323c-1.362,4.164-3.106,9.494-3.092,10.782l0.003,0.073
		c1.044-0.04,6.294-1.706,7.458-3.67c0.705-1.09,1.262-4.071,1.412-4.972c-0.119-0.024-0.281-0.048-0.481-0.048
		c-0.265,0-0.587,0.041-0.946,0.17c-0.225,0.075-0.409,0.115-0.583,0.119c-0.253-0.004-0.583-0.178-0.583-0.491
		c0.033-0.414,0.359-0.672,0.815-0.849c0.787-0.284,4.829-1.491,6.091-1.503c0.164,0.01,0.295-0.008,0.48,0.141l0.164,0.438
		c-0.025,0.495-0.39,1.071-0.448,1.278l0.204,0.035c0.393,0.016,1.087-0.382,1.926-0.688c0.777-0.272,4.798-1.485,6.079-1.496
		c0.174,0.011,0.31,0,0.488,0.145l0.173,0.444c-0.029,0.502-0.395,1.072-0.443,1.279l0.088,0.01
		c0.398,0.017,1.333-0.498,2.018-0.754c0.783-0.278,4.786-1.492,6.073-1.505c0.178,0.013,0.329-0.008,0.518,0.175
		c0.161,0.195,0.204,0.43,0.204,0.685c-0.012,1.124-0.881,3.128-1.713,5.839c-0.549,1.766-1.363,3.819-1.355,4.795
		c0.045,0.465,0.064,0.492,0.332,0.517c0.137,0.004,0.35-0.041,0.631-0.15c0.721-0.293,1.907-0.882,1.911-0.882l0.543-0.271
		l-0.121,0.599l-0.249,1.173l-0.119,0.066c-1.668,0.907-5.633,2.223-7.048,2.241c-0.232-0.019-0.492,0.018-0.664-0.313l-0.064-0.422
		c0.007-1.087,0.691-3.642,1.549-6.335c0.752-2.349,1.465-4.027,1.45-4.741c-0.051-0.354,0-0.323-0.394-0.374
		c-0.193-0.002-0.471,0.043-0.843,0.146c-1.677,0.443-3.018,0.815-3.451,2.043c-0.516,1.406-3.116,9.572-3.116,9.584l-0.068,0.206
		h-3.684l0.118-0.383c0,0,2.569-8.644,2.983-9.967c0.09-0.303,0.142-0.568,0.142-0.774c-0.048-0.41-0.063-0.485-0.497-0.521
		c-0.194-0.003-0.469,0.05-0.832,0.179c-1.714,0.59-3.431,1.304-4.054,3.298c-0.668,2.174-2.53,7.965-2.533,7.965l-0.063,0.205
		h-3.77l0.146-0.395c0.351-0.969,0.686-1.823,0.674-2.221c-0.052-0.249,0.04-0.196-0.272-0.241c-0.227-0.004-0.635,0.09-1.214,0.307
		c-5.057,1.926-7.672,2.922-8.941,2.938c-0.521-0.005-0.97-0.314-0.974-0.816l0.071-0.452c0.141-0.535,0.29-1.161,0.286-1.533
		l-0.03-0.232l-0.329,0.153c-1.259,0.75-5.873,3.12-6.822,3.167L87.423,160.62z M85.511,153.533
		c-0.145,0.771-0.204,1.458-0.204,2.066c-0.019,3.351,1.895,4.413,2.154,4.424h0.029c0.473,0.047,5.413-2.373,6.506-3.071
		c0.236-0.148,0.438-0.241,0.658-0.245c0.486,0.011,0.609,0.506,0.609,0.829c-0.004,0.499-0.163,1.135-0.308,1.682l-0.052,0.304
		c0.04,0.192-0.043,0.168,0.379,0.218c0.995,0.014,3.703-0.968,8.734-2.897c0.61-0.228,1.059-0.344,1.422-0.348
		c0.52,0,0.866,0.396,0.866,0.836c-0.01,0.547-0.278,1.229-0.565,2.021h2.488c0.337-1.055,1.871-5.825,2.462-7.75
		c0.721-2.295,2.716-3.095,4.422-3.684c0.402-0.143,0.736-0.212,1.03-0.212c0.705,0,1.087,0.54,1.092,1.116
		c-0.004,0.299-0.067,0.615-0.168,0.949c-0.359,1.151-2.366,7.895-2.869,9.58h2.449c0.408-1.282,2.581-8.09,3.058-9.398
		c0.599-1.601,2.229-1.974,3.853-2.412c0.397-0.11,0.721-0.17,1-0.17c0.286,0,0.552,0.068,0.741,0.256
		c0.189,0.195,0.246,0.45,0.246,0.714c-0.014,0.99-0.734,2.577-1.479,4.922c-0.852,2.657-1.523,5.265-1.516,6.155l0.008,0.133
		l0.125,0.005c1.121,0.02,5.042-1.25,6.642-2.102l0.066-0.313c-0.412,0.2-0.977,0.461-1.406,0.637
		c-0.326,0.127-0.602,0.196-0.85,0.196c-0.639,0-0.922-0.568-0.922-1.111c0.007-1.222,0.848-3.22,1.379-4.969
		c0.842-2.714,1.701-4.818,1.69-5.666l-0.043-0.259l-0.088-0.004c-1.04-0.013-5.183,1.205-5.869,1.466
		c-0.63,0.216-1.508,0.771-2.222,0.793c-0.182,0-0.362-0.044-0.52-0.172l-0.164-0.375c0.04-0.507,0.467-1.088,0.445-1.33
		l-0.066-0.002c-1.037-0.015-5.192,1.203-5.877,1.461c-0.784,0.269-1.442,0.709-2.128,0.725c-0.201,0-0.406-0.047-0.6-0.165
		l-0.205-0.401c0.041-0.499,0.467-1.076,0.456-1.323h-0.052c-1.008-0.014-5.2,1.201-5.885,1.471l-0.339,0.173l0.292-0.069
		c0.421-0.155,0.81-0.206,1.139-0.206c0.547,0,0.902,0.138,0.925,0.146l0.222,0.086l-0.036,0.237
		c-0.012,0.024-0.579,3.924-1.541,5.462c-1.553,2.36-6.863,3.912-8.029,3.95l-0.172-0.015c-0.363-0.146-0.337-0.432-0.355-0.659
		c0.016-1.521,1.673-6.503,3.019-10.646c-1.188-0.214-2.282-0.35-3.28-0.413l-0.08,1.232l-0.081-0.023
		c-0.292,0.916-1.26,3.908-2.004,5.847c-1.135,2.999-3.476,4.771-6.433,4.763c-0.212,0-0.425-0.01-0.645-0.026
		c-0.517-0.189-0.543-0.598-0.819-1.291c-0.212-0.686-0.391-1.619-0.391-2.647c0-1.707,0.489-3.705,2.151-5.219
		c2.081-1.895,4.42-2.307,6.023-2.307c0.724,0.004,1.304,0.086,1.649,0.151l0.033-0.51c-0.212-0.008-0.418-0.013-0.623-0.013
		c-6.744,0.019-9.17,3.516-11.035,5.985l-0.07,0.096l-0.115,0.019c0.004,0.009-0.692,0.127-2.532,0.945
		c-0.268,0.116-0.517,0.173-0.75,0.173c-1.453-0.119-1.523-1.93-1.555-4.114c0-0.445,0.011-0.915,0.023-1.395l0.004-0.16
		c-0.011-1.099-0.253-1.227-0.35-1.227c-0.434-0.078-1.844,1.366-3.08,2.854c-2.025,2.243-3.41,4.334-4.277,4.494l-0.147-0.029
		c-0.28-0.148-0.252-0.358-0.268-0.509c0.015-0.905,0.851-3.465,1.763-6.686l-2.878-0.003l-3.616,12.794h2.612
		c0.739-1.467,2.364-3.872,5.098-7.177c0.877-1.041,1.434-1.509,2.013-1.537c0.753,0.059,0.889,0.809,0.97,1.479
		c0.07,0.712,0.041,1.559,0.066,2.172c0.083,1.068,0.28,1.154,0.587,1.168c0.226,0.006,0.595-0.121,1.011-0.31
		c1.104-0.518,3.382-1.79,4.622-1.967l0.405-0.053L85.511,153.533z M89.197,157.385l0.006-0.007L89.197,157.385z M89.708,157.378
		c2.708-0.007,4.79-1.554,5.876-4.376c0.725-1.892,1.679-4.826,1.982-5.78l-0.204-0.038c-0.319-0.052-0.78-0.104-1.336-0.1
		c-1.509,0-3.679,0.375-5.621,2.147c-1.505,1.376-1.958,3.179-1.958,4.779c-0.015,1.637,0.521,3.082,0.744,3.353
		C89.366,157.372,89.536,157.378,89.708,157.378z"/>
	<path id="XMLID_320_" d="M180.389,153.352l1.538-4.711c3.562-1.565,5.5-1.717,4.537,5.732c-0.437,3.317-3.423,4.549-4.988,4.467
		c-1.572-0.069-2.308-1.483-2.239-1.926L180.389,153.352l-3.867-0.082c-1.683,5.464-2.861,9.585-2.861,9.585h3.868l1.116-3.864
		c0,0,6.107,2.749,9.454-2.238c4.26-6.337,1.119-10.873,0.521-10.873c-2.183,0-4.096,1.043-5.059,1.425
		c-0.976,0.373-1.497-0.23-1.127-1.345h-3.573c-0.812,2.239-2.529,2.991-3.422,3.133c-1.318,0.22-2.447,0.824-2.75-1.565
		c-0.302-2.379-1.565-2.228-2.014-2.008c-0.452,0.221-0.97,1.927,0.295,2.912c1.266,0.95,0.824,3.109,0.082,4.595
		c-0.743,1.495-3.273,4.988-5.731,4.628c-2.462-0.382-4.92-8.272,2.379-11.021l0.369-0.756c-3.573,0.313-6.695,1.275-7.89,5.604
		c-1.195,4.305,0.743,7.659,3.347,8.552c0,0,4.775-1.426,6.695-4.016c1.944-2.609,2.616-4.479,2.691-5.963
		c0,0,1.514-0.069,3.046-0.291c0.97-0.148,1.788-0.451,1.788-0.451c-0.44,1.357-0.841,2.703-1.229,3.955L180.389,153.352"/>
	<path id="XMLID_324_" d="M173.265,163.151l0.112-0.379c0-0.004,1.125-3.937,2.742-9.216h-0.001l0.054-0.172l0.063-0.204
		l0.066-0.215h0.004c0.313-1.017,0.635-2.097,0.983-3.193c-0.335,0.099-0.786,0.21-1.283,0.288c-1.16,0.168-2.308,0.248-2.811,0.278
		c-0.141,1.517-0.88,3.371-2.732,5.857c-2.033,2.709-6.827,4.104-6.848,4.121l-0.095,0.027l-0.089-0.031
		c-2.202-0.758-3.908-3.139-3.908-6.288c0-0.828,0.118-1.708,0.372-2.621c1.221-4.477,4.558-5.531,8.15-5.82l0.525-0.051
		l-0.233,0.478l-0.424,0.856l-0.11,0.041c-3.537,1.337-4.65,3.833-4.661,6.092c-0.025,2.287,1.258,4.265,2.206,4.36l0.326,0.021
		c2.075,0.049,4.451-3.107,5.111-4.483c0.384-0.784,0.685-1.76,0.681-2.589c0-0.706-0.199-1.28-0.681-1.638
		c-0.677-0.533-0.916-1.259-0.912-1.877c0.025-0.705,0.233-1.29,0.656-1.536c0.174-0.094,0.394-0.152,0.653-0.152
		c0.723-0.017,1.597,0.593,1.797,2.386c0.217,1.41,0.521,1.501,1.026,1.534c0.355,0.004,0.839-0.13,1.384-0.226
		c0.805-0.125,2.423-0.813,3.189-2.94l0.069-0.197h4.208l-0.146,0.4c-0.075,0.209-0.107,0.396-0.107,0.547
		c0.032,0.4,0.125,0.483,0.427,0.508l0.419-0.085c0.933-0.368,2.898-1.447,5.168-1.451c0.803,0.168,1.883,1.873,1.969,4.741
		c0,1.821-0.555,4.079-2.246,6.595c-1.651,2.467-3.997,3.134-5.941,3.127c-1.613,0-2.976-0.437-3.567-0.657l-1.085,3.769h-4.48
		V163.151z M177.305,162.557l1.15-3.978l0.31,0.141c0-0.005,0.41,0.179,1.074,0.361c0.653,0.184,1.56,0.361,2.565,0.361
		c1.821-0.004,3.912-0.582,5.449-2.857c1.633-2.43,2.142-4.566,2.142-6.267c0.015-2.318-1.001-3.871-1.372-4.122v-0.021
		c-2.091,0-3.954,1.005-4.957,1.407c-0.22,0.082-0.434,0.124-0.631,0.124c-0.606,0-1.017-0.498-1.021-1.101l0.034-0.349h-2.979
		c-0.882,2.199-2.625,2.978-3.578,3.126c-0.497,0.079-0.99,0.231-1.479,0.237c-0.805,0.031-1.475-0.581-1.614-2.06
		c-0.238-1.667-0.827-1.85-1.209-1.863l-0.383,0.086c-0.046,0.004-0.356,0.468-0.331,1.005c0,0.484,0.162,0.996,0.677,1.401
		c0.675,0.511,0.918,1.307,0.916,2.112c0,0.97-0.335,2.009-0.746,2.85c-0.76,1.468-3.031,4.767-5.644,4.818l-0.401-0.027
		c-1.507-0.286-2.699-2.479-2.728-4.948c-0.011-2.434,1.276-5.195,4.935-6.6l0.085-0.171c-3.313,0.374-5.987,1.362-7.101,5.33
		c-0.243,0.869-0.351,1.697-0.351,2.466c0,2.892,1.53,4.996,3.412,5.694c0.658-0.215,4.795-1.613,6.454-3.877
		c1.925-2.586,2.563-4.399,2.634-5.798l0.016-0.271l0.27-0.014c0.004,0,1.502-0.065,3.012-0.287c0.937-0.146,1.727-0.438,1.73-0.438
		l0.576-0.217l-0.189,0.588c-0.395,1.217-0.76,2.428-1.113,3.573l3.256,0.068l1.507-4.626l0.124-0.053
		c1.162-0.508,2.16-0.891,3.025-0.895c1.407,0.004,2.164,1.155,2.167,3.683c0,0.887-0.077,1.953-0.244,3.256
		c-0.454,3.395-3.409,4.726-5.134,4.726l-0.161-0.004c-1.69-0.106-2.508-1.458-2.531-2.16l0.022-0.151l1.026-3.181l-1.397-0.03
		l-1.842-0.041c-1.351,4.391-2.362,7.869-2.684,8.984h3.251V162.557z M181.622,158.543c1.474,0,4.154-1.176,4.544-4.207
		c0.164-1.28,0.237-2.33,0.237-3.182c-0.042-2.51-0.592-3.068-1.571-3.085c-0.654-0.004-1.575,0.313-2.663,0.789l-1.498,4.587
		l-0.06,0.179l-1.082,3.352l-0.003,0.019c0.018,0.329,0.667,1.522,1.924,1.55l0.07-0.001H181.622z"/>
	<path id="XMLID_325_" d="M185.895,128.637c-2.041,0.88-1.868,3.726-1.868,3.726s1.345,0,3.423-1.414
		c0.951-0.661,1.195-2.754,1.195-2.754S187.497,127.932,185.895,128.637l-1.624-1.208c1.537-0.976,3.654-1.434,6.468-0.858
		c0.145,4.24-4.611,6.86-6.839,6.919c0,1.426,1.276,3.376,3.342,2.239c0.818-0.451,3.466-1.902,3.466-1.902l-0.677,1.566
		c0,0-1.896,1.751-5.022,2.122c-1.854,0.22-3.718-0.755-4.103-2.749c-2.008,0.895-3.748,1.602-5.244,2.345
		c-3.064,1.532-2.598-0.905-2.234-2.24c0.377-1.346,0.982-3.866,1.34-5.061c0.788-2.501-1.706-1.333-3.491-0.371
		c-1.794,0.974-2.536,4.761-3.877,8.566h-2.517c0,0,0.138-1.044,1.103-3.726c0,0-0.295,0.072-1.776,0.964
		c-1.494,0.906-4.699,2.68-6.568,2.761c-1.851,0.068-2.001-4.329-1.101-7.893c-1.717,0.517-3.127,0.3-3.127,0.3
		c-1.643-2.458-2.757-3.359-4.173-2.836c-1.428,0.517-0.452,1.863,1.113,3.883c1.561,2.008,2.831,4.235,0.22,5.94
		c-3.445,2.273-6.764-0.22-7.953-1.927c0,0-1.87,0.895-3.504,1.566c-4.173,1.696-3.575-0.08-2.907-2.238
		c0,0-3.417,1.565-6.179,2.598c-2.754,1.044-2.674-0.22-2.081-2.064c0,0-3.645,1.483-6.028,2.378
		c-2.379,0.881-1.423-1.126-0.888-2.761c-1.869,0.962-6.404,2.61-8.204,3.121c-1.777,0.522-3.72-0.741-4.091-2.737
		c-1.037,0.359-4.241,1.625-4.241,1.625l-0.521-0.522c0,0,3.051-1.335,4.694-2.088c0-2.021,0.998-4.888,3.493-6.413l1.52,1.3
		c-2.036,0.876-1.867,3.722-1.867,3.722s1.34,0,3.428-1.415c0.963-0.648,1.195-2.75,1.195-2.75s-1.149-0.254-2.756,0.441l-1.52-1.3
		c1.531-0.935,3.625-1.362,6.411-0.807c0.15,4.25-4.612,6.86-6.851,6.919c0,1.427,1.19,3.134,3.428,2.391
		c2.227-0.744,5.43-2.159,6.248-3.643c0.818-1.496,1.78-3.131,2.384-5.508h2.448c0,0-0.593,2.001-1.252,4.382
		c-0.674,2.378-1.275,4.098-0.97,4.178c0.296,0.069,3.347-1.044,4.393-2.83c1.037-1.788,2.229-5.728,2.229-5.728h2.749
		c0,0-0.741,2.307-1.335,4.243c-0.585,1.938-1.201,4.003-0.818,4.166c0.371,0.151,4.09-1.032,5.139-2.83
		c1.034-1.778,1.856-4.91,1.856-4.91h-2.081l0.369-0.964h2.083l1.189-3.655h2.688l-1.125,3.719h2.157l-0.289,1.038h-2.087
		c0,0-0.744,2.021-1.266,3.948c-0.516,1.951-1.206,3.342-0.958,3.654c0.516,0.675,2.674-1.112,5.053-2.019
		c0.29,1.659,1.485,3.505,2.976,3.573c3.795,0.188,2.014-2.899,0.522-4.687c-2.727-3.274-1.341-4.76,0.813-6.032
		c2.163-1.257,4.768,1.207,6.263,2.692c0,0,1.185,0,2.299-0.231c0,0,0.893-0.366,2.013-1.189c3.081-2.256,5.286-1.045,6.627,0.439
		l-2.084,1.717c0.145-1.484-1.408-2.908-3.354-1.717c-1.925,1.196-1.713,6.339-0.444,7.451c1.263,1.126,5.354-1.868,6.781-3.502
		c1.095-1.262,2.084-6.107,3.493-9.902h2.527l-1.635,5.889c0,0,3.134-0.819,5.209-1.421c4.19-1.188,1.266,4.993,0.594,7.37
		c-0.662,2.378,2.577,0.487,4.288-0.337c0-2.02,0.975-4.835,3.428-6.361L185.895,128.637"/>
	<path id="XMLID_330_" d="M142.529,135.841c-0.543,0.256-1.992,0.931-3.301,1.47c-1.18,0.481-1.995,0.689-2.589,0.693
		c-0.789,0-1.199-0.552-1.203-1.166c0.002-0.444,0.133-0.954,0.297-1.499c-1.105,0.495-3.528,1.56-5.596,2.334
		c-0.706,0.27-1.241,0.394-1.672,0.398c-0.754-0.004-1.147-0.555-1.151-1.167c0.002-0.321,0.069-0.679,0.172-1.064
		c-1.124,0.453-3.653,1.47-5.463,2.149c-0.423,0.152-0.753,0.229-1.04,0.233c-0.58-0.004-0.895-0.479-0.898-0.932
		c0.009-0.516,0.221-1.145,0.438-1.764c-2.141,0.987-5.967,2.361-7.608,2.827c-0.302,0.088-0.603,0.126-0.907,0.126
		c-1.56-0.004-3.022-1.121-3.478-2.759c-1.239,0.453-3.914,1.511-3.917,1.511l-0.186,0.07l-0.134-0.138l-0.827-0.829l0.394-0.173
		c0.007-0.004,2.849-1.248,4.521-2.009c0.06-1.998,1.008-4.667,3.297-6.256l-0.011-0.009l0.344-0.209l0.147-0.087l0.039-0.024
		c1.084-0.615,2.419-0.99,4.024-0.99c0.746,0,1.549,0.079,2.417,0.257l0.234,0.044l0.003,0.237l0.003,0.203
		c-0.04,4.197-4.399,6.714-6.835,6.997c0.118,0.99,0.828,1.993,2.077,1.997c0.278,0,0.597-0.049,0.942-0.163
		c2.195-0.713,5.393-2.189,6.083-3.504c0.82-1.501,1.763-3.103,2.357-5.438l0.056-0.225h3.074l-0.111,0.383
		c-0.002,0.003-0.59,1.998-1.253,4.377c-0.506,1.774-0.97,3.227-1.034,3.768c0.721-0.197,3.143-1.248,3.915-2.65
		c1.006-1.727,2.201-5.661,2.201-5.664l0.063-0.214h3.375l-0.123,0.387c0,0.004-0.743,2.311-1.333,4.239
		c-0.461,1.504-0.936,3.129-0.925,3.728l0.001,0.061c0.729-0.065,3.905-1.234,4.706-2.69c0.791-1.355,1.475-3.583,1.723-4.462
		h-2.133l0.163-0.408l0.441-1.15h0.204l1.872-0.003l1.191-3.652h3.298l-1.126,3.718h2.147l-0.104,0.374l-0.351,1.258h-0.227h-1.879
		c-0.198,0.551-0.768,2.17-1.188,3.725c-0.449,1.67-1.021,3.003-1.001,3.375l-0.008,0.024l0.112,0.028
		c0.597,0.045,2.566-1.356,4.604-2.141l0.331-0.128l0.064,0.355c0.264,1.579,1.457,3.306,2.695,3.327l0.304,0.003
		c1.388-0.041,1.625-0.419,1.652-1.002c0.019-0.837-0.863-2.243-1.673-3.201c-1.101-1.318-1.579-2.39-1.583-3.331
		c0.008-1.463,1.156-2.376,2.472-3.146c0.461-0.271,0.949-0.39,1.438-0.39c1.981,0.023,3.863,1.836,5.094,3.036
		c0.315-0.007,1.237-0.036,2.07-0.205c0-0.003,0.855-0.351,1.949-1.155c1.265-0.925,2.417-1.304,3.441-1.304
		c1.549,0,2.741,0.86,3.581,1.786l0.211,0.227l-2.874,2.368l0.063-0.705l0.007-0.169c-0.003-0.875-0.674-1.671-1.647-1.671
		c-0.368,0-0.795,0.11-1.259,0.403c-0.835,0.488-1.296,2.089-1.282,3.672c-0.014,1.466,0.39,2.909,0.878,3.306
		c0.122,0.107,0.296,0.17,0.552,0.17c1.469,0.04,4.661-2.313,5.808-3.646c0.99-1.101,2.033-6.001,3.437-9.808l0.071-0.193h3.129
		l-1.602,5.766c0.969-0.253,3.14-0.831,4.704-1.286c0.377-0.108,0.714-0.162,1.011-0.162c1.121,0,1.571,0.876,1.574,1.838
		c-0.01,1.865-1.247,4.661-1.629,6.059c-0.056,0.199-0.082,0.355-0.082,0.461c0.043,0.312,0.03,0.266,0.339,0.312
		c0.722,0.018,2.352-0.838,3.452-1.379c0.06-1.988,0.981-4.602,3.212-6.187l-0.01-0.008l0.361-0.229l0.171-0.105l0.001,0.002
		c1.093-0.648,2.455-1.053,4.104-1.053c0.74,0,1.546,0.082,2.411,0.26l0.23,0.047l0.007,0.237l0.004,0.199
		c-0.044,4.191-4.401,6.721-6.825,7.003c0.12,0.954,0.824,2.004,1.836,2.004c0.299,0,0.646-0.082,1.049-0.298
		c0.82-0.453,3.467-1.905,3.467-1.905l0.753-0.415l-0.335,0.794l-0.75,1.667c-0.023,0.022-1.966,1.812-5.191,2.199
		c-0.183,0.021-0.367,0.032-0.548,0.032c-1.671,0.008-3.293-0.927-3.791-2.664c-1.874,0.833-3.504,1.5-4.906,2.197
		c-0.713,0.353-1.261,0.517-1.71,0.519c-0.912-0.004-1.221-0.785-1.225-1.459c0.004-0.567,0.146-1.182,0.279-1.646
		c0.374-1.34,0.979-3.862,1.345-5.07c0.096-0.307,0.13-0.543,0.13-0.714c-0.042-0.382-0.068-0.361-0.408-0.405
		c-0.599-0.013-1.823,0.564-2.792,1.096c-1.578,0.795-2.415,4.577-3.735,8.404l-0.069,0.199h-3.067l0.046-0.337
		c0.004-0.024,0.121-0.911,0.877-3.107c-0.258,0.14-0.613,0.345-1.104,0.641c-1.522,0.91-4.696,2.699-6.719,2.803h-0.047
		c-1.48-0.091-1.875-1.941-1.896-4.029c0.004-1.183,0.155-2.5,0.438-3.743c-0.774,0.181-1.462,0.226-1.953,0.226
		c-0.5,0-0.801-0.045-0.813-0.045l-0.134-0.026l-0.069-0.106c-1.336-2.01-2.29-2.866-3.18-2.845c-0.206,0-0.416,0.036-0.646,0.126
		c-0.427,0.168-0.486,0.294-0.497,0.525c-0.033,0.499,0.702,1.574,1.748,2.896c0.912,1.183,1.77,2.457,1.781,3.77
		c0.004,0.94-0.493,1.857-1.634,2.6c-1.03,0.679-2.07,0.959-3.044,0.959C145.384,138.593,143.482,137.082,142.529,135.841z
		 M142.863,135.299c0.799,1.153,2.684,2.716,4.829,2.705c0.862,0,1.779-0.236,2.722-0.855c1.022-0.685,1.355-1.377,1.362-2.106
		c0.008-1.032-0.753-2.252-1.656-3.405c-1.032-1.354-1.845-2.354-1.871-3.259c-0.017-0.491,0.344-0.909,0.887-1.085
		c0.284-0.107,0.568-0.162,0.852-0.162c1.273,0.02,2.278,1.054,3.598,2.996c0.121,0.009,0.323,0.025,0.599,0.025
		c0.553,0,1.372-0.059,2.272-0.329l0.503-0.153l-0.129,0.512c-0.344,1.333-0.532,2.801-0.532,4.086c0,1.017,0.121,1.924,0.361,2.54
		c0.248,0.625,0.554,0.895,0.939,0.895l0.034,0.003c1.729-0.061,4.954-1.821,6.423-2.72c1.498-0.899,1.787-0.977,1.862-0.996
		l0.53-0.134l-0.185,0.52c-0.65,1.805-0.916,2.843-1.021,3.327h1.949c1.314-3.717,1.975-7.395,3.943-8.527
		c1.002-0.535,2.195-1.159,3.075-1.17c0.515,0,0.997,0.365,1.001,0.999c-0.004,0.25-0.052,0.543-0.158,0.888
		c-0.355,1.179-0.957,3.703-1.341,5.059c-0.128,0.442-0.256,1.021-0.256,1.485c0.041,0.603,0.114,0.844,0.627,0.858
		c0.299,0.006,0.776-0.118,1.447-0.451c1.513-0.75,3.252-1.461,5.254-2.35l0.341-0.157l0.075,0.374
		c0.311,1.644,1.722,2.527,3.293,2.534l0.481-0.024c2.975-0.352,4.781-1.98,4.787-1.953l0.333-0.771
		c-0.846,0.463-2.175,1.192-2.712,1.488c-0.471,0.254-0.918,0.375-1.332,0.375c-1.598-0.029-2.444-1.636-2.448-2.874v-0.291
		l0.291-0.005c2.024-0.035,6.553-2.529,6.553-6.376c-0.738-0.142-1.426-0.203-2.059-0.203c-1.438,0-2.617,0.322-3.577,0.843
		l1.128,0.84c0.888-0.368,1.644-0.45,2.139-0.45c0.39,0,0.619,0.052,0.639,0.06l0.258,0.056l-0.027,0.268
		c-0.03,0.024-0.199,2.132-1.326,2.966c-2.125,1.451-3.541,1.465-3.591,1.465h-0.265l-0.031-0.263l-0.01-0.201
		c0.008-0.59,0.089-2.603,1.623-3.597l-1.083-0.809c-2.219,1.473-3.125,4.113-3.121,6.002v0.184l-0.17,0.082
		c-1.1,0.513-2.785,1.498-3.874,1.519c-0.469,0-0.929-0.337-0.929-0.909c0-0.189,0.035-0.391,0.103-0.621
		c0.413-1.461,1.612-4.262,1.605-5.898c-0.043-0.868-0.206-1.214-0.98-1.245c-0.229,0-0.508,0.042-0.848,0.142
		c-2.084,0.603-5.217,1.419-5.217,1.419l-0.501,0.131l1.667-6.011h-1.925c-1.38,3.751-2.299,8.397-3.48,9.8
		c-1.284,1.431-4.341,3.811-6.253,3.853c-0.353,0-0.688-0.092-0.947-0.322c-0.741-0.685-1.065-2.184-1.078-3.75
		c0.016-1.675,0.402-3.428,1.563-4.179c0.543-0.343,1.081-0.494,1.573-0.494c1.163,0.004,2.016,0.849,2.204,1.857l1.384-1.138
		c-0.757-0.761-1.729-1.368-2.93-1.363c-0.875,0-1.896,0.319-3.085,1.191c-1.149,0.839-2.063,1.218-2.129,1.237
		c-1.154,0.241-2.35,0.235-2.356,0.241h-0.12l-0.089-0.088c-1.199-1.202-3.136-2.977-4.77-2.952c-0.395,0-0.77,0.09-1.137,0.308
		c-1.298,0.757-2.188,1.542-2.182,2.632c-0.003,0.721,0.39,1.683,1.447,2.953c0.839,1.021,1.792,2.409,1.811,3.579
		c-0.005,0.931-0.755,1.599-2.249,1.599l-0.33-0.004c-1.623-0.113-2.772-1.831-3.178-3.47c-1.863,0.759-3.479,2.019-4.491,2.059
		c-0.201,0.004-0.438-0.07-0.58-0.262l-0.118-0.387c0.02-0.68,0.59-1.864,1.021-3.527c0.529-1.944,1.273-3.967,1.273-3.971
		l0.072-0.198h0.208h1.861l0.125-0.441h-2.174l1.129-3.72H140l-1.191,3.657h-0.213l-1.879-0.003l-0.141,0.37h2.034l-0.1,0.374
		c-0.004,0.009-0.82,3.143-1.887,4.981c-1.147,1.855-4.442,2.951-5.298,2.989l-0.219-0.04c-0.289-0.163-0.283-0.416-0.292-0.62
		c0.007-0.805,0.488-2.369,0.949-3.903c0.443-1.453,0.973-3.116,1.211-3.855h-2.125c-0.262,0.843-1.266,3.984-2.19,5.578
		c-1.158,1.879-3.982,2.941-4.617,2.981l-0.119-0.018c-0.279-0.103-0.296-0.359-0.296-0.487c0.012-0.66,0.517-2.103,1.065-4.05
		c0.489-1.761,0.938-3.313,1.141-4.005h-1.819c-0.619,2.296-1.568,3.905-2.354,5.353c-0.95,1.652-4.16,3.007-6.418,3.782
		c-0.401,0.13-0.776,0.196-1.128,0.196c-1.771-0.01-2.689-1.557-2.689-2.866v-0.293l0.287-0.004c2.042-0.036,6.573-2.52,6.566-6.376
		c-0.742-0.137-1.428-0.199-2.063-0.199c-1.423,0-2.587,0.31-3.541,0.811l0.617,0.527l0.443,0.379
		c0.895-0.363,1.647-0.443,2.141-0.443c0.383,0,0.609,0.052,0.627,0.056l0.256,0.057l-0.029,0.267
		c-0.022,0.024-0.179,2.139-1.321,2.961c-2.138,1.448-3.545,1.466-3.595,1.466h-0.278l-0.023-0.273l-0.003-0.186
		c0.007-0.583,0.086-2.625,1.646-3.617l-1.023-0.877c-2.25,1.478-3.173,4.167-3.169,6.047v0.19l-0.174,0.08
		c-1.281,0.591-3.421,1.532-4.3,1.916l0.078,0.078c0.693-0.272,3.17-1.244,4.072-1.555l0.329-0.115l0.062,0.344
		c0.284,1.545,1.611,2.608,2.973,2.604c0.248,0,0.497-0.032,0.746-0.104c1.766-0.5,6.318-2.156,8.144-3.097l0.65-0.34l-0.233,0.698
		c-0.278,0.828-0.642,1.763-0.635,2.247c0.052,0.312,0,0.292,0.304,0.337c0.174,0,0.454-0.052,0.838-0.196
		c2.377-0.891,6.013-2.372,6.019-2.376l0.59-0.242l-0.195,0.608c-0.197,0.595-0.324,1.126-0.324,1.48
		c0.053,0.457,0.057,0.528,0.557,0.569c0.308,0.004,0.793-0.102,1.463-0.357c2.749-1.023,6.153-2.586,6.157-2.588l0.607-0.284
		l-0.195,0.643c-0.25,0.776-0.471,1.501-0.467,1.951c0.051,0.444,0.047,0.528,0.608,0.573c0.449,0.003,1.223-0.182,2.366-0.649
		c1.629-0.669,3.484-1.555,3.488-1.56l0.23-0.111L142.863,135.299z M112.11,132.612c0.478-0.076,1.514-0.335,2.966-1.32
		c0.604-0.363,0.913-1.659,1.02-2.244l-0.22-0.008c-0.457,0-1.191,0.075-2.074,0.464l-0.075,0.033
		C112.38,130.146,112.137,131.879,112.11,132.612z M186.012,128.908c-1.417,0.585-1.666,2.366-1.693,3.112
		c0.479-0.077,1.514-0.336,2.964-1.317c0.593-0.375,0.911-1.669,1.02-2.256l-0.229-0.008c-0.415,0-1.052,0.062-1.821,0.365
		L186.012,128.908z"/>
</g>
</svg>
