<?xml version="1.0" encoding="utf-8"?>
<!-- Generator: Adobe Illustrator 16.0.0, SVG Export Plug-In . SVG Version: 6.00 Build 0)  -->
<svg version="1.2" baseProfile="tiny" id="Layer_1" xmlns="http://www.w3.org/2000/svg" xmlns:xlink="http://www.w3.org/1999/xlink"
	 x="0px" y="0px" width="283.465px" height="283.465px" viewBox="0 0 283.465 283.465" overflow="scroll" xml:space="preserve">
<g>
	<path fill="#FFFFFF" d="M15.396,124.242c0-1.425-0.271-3.271-0.9-4.047c4.125,0,13.034,0.027,16.854,0.027
		c8.788,0,22.044,4.877,22.044,21.318c0,12.204-9.357,21.295-22.044,21.295c-2.783,0-13.407-0.032-17.176-0.032
		c0.772-1.428,1.223-3.361,1.223-4.89V124.242L15.396,124.242z M21.716,158.661c4.056,0.525,7.799,0.688,11.188,0.203
		c3.277-0.47,14.291-2.84,14.223-17.463c-0.064-13.858-8.622-17.025-15.217-17.413c-3.439-0.204-6.763-0.074-10.192,0.521
		L21.716,158.661L21.716,158.661z"/>
	<path fill="#FFFFFF" d="M57.013,133.288l6.313-0.985c0,1.293,0,5.083,0,5.56c1.62-4.001,6.658-7.218,13.819-4.431l-1.679,4.396
		c-6.555-3.11-12.142-0.382-12.142,6.897v15.016c0,0.716,0.155,2.158,0.583,3.084H57.35c0.663-0.815,0.969-2.368,0.969-3.084
		v-21.662C58.32,136.507,58,134.074,57.013,133.288L57.013,133.288z"/>
	<path fill="#FFFFFF" d="M256.625,136.303c0,0.408,0,17.877,0,19.183c0,6.021,4.15,7.631,7.229,7.631
		c1.301,0.064,3.141-0.241,4.428-0.524l0.793-3.718c-1.502,0.572-3.244,0.708-4.289,0.708c-1.928,0-3.322-1.278-3.322-3.28
		c0-1.796-0.045-19.404,0-19.968h-0.021c0.258,0,4.256-0.014,4.66,0c1.311,0.047,2.32,0.127,3.184,0.476l0.006-3.5
		c0,0-7.68-0.01-7.83-0.01l0.031-8.979l-5.818,1.608c0.805,0.75,1.063,2.946,1.063,4.395c0,0-0.004,2.684-0.004,3.006
		c-0.262,0-3.215,0.016-3.703,0.016v2.958C253.543,136.302,256.625,136.303,256.625,136.303L256.625,136.303z"/>
	<path fill="#FFFFFF" d="M231.475,156.588c2.502,1.785,6.428,3.371,9.307,3.371c3.994,0,6.854-1.942,6.854-5.6
		c0-6.751-15.393-5.633-15.393-14.198c0-5.792,5.18-7.969,10.113-7.969c1.586,0,5.205,0.344,7.51,1.235l-0.02,3.955
		c-2.045-1.748-5.166-2.172-7.223-2.172c-3.268,0-5.719,1.619-5.719,4.798c0,4.666,15.379,4.396,15.379,13.97
		c0,6.19-5.367,9.079-11.27,9.079c-2.879,0-5.877-0.511-8.375-1.226L231.475,156.588L231.475,156.588z"/>
	<path fill="#FFFFFF" d="M138.577,136.362c0-0.351,0.015-3.488,0.015-3.888l-6.394,0.988c0.771,0.807,1.361,3.324,1.361,5.125
		v20.945c0,0.715-0.305,2.447-0.969,3.266h6.97c-0.663-0.817-0.969-2.552-0.969-3.266v-15.761c0-5.766,3.566-7.784,7.116-7.784
		c3.215,0,6.117,1.392,6.117,7.784v15.761c0,0.715-0.307,2.447-0.967,3.266h6.76c-0.666-0.817-0.971-2.552-0.971-3.266v-15.761
		c0-6.393,3.951-7.784,7.168-7.784c3.213,0,6.574,2.018,6.574,7.784v15.761c0,0.715-0.307,2.447-0.969,3.266h6.506
		c-0.664-0.817-0.969-2.552-0.969-3.266v-18.752c0-3.196-3.26-8.316-10.877-8.316c-4.428,0-6.986,1.971-8.93,3.666
		c-1.65-1.928-4.34-3.736-8.662-3.736C142.277,132.395,139.792,134.861,138.577,136.362L138.577,136.362z"/>
	<path fill="#FFFFFF" d="M123.504,146.188c-0.912,0.858-2.822,1.525-4.795,1.784c-5.181,0.679-9.668,1.539-9.668,6.587
		c0,2.992,3.263,5.35,5.848,5.35c6.848,0,8.617-4.938,8.617-8.831v-4.89H123.504L123.504,146.188z M107.33,133.838
		c2.613-1.049,6.831-1.527,9.475-1.527c6.753,0,11.239,3.374,11.239,11.208v12.993c0,2.406,0.037,4.685,0.896,6.286h-5.428
		l-0.195-3.419c-2.057,2.653-4.512,3.842-8.681,3.842c-8.225,0-10.021-5.619-10.021-8.321c0-9.638,9.173-9.752,13.156-10.319
		c2.203-0.312,5.041-0.936,5.466-3.001c0.704-3.418-1.741-5.98-6.733-5.98c-3.663,0-6.665,1.114-9.172,2.615L107.33,133.838
		L107.33,133.838z M224.012,146.188c-0.91,0.858-2.82,1.525-4.795,1.784c-5.182,0.679-9.668,1.539-9.668,6.587
		c0,2.992,3.262,5.35,5.848,5.35c6.848,0,8.617-4.938,8.617-8.831L224.012,146.188L224.012,146.188z M207.838,133.838
		c2.613-1.049,6.83-1.527,9.477-1.527c6.752,0,11.24,3.374,11.24,11.208v12.993c0,2.406-0.525,4.637,0.891,6.286h-5.428
		l-0.195-3.419c-2.057,2.653-4.512,3.842-8.68,3.842c-8.223,0-10.021-5.619-10.021-8.321c0-9.638,9.176-9.752,13.156-10.319
		c2.205-0.312,5.043-0.936,5.467-3.001c0.703-3.418-1.738-5.98-6.732-5.98c-3.662,0-6.666,1.114-9.172,2.615v-4.376H207.838z"/>
	<path fill="#FFFFFF" d="M202.059,137.822c-2.037-1.188-5.25-2.133-7.492-2.133c-7.873,0-11.479,4.842-11.479,11.813
		c0,6.908,3.525,12.197,11.225,12.197c2.639,0,6.232-1.185,9.02-2.896l-1.135,5.081c-2.836,0.845-5.229,1.245-8.395,1.245
		c-10.818,0-15.891-7.674-15.891-15.657c0-8.825,6.803-15.031,16.008-15.031c4.023,0,6.963,0.987,8.148,1.324L202.059,137.822
		L202.059,137.822z"/>
	<path fill="#FFFFFF" d="M80.942,147.873c0.003-0.729,0.1-1.425,0.183-2.097h20.936c0-7.199-3.598-13.372-12.125-13.372
		c-8.852,0-14.104,6.921-14.104,15.749c0,7.984,5.852,15.116,15.868,15.116c3.168,0,5.817-0.781,8.675-1.781l1.007-5.104
		c-2.445,2.013-6.398,3.204-9.965,3.204C85.002,159.589,80.912,154.946,80.942,147.873L80.942,147.873z M81.787,142.583
		c0.68-3.503,3.918-7.067,7.796-7.067c5.926,0,7.641,4.623,7.641,7.068C97.222,142.583,81.787,142.593,81.787,142.583
		L81.787,142.583z"/>
</g>
</svg>
