<?xml version="1.0" encoding="utf-8"?>
<!-- Generator: Adobe Illustrator 16.0.0, SVG Export Plug-In . SVG Version: 6.00 Build 0)  -->
<svg version="1.2" baseProfile="tiny" id="Layer_1" xmlns="http://www.w3.org/2000/svg" xmlns:xlink="http://www.w3.org/1999/xlink"
	 x="0px" y="0px" width="283.465px" height="283.465px" viewBox="370.268 370.268 283.465 283.465" xml:space="preserve">
<g id="XMLID_1_">
	<path id="XMLID_5_" fill="#929497" d="M546.669,526.569c0,0.388-0.317,0.736-0.71,0.736h-13.568c-0.396,0-0.715-0.349-0.715-0.736
		v-9.804c0-0.387,0.318-0.697,0.715-0.697h13.568c0.393,0,0.71,0.311,0.71,0.697V526.569z M546.08,513.124h-13.814
		c-2,0-3.631,1.628-3.631,3.642v9.843c0,1.977,1.631,3.643,3.631,3.643h13.814c2.003,0,3.631-1.666,3.631-3.643v-9.843
		C549.711,514.752,548.083,513.124,546.08,513.124"/>
	<path id="XMLID_6_" fill="#221F1F" d="M387.612,498.399c0,0,0,12.477,0,12.671c-0.167,0-2.999,0-3.169,0c0-0.194,0-16.934,0-17.127
		c0.178,0,2.627,0,2.708,0l12.837,12.478c0,0,0-12.284,0-12.478c0.174,0,2.538,0,2.538,0s0.45,0,0.589,0c0,0.193,0,16.933,0,17.127
		c-0.17,0-2.391,0-2.476,0L387.612,498.399"/>
	<path id="XMLID_7_" fill="#221E1F" d="M419.389,498.399c0,0,0,12.477,0,12.671c-0.17,0-2.995,0-3.169,0c0-0.194,0-16.934,0-17.127
		c0.178,0,2.624,0,2.705,0l12.837,12.478c0,0,0-12.284,0-12.478c0.174,0,2.542,0,2.542,0s0.453,0,0.589,0c0,0.193,0,16.933,0,17.127
		c-0.174,0-2.391,0-2.476,0L419.389,498.399"/>
	<path id="XMLID_8_" fill="#221E1F" d="M485.252,498.399c0,0,0,12.477,0,12.671c-0.175,0-2.996,0-3.17,0c0-0.194,0-16.934,0-17.127
		c0.178,0,2.627,0,2.705,0l12.838,12.478c0,0,0-12.284,0-12.478c0.174,0,2.542,0,2.542,0s0.453,0,0.589,0c0,0.193,0,16.933,0,17.127
		c-0.174,0-2.391,0-2.472,0L485.252,498.399"/>
	<path id="XMLID_9_" fill="#221E1F" d="M410.663,493.943c0,0,0.45,0,0.585,0c0,0.193,0,16.933,0,17.127c-0.167,0-2.999,0-3.169,0
		c0-0.194,0-16.934,0-17.127C408.253,493.943,410.663,493.943,410.663,493.943"/>
	<path id="XMLID_10_" fill="#221E1F" d="M456.481,493.943c0,0,0.441,0,0.581,0c0,0.154,0,2.789,0,2.944c-0.186,0-7.642,0-7.642,0
		s0,13.988,0,14.183c-0.17,0-3.123,0-3.293,0c0-0.194,0-14.183,0-14.183s-7.456,0-7.642,0c0-0.155,0-2.79,0-2.944
		C438.675,493.943,456.481,493.943,456.481,493.943"/>
	<path id="XMLID_11_" fill="#221E1F" d="M476.784,493.943c0,0,0.458,0,0.593,0c0,0.154,0,2.789,0,2.944c-0.182,0-13.584,0-13.584,0
		v3.836c0,0,10.33,0,10.508,0c0,0.193,0,2.752,0,2.945c-0.178,0-10.508,0-10.508,0v4.456c0,0,13.403,0,13.584,0
		c0,0.155,0,2.751,0,2.945c-0.182,0-16.541,0-16.723,0c0-0.194,0-16.934,0-17.127C460.836,493.943,476.784,493.943,476.784,493.943"
		/>
	<path id="XMLID_14_" fill="#221E1F" d="M518.378,508.125h-9.734v-11.237h9.734c3.046,0,4.127,3.022,4.127,5.618
		C522.505,505.063,521.424,508.125,518.378,508.125z M523.578,496.461c-1.24-1.666-3.072-2.518-5.289-2.518c0,0-12.516,0-12.702,0
		c0,0.193,0,16.933,0,17.127c0.186,0,12.702,0,12.702,0c2.217,0,4.049-0.892,5.289-2.52c1.162-1.511,1.779-3.603,1.779-6.045
		C525.358,500.065,524.74,497.973,523.578,496.461"/>
	<path id="XMLID_17_" fill="#221E1F" d="M546.669,507.428c0,0.349-0.317,0.697-0.71,0.697h-13.568c-0.396,0-0.715-0.349-0.715-0.697
		v-9.843c0-0.387,0.318-0.697,0.715-0.697h13.568c0.393,0,0.71,0.311,0.71,0.697V507.428z M546.08,493.943h-13.814
		c-2,0-3.631,1.627-3.631,3.642v9.843c0,2.015,1.631,3.643,3.631,3.643h13.814c2.003,0,3.631-1.628,3.631-3.643v-9.843
		C549.711,495.57,548.083,493.943,546.08,493.943"/>
	<path id="XMLID_18_" fill="#221E1F" d="M603.621,523.005c3.287,1.317,10.227,2.364,15.643,2.364c5.93,0,8.383-2.016,8.383-4.573
		c0-2.325-2.279-3.643-8.824-6.044c-8.752-3.218-15.174-5.774-15.174-11.549c0-5.928,7.727-9.454,19.502-9.454
		c6.324,0,8.494,0.388,12.51,1.123l0.029,5.657c-3.943-0.735-7.439-2.014-12.867-2.014c-5.82,0-8.301,1.86-8.301,3.759
		c0,2.751,3.822,4.068,10.521,6.471c9.326,3.333,14.516,5.89,14.516,11.508c0,5.813-6.498,9.998-21.154,9.998
		c-6.018,0-10.168-0.388-14.783-1.162V523.005"/>
	<path id="XMLID_21_" fill="#221E1F" d="M572.43,498.747h-6.976v26.428h6.976c10.707,0,17.461-4.611,17.461-13.175
		S583.137,498.747,572.43,498.747z M591.151,527.616c-3.449,1.55-9.975,2.558-15.68,2.558H553.67v-36.347h21.801
		c5.705,0,12.23,1.007,15.688,2.557c8.395,3.798,11.131,9.881,11.131,15.616S599.576,523.818,591.151,527.616"/>
</g>
</svg>
