<?xml version="1.0" encoding="utf-8"?>
<!-- Generator: Adobe Illustrator 16.0.0, SVG Export Plug-In . SVG Version: 6.00 Build 0)  -->
<svg version="1.2" baseProfile="tiny" id="Layer_1" xmlns="http://www.w3.org/2000/svg" xmlns:xlink="http://www.w3.org/1999/xlink"
	 x="0px" y="0px" width="283.465px" height="283.465px" viewBox="0 0 283.465 283.465" overflow="scroll" xml:space="preserve">
<g>
	<path d="M135.488,166.521c-8.387,0-15.107-1.418-15.107-3.146c0-1.729,6.721-3.146,15.107-3.146c8.323,0,15.048,1.416,15.048,3.146
		C150.536,165.104,143.813,166.521,135.488,166.521L135.488,166.521z M151.458,121.631c0,0-9.62,11.593-9.127,12.332
		c0.685-0.739-3.454-12.457-3.454-12.457s-0.862-2.466-3.571-10.541H125.5v-0.063l-23.798,0.063H83.755l-1.792,7.582h13.509h3.206
		c8.69,0,13.996,3.515,12.514,9.744c-1.602,6.783-9.185,9.68-17.266,9.68h-3.021l3.885-16.587H81.286l-5.734,24.229H94.73
		c14.428,0,28.116-7.581,30.585-17.322c0.432-1.789,0.371-6.291-0.739-8.942c0-0.063-0.063-0.186-0.125-0.368
		c-0.061-0.063-0.124-0.495,0.125-0.559c0.122-0.062,0.368,0.186,0.368,0.249c0,0,0.125,0.31,0.246,0.557l12.208,34.465
		l31.083-35.085l13.133-0.061h3.205c8.697,0,14.062,3.515,12.578,9.744c-1.604,6.783-9.246,9.68-17.324,9.68h-3.086l3.947-16.587
		H167.43l-5.734,24.229h19.181c14.427,0,28.237-7.581,30.521-17.322c2.344-9.744-7.771-17.326-22.321-17.326h-12.7h-15.91
		C152.881,119.902,151.458,121.631,151.458,121.631L151.458,121.631z M71.732,163.191c0,5.177,29.598,9.371,66.097,9.371
		c36.565,0,66.169-4.194,66.169-9.371c0-5.182-29.604-9.373-66.169-9.373C101.33,153.818,71.732,158.011,71.732,163.191
		L71.732,163.191z"/>
</g>
</svg>
