<?xml version="1.0" encoding="utf-8"?>
<!-- Generator: Adobe Illustrator 16.0.0, SVG Export Plug-In . SVG Version: 6.00 Build 0)  -->
<svg version="1.2" baseProfile="tiny" id="Layer_1" xmlns="http://www.w3.org/2000/svg" xmlns:xlink="http://www.w3.org/1999/xlink"
	 x="0px" y="0px" width="283.465px" height="283.465px" viewBox="370.268 370.268 283.465 283.465" xml:space="preserve">
<g id="layer1" transform="translate(-473.24219,-350.23327)">
	<path id="path68" d="M949.648,820.862c-2.031-2.879-5.38-4.757-9.169-4.757c-6.201,0-11.223,5.024-11.223,11.223
		c0,6.195,5.021,11.221,11.223,11.221c4.499,0,8.38-2.652,10.171-6.475h-9.906v-5.104h15.821c0.005,0.12,0.009,0.238,0.009,0.357
		c0,1.648-0.248,3.245-0.709,4.746c-2.024,6.573-8.146,11.356-15.386,11.356c-8.892,0-16.101-7.213-16.101-16.103
		c0-8.894,7.209-16.101,16.101-16.101c6.59,0,12.252,3.963,14.744,9.635H949.648L949.648,820.862z"/>
	<path id="path70" d="M973.654,811.547L973.654,811.547l-20.343,30.635h6.297l4.345-6.543h9.7v6.556h5.247v-30.647H973.654
		L973.654,811.547z M967.437,830.391l6.217-9.358v9.358H967.437z"/>
	<path id="path72" d="M1019.987,811.547L1019.987,811.547l-14.028,21.118v-21.118h-5.248v0l-20.343,30.634h6.304l14.039-21.15
		v21.163h5.248v-0.037l14.028-21.125v21.163h5.245v-30.647H1019.987L1019.987,811.547L1019.987,811.547z"/>
	<path id="path74" d="M1045.414,816.794v-5.248h-15.938v30.655l5.246-0.02h10.691v-5.249h-10.691v-7.143h10.691v-5.245h-10.691
		v-7.75H1045.414L1045.414,816.794z"/>
	<path id="path86" d="M994.184,867.415c1.682-3.786,4.208-9.476,4.208-9.476h-5.146l-2.71,6.109l-4.035-3.728
		c1.848-1.483,3.469-3.361,3.469-6.493c0-1.681-0.664-3.269-1.861-4.472c-1.371-1.367-3.299-2.15-5.297-2.15
		c-3.462,0-7.048,2.477-7.048,6.623c0,2.888,1.59,4.753,3.169,6.135c-2.925,2.072-5.471,4.277-5.471,8.824
		c0,2.582,0.935,4.93,2.628,6.624c1.708,1.71,4.094,2.651,6.721,2.651c4.974,0,7.442-2.407,9.332-6.13l6.103,5.64l3.195-3.453
		L994.184,867.415L994.184,867.415z M980.961,852.628c0.443-0.444,1.155-0.718,1.85-0.718c0.74,0,1.492,0.296,1.969,0.771
		c0.33,0.329,0.49,0.701,0.49,1.145c0,1.321-0.633,2.041-2.364,3.32c-1.513-1.212-2.438-2.056-2.438-3.32
		C980.467,853.356,980.628,852.963,980.961,852.628 M988.424,868.8c-1.624,3.617-2.777,4.555-5.613,4.555
		c-1.394,0-2.564-0.442-3.396-1.269c-0.818-0.82-1.249-1.961-1.249-3.3c0-2.473,1.271-3.453,4.4-5.62
		c0.016-0.011,0.034-0.025,0.045-0.034l5.906,5.455L988.424,868.8L988.424,868.8z"/>
	<path id="path76" d="M972.875,881.833L972.875,881.833l-20.341,30.635h6.297l4.345-6.54h9.698v6.556h5.25v-30.65H972.875
		L972.875,881.833z M966.658,900.682l6.216-9.356v9.356H966.658z"/>
	<path id="path78" d="M929.952,912.483L929.952,912.483l14.021-21.125v21.125h5.248v-0.001l0,0l20.344-30.635h-6.3l-14.044,21.146
		v-21.16h-5.248v0.04l-14.021,21.121v-21.161h-5.25v30.65H929.952L929.952,912.483z"/>
	<path id="path80" d="M1042.396,881.833v12.34h-9.473v-12.34h-5.245v30.646h5.245v-13.055h9.473v13.055h5.249v-30.646H1042.396
		L1042.396,881.833z"/>
	<path id="path82" d="M997.301,881.833h-17.125v5.247h5.941v25.398h5.248V887.08h5.937V881.833z"/>
	<path id="path84" d="M1020.262,904.219c-2.016,2.239-4.928,3.645-8.179,3.645c-6.081,0-11.008-4.928-11.008-11.003
		c0-6.079,4.927-11.008,11.008-11.008c3.197,0,6.078,1.438,8.087,3.647h6.146c-2.687-5.11-8.053-8.722-14.233-8.722
		c-8.881,0-16.079,7.201-16.079,16.082c0,8.878,7.198,16.081,16.079,16.081c6.225,0,11.621-3.55,14.293-8.723H1020.262
		L1020.262,904.219z"/>
	<path id="path2915" fill="none" stroke="#000000" stroke-width="1.5" d="M914.376,811.339v102.746c0,0,0,7.601,8.547,7.601
		c8.34,0,125.563,0,125.563,0s7.622,0,7.622-7.601c0-8.206,0-102.746,0-102.746s0-8.558-7.622-8.558c-7.618,0-125.563,0-125.563,0
		S914.376,802.781,914.376,811.339L914.376,811.339z"/>
</g>
</svg>
