<?xml version="1.0" encoding="utf-8"?>
<!-- Generator: Adobe Illustrator 16.0.0, SVG Export Plug-In . SVG Version: 6.00 Build 0)  -->
<!DOCTYPE svg PUBLIC "-//W3C//DTD SVG 1.1//EN" "http://www.w3.org/Graphics/SVG/1.1/DTD/svg11.dtd">
<svg version="1.1" id="Layer_1" xmlns="http://www.w3.org/2000/svg" xmlns:xlink="http://www.w3.org/1999/xlink" x="0px" y="0px"
	 width="1024px" height="1024px" viewBox="0 0 1024 1024" enable-background="new 0 0 1024 1024" xml:space="preserve">
<path d="M213.344,509.922l14.159-31.598l6.216,31.598H213.344 M413.724,427.302l-38.419,89.354l-17.008-89.354h-33.065
	L278.18,558.96l-22.015-131.658h-41.268l-62.505,141.932l9.324-59.312H99.643l-4.921,30.563h26.073l-3.022,16.317
	c-14.849,6.129-40.059,3.798-50.85-15.54c-6.82-12.26-13.209-39.541,15.54-64.664c23.482-20.461,64.059-24.174,87.455-13.468
	c0,0,2.936-17.181,5.18-33.065c-44.979-15.541-79.944-2.591-103.341,11.913c-32.029,19.598-47.396,49.729-43.166,90.65
	c4.748,47.397,66.131,77.354,118.19,47.138c0.604-0.259,0.863-0.518,1.381-0.604l-5.008,11.05h34.966l22.015-48.778h38.678
	l8.46,48.778h56.98l29.008-91.081l23.828,91.081h22.273l38.246-100.837l15.108,101.441h33.411l-12.173-163.515H413.724z"/>
<polyline points="466.128,590.903 559.454,590.903 565.065,556.024 506.704,556.024 511.28,526.93 562.131,526.93 567.655,491.965 
	516.374,491.965 520.776,463.043 579.225,463.043 584.75,428.078 492.114,428.078 466.128,590.903 "/>
<polyline points="928.271,479.274 907.377,426.179 869.046,426.179 908.586,512.081 896.327,589.004 929.91,589.004 
	940.098,520.973 1000.445,426.179 961.25,426.179 928.271,479.274 "/>
<path d="M849.361,524.513c-8.979,26.936-30.734,42.648-48.433,34.62c-17.612-7.856-24.778-36.261-15.713-63.369
	c9.065-27.195,30.734-42.563,48.347-34.706C851.261,469,858.427,497.404,849.361,524.513 M836.325,428.769
	c-37.123-8.547-75.715,20.979-86.161,65.959c-10.273,45.066,11.31,88.492,48.347,97.125c37.124,8.461,75.628-21.065,86.161-66.045
	C894.945,480.741,873.275,437.316,836.325,428.769z"/>
<path d="M684.379,493.864c-18.39,0-23.138,0-23.138,0l5.094-30.217c0,0,0.69,0,21.756,0
	C711.746,463.647,706.911,493.864,684.379,493.864 M680.32,559.65c-18.475,0-29.525,0-29.525,0l5.18-32.461c0,0,6.993,0,27.972,0
	C710.624,527.189,709.847,559.65,680.32,559.65z M699.918,429.2c-18.043-0.259-62.678,0-62.678,0h0.346l-25.9,161.703
	c0,0,53.613,0,75.369,0c31.08,0,76.405-45.671,35.052-82.967C764.409,463.993,722.451,429.719,699.918,429.2z"/>
</svg>
