<?xml version="1.0" encoding="utf-8"?>
<!DOCTYPE svg PUBLIC "-//W3C//DTD SVG 1.1//EN" "http://www.w3.org/Graphics/SVG/1.1/DTD/svg11.dtd">
<svg version="1.1" id="Layer_1" xmlns="http://www.w3.org/2000/svg" xmlns:xlink="http://www.w3.org/1999/xlink" x="0px" y="0px"
	 width="1024px" height="1024px" viewBox="0 0 1024 1024" enable-background="new 0 0 1024 1024" xml:space="preserve">
<path fill="#1F00CC" d="M359.688,454.644c13.001,0,20.903,5.608,28.551,14.785c2.804-2.549,5.607-4.843,8.922-6.883
	c7.902-5.098,16.824-7.647,25.746-7.647h119.812l-7.902,12.491l150.4-0.255l13.766,23.707l12.235-23.452h99.928l24.727,19.374
	V467.39H1024v89.985H850.401l-25.236-19.628v19.628H684.451l0,0l-9.432-15.55c-7.647,8.667-21.413,15.55-44.101,15.55H506.01
	c-4.079,4.079-8.412,4.589-13.511,4.334l-1.274,8.157h-48.18l1.02-6.883c-0.51,0.255-1.02,0.765-1.529,1.02
	c-11.217,6.883-23.962,9.177-35.943,6.373c-9.177-2.039-17.334-7.138-23.452-13.766c-8.157,7.902-19.119,13.256-29.57,13.256
	l-236.817,0.255l-3.824-21.668l-9.687,21.668H63.729c-12.491,2.039-24.981,0.255-36.198-5.354
	C12.236,556.61,2.04,542.335,0.51,526.275c-2.804-26.767,7.647-48.18,29.57-61.689c21.158-13.001,43.591-15.806,66.788-7.647
	l4.334,1.529l1.529-3.569h44.355l3.314,19.884l6.628-20.139H359.688"/>
<path fill="#FFFFFF" d="M628.114,527.805H612.31v-32.119h22.433c11.981,0,17.845,4.843,17.845,15.295
	C652.587,523.727,646.214,527.805,628.114,527.805 M738.493,482.175H720.14l-0.51,1.02l-20.648,37.982l-22.178-37.982l-0.51-0.765
	h-19.629l1.529,2.549l3.824,6.118c-6.118-5.863-15.295-8.922-27.276-8.922H595.23v49.454l-29.315-48.435l-0.51-0.765h-15.04
	l-0.51,0.765l-33.395,56.082l-1.529,2.549h13.001l0,0h29.061v-13.256h-17.08l17.08-30.845l24.217,43.081l0.51,0.765h19.374l0,0
	h29.825c25.746,0,39.002-10.196,39.002-30.08c0-3.569-0.51-6.628-1.274-9.432l23.452,38.747l0.51,0.765h11.472l0.51-0.765
	l32.374-56.082L738.493,482.175"/>
<polyline fill="#FFFFFF" points="852.441,482.175 850.656,482.175 850.656,517.608 806.046,482.685 805.536,482.175 
	793.811,482.175 793.811,531.629 764.495,483.194 763.985,482.175 748.945,482.175 748.436,483.194 715.041,539.021 
	713.512,541.825 731.355,541.825 731.355,541.825 755.828,541.825 755.828,528.569 738.748,528.569 755.828,497.725 
	780.045,540.806 780.555,541.825 799.928,541.825 799.928,541.825 809.615,541.825 809.615,505.882 854.226,541.315 
	854.735,541.825 866.462,541.825 866.462,482.175 852.441,482.175 "/>
<path fill="#FFFFFF" d="M923.053,482.175h-34.924c-12.235,0-16.314,3.823-16.314,15.04v29.57c0,11.217,4.079,15.04,16.314,15.04
	h34.924c12.236,0,16.314-3.823,16.314-15.04v-8.412h-1.784h-13.766h-1.784v9.177h-33.395v-31.354h33.395v8.157h1.784h15.55v-7.138
	C939.367,485.743,935.289,482.175,923.053,482.175"/>
<polyline fill="#FFFFFF" points="1007.431,527.805 962.055,527.805 962.055,517.354 989.331,517.354 989.331,504.353 
	962.055,504.353 962.055,495.686 1008.45,495.686 1008.45,482.175 944.976,482.175 944.976,541.825 1009.215,541.825 
	1009.215,527.805 1007.431,527.805 "/>
<path fill="#FFFFFF" d="M111.653,512.51l7.393-16.569l3.314,16.569H111.653 M213.365,469.429l-19.884,46.65l-8.412-46.65h-17.334
	l-22.433,68.828l-11.471-68.828h-21.413l-32.629,73.926l4.843-30.845H52.258l-2.549,15.805h13.51l-1.529,8.412
	c-7.647,3.314-20.903,2.295-26.511-7.902c-3.569-6.373-6.883-20.648,8.157-33.648c12.236-10.707,33.394-12.491,45.63-6.883
	c0,0,1.53-8.922,2.804-17.335c-23.452-8.157-41.806-1.274-54.042,6.118c-16.569,10.197-24.472,26.002-22.433,47.415
	c2.549,24.727,34.414,40.276,61.69,24.727c0.255-0.255,0.51-0.255,0.51-0.255l-2.549,5.863h18.354l11.471-25.492h20.139
	l4.333,25.492h29.57l15.04-47.415l9.687,47.415h11.726l22.688-52.513l2.294,52.513h17.334l-3.314-85.397H213.365"/>
<polyline fill="#FFFFFF" points="239.367,554.571 288.056,554.571 290.86,536.217 260.27,536.217 262.819,521.177 289.33,521.177 
	292.134,502.823 265.368,502.823 267.663,487.783 298.252,487.783 301.057,469.429 252.877,469.429 239.367,554.571 "/>
<polyline fill="#FFFFFF" points="476.949,497.215 466.242,469.429 446.104,469.429 466.752,514.294 460.379,554.571 
	477.969,554.571 483.322,518.883 514.677,469.429 494.283,469.429 476.949,497.215 "/>
<path fill="#FFFFFF" d="M436.162,520.157c-4.588,14.021-16.06,22.178-25.236,18.1c-9.177-4.079-12.746-18.864-8.157-33.14
	c4.588-14.021,16.06-22.178,25.236-18.099C437.437,491.352,441.006,506.137,436.162,520.157 M429.534,470.193
	c-19.373-4.333-39.512,10.962-44.865,34.414s5.863,46.14,25.237,50.729c19.373,4.589,39.512-10.962,44.865-34.414
	C460.124,497.47,448.653,474.782,429.534,470.193"/>
<path fill="#FFFFFF" d="M352.04,503.588c-9.688,0-12.236,0-12.236,0l2.804-15.805c0,0,0.256,0,11.217,0
	C366.315,487.783,364.021,503.588,352.04,503.588 M350,538.002c-9.687,0-15.295,0-15.295,0l2.805-16.825c0,0,3.568,0,14.53,0
	C365.806,520.922,365.551,538.002,350,538.002 M360.197,469.938c-9.432-0.255-32.63,0-32.63,0h0.255l-13.51,84.378
	c0,0,27.785,0,39.257,0c16.06,0,39.767-23.707,18.354-43.336C393.846,488.038,371.923,470.193,360.197,469.938"/>
<path fill="#FFFFFF" d="M492.754,546.414V543.1h2.804c1.274,0,2.295,0.255,2.295,1.529c0,2.04-2.04,1.785-3.314,1.785H492.754
	 M496.067,547.434c1.785,0,3.06-0.765,3.06-2.805c0-0.765-0.51-1.784-1.02-2.039c-0.766-0.51-1.53-0.51-2.295-0.51h-4.333v9.941
	h1.274v-4.333h2.039l2.805,4.333h1.529L496.067,547.434 M495.048,555.846c4.844,0,8.922-3.824,8.922-8.922
	c0-4.844-3.823-8.667-8.922-8.667c-4.843,0-8.922,3.823-8.922,8.667C486.126,552.021,489.949,555.846,495.048,555.846
	 M495.048,554.316c-4.078,0-7.393-3.06-7.393-7.393c0-4.079,3.314-7.393,7.393-7.393c4.079,0,7.393,3.313,7.393,7.393
	C502.186,551.257,499.127,554.316,495.048,554.316"/>
</svg>
