<?xml version="1.0" encoding="utf-8"?>
<!-- Generator: Adobe Illustrator 16.0.0, SVG Export Plug-In . SVG Version: 6.00 Build 0)  -->
<svg version="1.2" baseProfile="tiny" id="Layer_1" xmlns="http://www.w3.org/2000/svg" xmlns:xlink="http://www.w3.org/1999/xlink"
	 x="0px" y="0px" width="500px" height="500px" viewBox="0 0 500 500" xml:space="preserve">
<g>
	<g id="GAMECUBE">
		<path d="M79.565,250.83v9.961H38.501v25.391h29.932v-7.031H51.099v-10.645h29.15c0,0,0,11.572,0,19.385
			c-0.098,3.271-6.592,9.766-10.205,9.766c-6.689,0-24.951,0-33.447,0c-4.785,0-11.23-6.445-11.23-9.766c0-9.863,0-19.629,0-27.979
			c0-5.42,3.516-9.082,8.154-9.082C41.333,250.83,79.565,250.83,79.565,250.83z"/>
		<polygon points="111.401,285.84 111.401,296.875 77.515,296.875 105.054,250.244 115.942,250.244 137.036,285.84 137.036,250.244 
			149.048,250.244 167.847,282.227 186.694,250.244 198.608,250.244 198.608,296.875 186.694,296.875 186.548,273.145 
			172.876,296.875 162.769,296.875 149.048,273.145 149.048,296.875 128.735,296.875 110.181,264.99 97.681,285.84 		"/>
		<polygon points="202.905,250.244 202.905,296.875 250.757,296.875 250.757,285.84 215.942,285.84 215.942,277.832 
			236.108,277.832 236.108,267.627 215.942,267.627 215.942,260.352 250.757,260.352 250.757,250.244 		"/>
		<path d="M298.462,268.652h11.914v-10.107c0,0,1.27-8.252-7.373-8.252c0,0-27.783,0-37.646,0c-3.76,0-5.42,1.807-5.42,4.541
			c0,4.785,0,22.9,0,33.008c0,4.639,4.443,9.082,7.275,9.082c8.252,0,36.865,0,36.865,0s6.445,0.928,6.445-6.348
			c0-7.129,0-13.721,0-13.721h-11.914v9.082h-26.66V261.23h25.635v7.373L298.462,268.652z"/>
		<path d="M315.015,250.244h12.793v35.693h26.514v-35.693h12.793v38.525c0,0,0.781,8.252-10.986,8.252s-31.201,0-31.201,0
			s-10.107,0.928-10.107-8.252C315.015,282.324,315.015,250.244,315.015,250.244z"/>
		<g id="XMLID_1_">
			<g>
				<path d="M422.29,277.686v12.012c0,4.199-3.174,7.373-12.793,7.373c-8.594,0-37.646,0-37.646,0v-46.826c0,0,38.086,0,43.994,0
					c4.102,0,6.348,2.393,6.348,6.445c0,3.271,0,11.475,0,12.793c0,1.025-1.367,2.734-4.541,2.734c0,0.244,0,0,0,0.928
					C419.897,273.145,422.29,275.537,422.29,277.686z M410.376,285.059c0-1.123,0-3.955,0-5.42s-0.342-1.904-0.928-1.904
					c-1.123,0-24.707,0-24.707,0v8.252c0,0,17.822,0,23.828,0C409.937,285.986,410.376,285.498,410.376,285.059z M410.376,266.699
					c0-1.123,0-3.955,0-5.42s-0.342-1.807-0.928-1.807c-1.123,0-24.707,0-24.707,0v8.252c0,0,17.822,0,23.828,0
					C409.937,267.627,410.376,267.139,410.376,266.699z"/>
			</g>
		</g>
		<polygon points="426.782,297.07 474.634,297.07 474.634,285.986 438.843,285.986 438.843,277.832 459.009,277.832 
			459.009,267.627 438.843,267.627 438.843,260.352 473.608,260.352 473.608,250.146 426.782,250.146 		"/>
	</g>
	<g id="NINTENDO">
		<polygon points="35.327,202.539 35.327,237.354 41.821,237.354 41.821,211.719 55.493,237.354 62.769,237.354 62.769,202.539 
			55.493,202.539 55.493,223.486 44.507,202.539 		"/>
		<polygon points="145.435,202.539 145.435,237.354 151.782,237.354 151.782,211.719 165.601,237.354 172.876,237.354 
			172.876,202.539 165.503,202.539 165.503,223.486 154.468,202.539 		"/>
		<rect x="100.415" y="202.539" width="7.373" height="34.814"/>
		<polygon points="203.101,202.539 203.101,208.105 214.136,208.105 214.136,237.354 221.509,237.354 221.509,208.105 
			232.495,208.105 232.495,202.539 		"/>
		<path d="M266.479,215.332v0.928h20.166v5.566h-20.166c0,0,0,5.322,0,7.373c0,0.781,1.904,2.734,2.734,2.734
			c2.246,0,17.48,0,17.48,0v5.518c0,0-14.844,0-20.166,0c-3.76,0-6.445-3.271-6.445-6.445c0-0.781,0-16.553,0-21.973
			c0-3.955,2.393-6.348,6.348-6.348h20.166v5.566c0,0-12.256,0-16.553,0c-1.807,0-3.613,1.904-3.613,2.832"/>
		<polygon points="319.653,237.451 326.001,237.451 326.001,211.816 339.722,237.451 346.216,237.451 346.216,202.539 
			339.868,202.539 339.868,223.486 327.954,202.539 319.653,202.539 		"/>
		<g id="XMLID_5_">
			<g>
				<path d="M406.86,208.984v22.119c0,1.709-4.785,6.348-7.471,6.348c-5.566,0-20.068,0-20.068,0v-34.912c0,0,14.307,0,18.262,0
					C403.247,202.539,406.86,206.152,406.86,208.984z M400.269,229.199c0-2.393,0-13.281,0-18.262c0-0.684-2.148-2.832-3.613-2.832
					c-2.832,0-10.986,0-10.986,0v24.707c0,0,7.813,0,10.986,0C397.778,232.813,400.269,230.322,400.269,229.199z"/>
			</g>
		</g>
		<g id="XMLID_4_">
			<g>
				<path d="M466.382,210.791c0,2.49,0,13.281,0,18.262c0,5.225-3.955,9.18-9.961,9.18c0,0,0,0-0.098,0c-5.225,0-3.76,0-9.18,0
					h-0.098c-5.908,0-9.766-3.613-9.961-8.74c0-0.244,0-0.342,0-0.586c0-3.516,0-14.844,0-18.262c0-0.684,0-1.025,0-1.025
					c0-3.516,3.76-7.275,8.252-7.275c3.271,0,12.793,0,12.793,0C463.403,202.539,466.382,205.371,466.382,210.791z M459.009,228.271
					c0-0.928,0-14.941,0-16.553c0-1.367-2.393-3.76-3.613-3.76c-1.367,0-7.275,0-7.275,0c-1.904,0-3.76,1.807-3.76,3.516
					c0,1.123,0,14.941,0,16.65c0,2.588,1.025,3.613,2.832,3.613c1.611,0,6.104,0,8.252,0
					C457.202,231.885,459.009,229.98,459.009,228.271z"/>
			</g>
		</g>
	</g>
</g>
</svg>
