<?xml version="1.0" encoding="utf-8"?>
<!-- Generator: Adobe Illustrator 16.0.0, SVG Export Plug-In . SVG Version: 6.00 Build 0)  -->
<svg version="1.2" baseProfile="tiny" id="Layer_1" xmlns="http://www.w3.org/2000/svg" xmlns:xlink="http://www.w3.org/1999/xlink"
	 x="0px" y="0px" width="283.465px" height="283.465px" viewBox="0 0 283.465 283.465" xml:space="preserve">
<g>
	<polygon id="polygon29" fill="#000099" points="35.258,138.08 25.682,145.385 31.862,145.385 31.067,150.442 24.323,150.442 
		27.063,133.021 43.359,133.021 37.213,125.717 26.536,125.717 18.259,133.021 14.174,157.747 39.46,157.747 42.563,138.08 	"/>
	<polygon id="polygon31" fill="#FFFFFF" points="35.469,140.327 31.652,143.137 35.023,143.137 33.514,152.689 21.713,152.689 
		25.178,130.774 38.665,130.774 36.3,127.965 26.747,127.965 20.882,133.584 17.335,155.499 37.002,155.499 39.401,140.327 	"/>
	<g id="g33" transform="translate(-36.932,-446.664)">
		<polygon id="polygon35" fill="#000099" points="212.111,584.744 202.535,592.049 208.716,592.049 207.92,597.106 201.177,597.106 
			203.916,579.685 220.212,579.685 214.067,572.381 203.389,572.381 195.113,579.685 191.027,604.411 216.314,604.411 
			219.416,584.744 		"/>
		<polygon id="polygon37" fill="#FFFFFF" points="212.322,586.991 208.506,589.801 211.877,589.801 210.367,599.353 
			198.567,599.353 202.032,577.438 215.518,577.438 213.153,574.629 203.6,574.629 197.736,580.248 194.188,602.163 
			213.856,602.163 216.255,586.991 		"/>
	</g>
	<g id="g39" transform="translate(-36.932,-446.664)">
		<path id="path41" fill="#000099" d="M105.614,604.411l5.618-32.03H93.813l-9.026,7.305h15.172l-0.796,5.059h-7.867l-9.014,7.305
			l-1.955,12.363L105.614,604.411L105.614,604.411z M98.015,592.049l-0.796,5.058h-6.182l0.797-5.058H98.015z"/>
		<polygon id="polygon43" fill="#FFFFFF" points="101.62,586.991 92.068,586.991 85.09,593.173 83.487,602.163 95.849,602.163 
			96.294,599.353 87.866,599.353 89.375,589.801 101.176,589.801 99.221,602.163 103.155,602.163 107.51,574.629 94.585,574.629 
			91.33,577.438 103.131,577.438 		"/>
	</g>
	<g id="g45" transform="translate(-36.932,-446.664)">
		<path id="path47" fill="#000099" d="M271.945,604.411l5.62-32.03h-17.421l-9.025,7.305h15.173l-0.797,5.059h-7.867l-9.015,7.305
			l-1.954,12.363L271.945,604.411L271.945,604.411z M264.347,592.049l-0.796,5.058h-6.181l0.796-5.058H264.347L264.347,592.049z"/>
		<polygon id="polygon49" fill="#FFFFFF" points="267.953,586.991 258.4,586.991 251.422,593.173 249.819,602.163 262.181,602.163 
			262.626,599.353 254.198,599.353 255.707,589.801 267.508,589.801 265.553,602.163 269.487,602.163 273.841,574.629 
			260.917,574.629 257.662,577.438 269.463,577.438 		"/>
	</g>
	<g id="g51" transform="translate(-36.932,-446.664)">
		<polygon id="polygon53" fill="#000099" points="162.965,597.106 163.761,592.049 177.81,592.049 178.957,584.744 164.909,584.744 
			165.705,579.685 179.753,579.685 180.912,572.381 165.178,572.381 156.901,579.685 152.816,604.411 175.855,604.411 
			177.014,597.106 		"/>
		<polygon id="polygon55" fill="#FFFFFF" points="160.355,599.353 161.865,589.801 175.351,589.801 175.796,586.991 162.31,586.991 
			163.82,577.438 177.306,577.438 177.751,574.629 166.513,574.629 159.524,580.81 155.976,602.163 173.396,602.163 
			173.841,599.353 		"/>
	</g>
	<g id="g57" transform="translate(-36.932,-446.664)">
		<polygon id="polygon59" fill="#000099" points="230.397,597.106 231.194,592.049 245.242,592.049 246.389,584.744 
			232.341,584.744 233.136,579.685 247.185,579.685 248.344,572.381 232.61,572.381 224.333,579.685 220.247,604.411 
			243.286,604.411 244.446,597.106 		"/>
		<polygon id="polygon61" fill="#FFFFFF" points="227.786,599.353 229.296,589.801 242.784,589.801 243.228,586.991 
			229.742,586.991 231.251,577.438 244.738,577.438 245.183,574.629 233.945,574.629 226.955,580.81 223.409,602.163 
			240.828,602.163 241.273,599.353 		"/>
	</g>
	<g id="g63" transform="translate(-36.932,-446.664)">
		<path id="path65" fill="#000099" d="M294.13,592.049l-1.956,12.363h8.992l1.86-11.239l-3.839-4.215l5.174-4.776l1.861-11.801
			h-17.42l-8.839,7.305l-4.086,24.726h8.991l1.955-12.363L294.13,592.049L294.13,592.049z M296.073,579.685l-0.796,5.059h-7.305
			l0.796-5.059H296.073z"/>
		<path id="path67" fill="#FFFFFF" d="M282.586,580.81l-3.546,21.354h3.933l1.955-12.362h11.801l-1.955,12.362h3.934l1.51-8.429
			l-3.488-3.934l0.444-2.81l4.38-3.372l1.509-8.991h-13.486L282.586,580.81L282.586,580.81z M297.174,586.991h-11.802l1.511-9.553
			h11.801L297.174,586.991z"/>
	</g>
	<g id="g69" transform="translate(-36.932,-446.664)">
		<polygon id="polygon71" fill="#000099" points="128.618,579.685 124.719,604.411 134.272,604.411 138.17,579.685 143.228,579.685 
			139.329,604.411 148.882,604.411 153.94,572.381 122.471,572.381 113.633,580.248 109.546,604.411 119.1,604.411 122.997,579.685 
					"/>
		<polygon id="polygon73" fill="#FFFFFF" points="131.789,577.438 127.88,602.163 131.813,602.163 135.723,577.438 146.4,577.438 
			142.49,602.163 146.423,602.163 150.779,574.629 123.244,574.629 116.254,580.81 112.707,602.163 116.641,602.163 
			120.551,577.438 		"/>
	</g>
</g>
</svg>
