<?xml version="1.0" encoding="utf-8"?>
<!-- Generator: Adobe Illustrator 16.0.0, SVG Export Plug-In . SVG Version: 6.00 Build 0)  -->
<svg version="1.2" baseProfile="tiny" id="Layer_1" xmlns="http://www.w3.org/2000/svg" xmlns:xlink="http://www.w3.org/1999/xlink"
	 x="0px" y="0px" width="283.465px" height="283.465px" viewBox="0 0 283.465 283.465" xml:space="preserve">
<g>
	<path d="M14.164,137.983v-3.749h33.739c1.667,0,2.5,1.25,2.5,3.749H14.164z M14.164,149.23v-9.997h6.248v9.997H14.164z
		 M29.159,149.23v-9.997h6.249v9.997H29.159z M44.155,149.23v-9.997h6.248v9.997H44.155z"/>
	<path d="M52.902,137.983v-3.749h23.743v3.749H52.902z M52.902,145.481v-6.248h6.248c0,0.833,0.416,1.249,1.249,1.249h14.996v3.749
		H59.15c0,0.833,0.416,1.25,1.249,1.25h16.246v3.749H55.401C53.735,149.23,52.902,147.98,52.902,145.481z"/>
	<path d="M79.145,137.983c0-2.499,0.833-3.749,2.499-3.749h22.493v3.749H79.145z M79.145,145.481v-6.248h6.248v6.248h12.496
		c0.833,0,1.249-0.209,1.249-0.625c0-0.417-0.416-0.625-1.249-0.625h-7.498v-3.749h11.247c2.499,0,3.749,1.25,3.749,3.749v1.25
		c0,2.499-0.833,3.749-2.499,3.749H81.644C79.978,149.23,79.145,147.98,79.145,145.481z"/>
	<path d="M107.886,137.983c0-2.499,0.833-3.749,2.499-3.749h21.243c1.667,0,2.5,1.25,2.5,3.749H107.886z M107.886,149.23v-9.997
		h6.248v9.997H107.886z M127.88,149.23v-2.5h-12.496v-3.748h12.496v-3.749h6.248v9.997H127.88z"/>
	<path d="M145.768,137.983v-3.749h23.742c1.666,0,2.499,1.25,2.499,3.749H145.768z M145.768,149.23v-9.997h6.248v9.997H145.768z
		 M169.51,149.23h-16.245v-3.749h12.496v-6.248h6.248v6.248C172.009,147.98,171.176,149.23,169.51,149.23z"/>
	<path d="M174.509,137.983c0-2.499,0.833-3.749,2.499-3.749h21.243c1.667,0,2.5,1.25,2.5,3.749H174.509z M174.509,149.23v-9.997
		h6.248v9.997H174.509z M182.006,146.73v-3.748h11.247c0.833,0,1.249-0.417,1.249-1.25v-2.499h6.249v3.749
		c0,2.499-0.833,3.748-2.5,3.748l3.749,2.5h-6.248l-3.749-2.5H182.006z"/>
	<path d="M204.499,137.983v-3.749h6.248v3.749H204.499z M204.499,149.23v-9.997h6.248v9.997H204.499z"/>
	<path d="M215.746,137.983l-2.499-3.749h7.497l2.499,3.749H215.746z M223.243,149.23l-6.247-9.997h7.497l3.749,5.998l3.749-5.998
		h7.498l-6.249,9.997H223.243z M233.062,137.983l2.5-3.749h7.498l-2.499,3.749H233.062z"/>
	<path d="M245.559,137.983v-3.749h23.742v3.749H245.559z M245.559,145.481v-6.248h6.248c0,0.833,0.417,1.249,1.25,1.249h14.995
		v3.749h-16.245c0,0.833,0.417,1.25,1.25,1.25h16.244v3.749h-21.243C246.392,149.23,245.559,147.98,245.559,145.481z"/>
</g>
</svg>
