<?xml version="1.0" encoding="utf-8"?>
<!-- Generator: Adobe Illustrator 16.0.0, SVG Export Plug-In . SVG Version: 6.00 Build 0)  -->
<svg version="1.2" baseProfile="tiny" id="Layer_1" xmlns="http://www.w3.org/2000/svg" xmlns:xlink="http://www.w3.org/1999/xlink"
	 x="0px" y="0px" width="283.465px" height="283.465px" viewBox="0 0 283.465 283.465" xml:space="preserve">
<g>
	
		<rect id="rect4013" x="14.173" y="37.109" stroke="#000000" stroke-width="7.5324" stroke-linecap="round" stroke-opacity="0" width="255.118" height="150.495"/>
	<g id="text4033">
		<path id="path3078" fill="#FFFFFF" d="M53.666,161.939h2.492l0.424,1.395h1.544l-2.392-6.752h-1.62l-2.417,6.752h1.495
			L53.666,161.939z M54.887,158.102L54.887,158.102l0.847,2.666H54.04L54.887,158.102z"/>
		<path id="path3080" fill="#FFFFFF" d="M63.682,156.582h-1.445v4.461c0,0.424-0.1,0.723-0.324,0.947
			c-0.224,0.223-0.573,0.322-1.047,0.348c-0.349,0-0.623-0.1-0.847-0.324c-0.225-0.225-0.349-0.572-0.349-1.021v-4.385h-1.445v4.484
			c0,0.35,0.05,0.648,0.125,0.922c0.075,0.275,0.224,0.523,0.398,0.723c0.324,0.324,0.673,0.549,1.072,0.648
			c0.398,0.125,0.747,0.174,1.071,0.15c0.872,0,1.545-0.201,2.018-0.6c0.498-0.398,0.748-1.045,0.748-1.943L63.682,156.582z"/>
		<path id="path3082" fill="#FFFFFF" d="M64.305,163.334h2.915c0.748-0.023,1.321-0.223,1.719-0.598
			c0.398-0.373,0.698-0.846,0.847-1.369c0.149-0.549,0.249-1.072,0.224-1.57c0-0.449-0.05-0.922-0.199-1.395
			c-0.149-0.5-0.424-0.924-0.822-1.271c-0.399-0.35-0.972-0.523-1.719-0.549h-2.99L64.305,163.334z M65.675,157.754h1.346
			c0.199,0,0.423,0.025,0.672,0.125c0.25,0.1,0.449,0.273,0.623,0.598c0.174,0.299,0.249,0.797,0.274,1.445
			c0,0.572-0.1,1.096-0.349,1.545c-0.224,0.447-0.623,0.697-1.196,0.723h-1.371V157.754z"/>
		<path id="path3084" fill="#FFFFFF" d="M71.63,156.582h-1.396v6.752h1.42v-6.752H71.63z"/>
		<path id="path3086" fill="#FFFFFF" d="M71.879,159.945c0.025,1.047,0.249,1.82,0.648,2.344c0.398,0.523,0.872,0.846,1.371,0.996
			c0.498,0.148,0.921,0.225,1.246,0.225c0.324,0.023,0.723-0.051,1.246-0.225c0.498-0.15,0.971-0.498,1.37-0.996
			c0.398-0.523,0.623-1.297,0.648-2.344c-0.025-1.045-0.25-1.818-0.648-2.342c-0.399-0.523-0.872-0.846-1.37-0.996
			c-0.499-0.15-0.922-0.225-1.246-0.225c-0.324-0.025-0.723,0.051-1.246,0.225c-0.499,0.15-0.972,0.498-1.371,0.996
			C72.128,158.127,71.905,158.9,71.879,159.945z M73.3,159.945c0.025-0.922,0.249-1.543,0.623-1.893
			c0.398-0.324,0.797-0.498,1.196-0.473c0.399-0.025,0.822,0.148,1.196,0.473c0.399,0.324,0.598,0.971,0.623,1.893
			c-0.025,0.924-0.249,1.545-0.623,1.895c-0.398,0.324-0.797,0.498-1.196,0.473c-0.398,0.025-0.822-0.148-1.196-0.473
			C73.549,161.516,73.325,160.869,73.3,159.945z"/>
		<path id="path3088" fill="#FFFFFF" d="M83.665,161.939h2.491l0.424,1.395h1.545l-2.392-6.752h-1.619l-2.417,6.752h1.495
			L83.665,161.939z M84.911,158.102L84.911,158.102l0.847,2.666h-1.719L84.911,158.102z"/>
		<path id="path3090" fill="#FFFFFF" d="M92.411,161.291L92.411,161.291l-2.691-4.709h-1.495v6.752h1.321v-4.809h0.024l2.766,4.809
			h1.42v-6.752h-1.345V161.291z"/>
		<path id="path3092" fill="#FFFFFF" d="M94.329,163.334h2.915c0.748-0.023,1.321-0.223,1.719-0.598
			c0.399-0.373,0.698-0.846,0.847-1.369c0.15-0.549,0.249-1.072,0.225-1.57c0-0.449-0.05-0.922-0.2-1.395
			c-0.149-0.5-0.423-0.924-0.822-1.271c-0.399-0.35-0.972-0.523-1.72-0.549h-2.99L94.329,163.334z M95.699,157.754h1.346
			c0.199,0,0.424,0.025,0.673,0.125s0.448,0.273,0.623,0.598c0.174,0.299,0.249,0.797,0.274,1.445c0,0.572-0.1,1.096-0.349,1.545
			c-0.225,0.447-0.623,0.697-1.196,0.723h-1.371V157.754L95.699,157.754z"/>
		<path id="path3094" fill="#FFFFFF" d="M106.314,161.689L106.314,161.689l-1.47-5.133h-1.52l2.268,6.754h1.346l2.292-6.754h-1.47
			L106.314,161.689z"/>
		<path id="path3096" fill="#FFFFFF" d="M110.674,156.582h-1.42v6.752h1.42V156.582z"/>
		<path id="path3098" fill="#FFFFFF" d="M110.874,161.242c0,0.299,0.05,0.623,0.199,0.947c0.15,0.348,0.424,0.646,0.847,0.896
			c0.424,0.248,1.021,0.398,1.844,0.398c0.225,0,0.548-0.025,0.947-0.125c0.424-0.1,0.797-0.299,1.146-0.623
			c0.349-0.324,0.548-0.797,0.548-1.469c-0.025-0.6-0.199-1.021-0.548-1.271c-0.349-0.25-0.748-0.449-1.221-0.549l-1.645-0.398
			c-0.149-0.025-0.299-0.074-0.473-0.174c-0.149-0.1-0.25-0.273-0.25-0.523c0.025-0.299,0.15-0.523,0.399-0.623
			c0.249-0.125,0.499-0.174,0.797-0.174c0.598,0.025,0.972,0.148,1.146,0.398c0.175,0.248,0.25,0.449,0.25,0.623h1.345
			c0-0.299-0.075-0.598-0.224-0.922s-0.424-0.623-0.797-0.873c-0.374-0.248-0.922-0.373-1.595-0.373
			c-0.723,0-1.271,0.125-1.645,0.373c-0.374,0.225-0.623,0.523-0.772,0.822c-0.125,0.324-0.199,0.623-0.174,0.873
			c0.025,0.723,0.249,1.195,0.673,1.445c0.424,0.248,0.922,0.424,1.47,0.523l0.723,0.174c0.374,0.074,0.648,0.174,0.872,0.273
			c0.224,0.125,0.349,0.299,0.349,0.549c-0.025,0.348-0.174,0.572-0.449,0.697c-0.274,0.125-0.598,0.174-0.947,0.174
			c-0.598-0.023-0.997-0.148-1.171-0.398c-0.175-0.248-0.274-0.473-0.25-0.697L110.874,161.242z"/>
		<path id="path3100" fill="#FFFFFF" d="M122.161,156.582h-1.445v4.461c0,0.424-0.1,0.723-0.324,0.947
			c-0.224,0.223-0.573,0.322-1.046,0.348c-0.349,0-0.623-0.1-0.847-0.324s-0.349-0.572-0.349-1.021v-4.385h-1.445v4.484
			c0,0.35,0.05,0.648,0.125,0.922c0.075,0.275,0.224,0.523,0.398,0.723c0.324,0.324,0.673,0.549,1.071,0.648
			c0.399,0.125,0.748,0.174,1.072,0.15c0.872,0,1.544-0.201,2.018-0.6c0.499-0.398,0.748-1.045,0.748-1.943L122.161,156.582z"/>
		<path id="path3102" fill="#FFFFFF" d="M124.229,161.939h2.492l0.424,1.395h1.544l-2.392-6.752h-1.62l-2.417,6.752h1.495
			L124.229,161.939z M125.475,158.102L125.475,158.102l0.847,2.666h-1.719L125.475,158.102z"/>
		<path id="path3104" fill="#FFFFFF" d="M130.233,156.582h-1.42v6.752h4.784v-1.221h-3.364V156.582z"/>
		<path id="path3106" fill="#FFFFFF" d="M138.605,156.582h-1.42v6.752h1.42V156.582z"/>
		<path id="path3108" fill="#FFFFFF" d="M143.289,161.291L143.289,161.291l-2.69-4.709h-1.495v6.752h1.321v-4.809h0.025l2.766,4.809
			h1.42v-6.752h-1.32L143.289,161.291z"/>
		<path id="path3110" fill="#FFFFFF" d="M148.074,157.779h2.043v-1.197h-5.508v1.197h2.043v5.555h1.422V157.779L148.074,157.779z"/>
		<path id="path3112" fill="#FFFFFF" d="M155.174,156.582h-4.957v6.752h5.133v-1.195h-3.738v-1.744h3.289v-1.195h-3.289v-1.42h3.588
			v-1.197H155.174z"/>
		<path id="path3114" fill="#FFFFFF" d="M157.143,156.582h-1.42v6.752h4.785v-1.221h-3.365V156.582z"/>
		<path id="path3116" fill="#FFFFFF" d="M162.127,156.582h-1.42v6.752h4.783v-1.221h-3.363V156.582z"/>
		<path id="path3118" fill="#FFFFFF" d="M167.01,156.582h-1.42v6.752h1.42V156.582z"/>
		<path id="path3120" fill="#FFFFFF" d="M170.723,160.818h1.57c-0.176,0.648-0.449,1.072-0.822,1.246
			c-0.375,0.174-0.648,0.248-0.822,0.225c-0.498,0.023-0.947-0.15-1.346-0.475s-0.598-0.945-0.623-1.844
			c0.025-0.846,0.225-1.469,0.598-1.869c0.373-0.373,0.822-0.572,1.346-0.572c0.498,0.025,0.871,0.174,1.121,0.449
			c0.25,0.273,0.373,0.498,0.373,0.646h1.422c-0.025-0.324-0.125-0.646-0.35-0.996c-0.199-0.35-0.523-0.648-0.947-0.896
			c-0.424-0.25-0.996-0.375-1.67-0.375h-0.023c-0.748,0-1.371,0.176-1.869,0.523c-0.475,0.324-0.848,0.773-1.072,1.32
			c-0.225,0.549-0.348,1.123-0.348,1.744c0.025,1.197,0.348,2.068,0.945,2.668c0.6,0.598,1.322,0.871,2.168,0.871
			c0.6-0.025,1.072-0.125,1.371-0.35c0.324-0.223,0.549-0.447,0.723-0.672l0.148,0.848h0.947v-3.639h-2.814L170.723,160.818z"/>
		<path id="path3122" fill="#FFFFFF" d="M179.07,156.582h-4.959v6.752h5.133v-1.195h-3.738v-1.744h3.289v-1.195h-3.289v-1.42h3.588
			v-1.197H179.07z"/>
		<path id="path3124" fill="#FFFFFF" d="M183.754,161.291L183.754,161.291l-2.691-4.709h-1.494v6.752h1.32v-4.809h0.025l2.766,4.809
			h1.42v-6.752h-1.32L183.754,161.291z"/>
		<path id="path3126" fill="#FFFFFF" d="M188.537,157.779h2.043v-1.197h-5.506v1.197h2.043v5.555h1.42V157.779L188.537,157.779z"/>
		<path id="path3128" fill="#FFFFFF" d="M197.033,157.779h2.045v-1.197h-5.508v1.197h2.043v5.555h1.42V157.779z"/>
		<path id="path3130" fill="#FFFFFF" d="M204.111,156.582h-4.959v6.752h5.133v-1.195h-3.738v-1.744h3.289v-1.195h-3.289v-1.42h3.588
			v-1.197H204.111z"/>
		<path id="path3132" fill="#FFFFFF" d="M204.658,163.334h1.396v-2.641h1.469c0.498,0,0.822,0.1,0.947,0.299s0.174,0.523,0.15,0.998
			c0,0.348,0.023,0.623,0.049,0.822s0.074,0.398,0.1,0.547h1.57v-0.174c-0.15-0.051-0.225-0.15-0.275-0.35
			c-0.023-0.174-0.049-0.523-0.049-0.996c0-0.598-0.074-1.021-0.225-1.246c-0.148-0.225-0.348-0.373-0.646-0.473
			c0.322-0.125,0.598-0.324,0.771-0.623s0.273-0.623,0.273-0.996c0-0.201-0.049-0.449-0.148-0.748s-0.324-0.549-0.623-0.797
			c-0.299-0.225-0.748-0.35-1.346-0.375h-3.414V163.334z M206.055,159.547v-1.818h1.768c0.398,0.025,0.674,0.125,0.799,0.299
			c0.123,0.199,0.199,0.375,0.174,0.574c0,0.322-0.1,0.572-0.273,0.723c-0.176,0.148-0.449,0.223-0.822,0.199L206.055,159.547z"/>
		<path id="path3134" fill="#FFFFFF" d="M217.191,156.582h-2.043l-1.195,5.332h-0.025l-1.221-5.332h-2.068v6.752h1.32v-5.654h0.025
			l1.221,5.654h1.395l1.271-5.654h0.025v5.654h1.32v-6.752H217.191z"/>
		<path id="path3136" fill="#FFFFFF" d="M219.086,156.582h-1.422v6.752h1.422V156.582z"/>
		<path id="path3138" fill="#FFFFFF" d="M223.744,161.291L223.744,161.291l-2.691-4.709h-1.494v6.752h1.32v-4.809h0.025l2.766,4.809
			h1.42v-6.752h-1.32v4.709H223.744z"/>
		<path id="path3140" fill="#FFFFFF" d="M227.084,161.939h2.49l0.424,1.395h1.545l-2.391-6.752h-1.621l-2.416,6.752h1.494
			L227.084,161.939z M228.33,158.102L228.33,158.102l0.846,2.666h-1.719L228.33,158.102z"/>
		<path id="path3142" fill="#FFFFFF" d="M233.113,156.582h-1.42v6.752h4.783v-1.221h-3.363V156.582z"/>
		<path id="path3144" fill="#FFFFFF" d="M76.489,172.08v3.016h1.42v-6.752h-1.42v2.566h-2.641v-2.566h-1.42v6.752h1.42v-3.041h2.641
			V172.08z"/>
		<path id="path3146" fill="#FFFFFF" d="M79.828,168.344h-1.42v6.752h1.42V168.344z"/>
		<path id="path3148" fill="#FFFFFF" d="M83.565,172.604h1.57c-0.175,0.648-0.449,1.072-0.822,1.246
			c-0.374,0.174-0.648,0.25-0.822,0.225c-0.499,0.025-0.947-0.15-1.346-0.475c-0.398-0.322-0.598-0.945-0.623-1.844
			c0.025-0.846,0.225-1.469,0.598-1.867c0.374-0.375,0.822-0.574,1.345-0.574c0.499,0.025,0.872,0.174,1.122,0.449
			c0.249,0.273,0.374,0.498,0.374,0.648h1.42c-0.025-0.324-0.125-0.648-0.349-0.998c-0.199-0.348-0.523-0.648-0.947-0.896
			c-0.423-0.25-0.997-0.373-1.669-0.373h-0.024c-0.748,0-1.371,0.174-1.869,0.523c-0.473,0.322-0.847,0.771-1.071,1.32
			c-0.224,0.547-0.349,1.121-0.349,1.744c0.025,1.195,0.349,2.066,0.947,2.666c0.598,0.598,1.321,0.871,2.167,0.871
			c0.598-0.025,1.071-0.125,1.371-0.348c0.299-0.225,0.548-0.449,0.723-0.674l0.149,0.848h0.947v-3.639H83.59L83.565,172.604z"/>
		<path id="path3150" fill="#FFFFFF" d="M90.94,172.08v3.016h1.42v-6.752h-1.42v2.566h-2.641v-2.566h-1.42v6.752h1.42v-3.041h2.641
			V172.08z"/>
		<path id="path3152" fill="#FFFFFF" d="M99.636,172.604h1.57c-0.174,0.648-0.448,1.072-0.822,1.246
			c-0.374,0.174-0.648,0.25-0.822,0.225c-0.499,0.025-0.947-0.15-1.345-0.475c-0.399-0.322-0.598-0.945-0.623-1.844
			c0.025-0.846,0.224-1.469,0.598-1.867c0.374-0.375,0.823-0.574,1.346-0.574c0.499,0.025,0.872,0.174,1.121,0.449
			c0.25,0.273,0.374,0.498,0.374,0.648h1.42c-0.025-0.324-0.125-0.648-0.349-0.998c-0.199-0.348-0.523-0.648-0.947-0.896
			c-0.424-0.25-0.997-0.373-1.669-0.373h-0.025c-0.748,0-1.371,0.174-1.869,0.523c-0.474,0.322-0.847,0.771-1.071,1.32
			c-0.225,0.547-0.349,1.121-0.349,1.744c0.025,1.195,0.349,2.066,0.947,2.666c0.598,0.598,1.32,0.871,2.168,0.871
			c0.598-0.025,1.071-0.125,1.37-0.348c0.324-0.225,0.548-0.449,0.723-0.674l0.149,0.848h0.947v-3.639h-2.84V172.604z"/>
		<path id="path3154" fill="#FFFFFF" d="M103.025,175.096h1.395v-2.641h1.47c0.499,0,0.822,0.1,0.947,0.299s0.175,0.523,0.15,0.996
			c0,0.35,0.025,0.623,0.049,0.822c0.025,0.199,0.075,0.398,0.1,0.549h1.569v-0.176c-0.149-0.049-0.224-0.148-0.274-0.348
			c-0.025-0.176-0.05-0.523-0.05-0.998c0-0.598-0.075-1.021-0.224-1.244c-0.149-0.225-0.349-0.375-0.648-0.475
			c0.324-0.125,0.598-0.324,0.772-0.623s0.274-0.623,0.274-0.996c0-0.199-0.05-0.449-0.149-0.748s-0.324-0.547-0.623-0.797
			c-0.299-0.225-0.748-0.35-1.345-0.373h-3.414V175.096z M104.42,171.309v-1.82h1.77c0.398,0.025,0.673,0.125,0.797,0.301
			c0.125,0.199,0.199,0.373,0.174,0.572c0,0.324-0.1,0.572-0.274,0.723c-0.174,0.148-0.448,0.225-0.822,0.199L104.42,171.309z"/>
		<path id="path3156" fill="#FFFFFF" d="M110.5,173.699h2.491l0.424,1.396h1.545l-2.392-6.752h-1.62l-2.417,6.752h1.495
			L110.5,173.699z M111.746,169.863L111.746,169.863l0.847,2.666h-1.719L111.746,169.863z"/>
		<path id="path3158" fill="#FFFFFF" d="M115.109,175.096h2.915c0.748-0.025,1.321-0.225,1.719-0.598
			c0.399-0.375,0.698-0.848,0.847-1.371c0.149-0.549,0.249-1.072,0.225-1.57c0-0.447-0.05-0.922-0.2-1.395
			c-0.149-0.498-0.423-0.922-0.822-1.271c-0.398-0.348-0.972-0.523-1.719-0.547h-2.99v6.752H115.109z M116.479,169.514h1.346
			c0.199,0,0.423,0.025,0.673,0.125c0.249,0.1,0.448,0.273,0.623,0.598c0.175,0.299,0.25,0.797,0.274,1.445
			c0,0.572-0.1,1.096-0.349,1.545c-0.224,0.449-0.623,0.697-1.196,0.723h-1.371V169.514z"/>
		<path id="path3160" fill="#FFFFFF" d="M126.123,168.344h-4.958v6.752h5.133V173.9h-3.737v-1.744h3.289v-1.197h-3.289v-1.42h3.587
			v-1.195H126.123z"/>
		<path id="path3162" fill="#FFFFFF" d="M136.662,168.344h-2.043l-1.196,5.332h-0.025l-1.221-5.332h-2.068v6.752h1.321v-5.656h0.024
			l1.221,5.656h1.395l1.271-5.656h0.025v5.656h1.32L136.662,168.344z"/>
		<path id="path3164" fill="#FFFFFF" d="M142.643,168.344h-1.446v4.459c0,0.424-0.1,0.723-0.324,0.947
			c-0.225,0.225-0.573,0.324-1.047,0.35c-0.349,0-0.623-0.102-0.847-0.324c-0.224-0.225-0.349-0.574-0.349-1.021v-4.387h-1.445
			v4.486c0,0.348,0.05,0.646,0.125,0.922c0.075,0.273,0.225,0.523,0.399,0.723c0.324,0.324,0.673,0.547,1.071,0.646
			s0.748,0.176,1.071,0.15c0.872,0,1.545-0.199,2.019-0.598c0.474-0.398,0.748-1.047,0.748-1.943v-4.41H142.643z"/>
		<path id="path3166" fill="#FFFFFF" d="M144.686,168.344h-1.42v6.752h4.783v-1.221h-3.363V168.344z"/>
		<path id="path3168" fill="#FFFFFF" d="M151.139,169.539h2.043v-1.195h-5.506v1.195h2.043v5.557h1.42V169.539z"/>
		<path id="path3170" fill="#FFFFFF" d="M154.553,168.344h-1.422v6.752h1.422V168.344z"/>
		<path id="path3172" fill="#FFFFFF" d="M156.52,172.654h1.621c0.598-0.025,1.045-0.15,1.369-0.424
			c0.324-0.275,0.523-0.574,0.623-0.896c0.1-0.324,0.176-0.623,0.15-0.824c0-0.672-0.199-1.195-0.549-1.568
			c-0.373-0.375-0.873-0.574-1.545-0.574h-3.09v6.729h1.42V172.654L156.52,172.654z M156.52,171.482v-1.994h1.121
			c0.424,0,0.748,0.076,0.947,0.225c0.199,0.15,0.299,0.375,0.299,0.723c0.025,0.176-0.025,0.398-0.123,0.648
			c-0.102,0.25-0.424,0.398-0.924,0.424h-1.32V171.482z"/>
		<path id="path3174" fill="#FFFFFF" d="M166.039,168.344h-1.445v4.459c0,0.424-0.1,0.723-0.324,0.947s-0.574,0.324-1.047,0.35
			c-0.35,0-0.623-0.102-0.848-0.324c-0.225-0.225-0.348-0.574-0.348-1.021v-4.387h-1.445v4.486c0,0.348,0.049,0.646,0.125,0.922
			c0.074,0.273,0.223,0.523,0.398,0.723c0.322,0.324,0.672,0.547,1.07,0.646c0.398,0.125,0.748,0.176,1.072,0.15
			c0.871,0,1.545-0.199,2.018-0.598c0.475-0.398,0.748-1.047,0.748-1.943L166.039,168.344z"/>
		<path id="path3176" fill="#FFFFFF" d="M166.662,175.096h1.395v-2.641h1.471c0.498,0,0.822,0.1,0.945,0.299
			c0.125,0.199,0.176,0.523,0.15,0.996c0,0.35,0.025,0.623,0.049,0.822c0.025,0.199,0.076,0.398,0.102,0.549h1.568v-0.176
			c-0.148-0.049-0.225-0.148-0.273-0.348c-0.025-0.176-0.051-0.523-0.051-0.998c0-0.598-0.074-1.021-0.223-1.244
			c-0.15-0.225-0.35-0.375-0.648-0.475c0.324-0.125,0.598-0.324,0.771-0.623c0.176-0.299,0.275-0.623,0.275-0.996
			c0-0.199-0.051-0.449-0.15-0.748s-0.324-0.547-0.623-0.797c-0.299-0.225-0.748-0.35-1.346-0.373h-3.412V175.096z M168.057,171.309
			v-1.82h1.77c0.398,0.025,0.672,0.125,0.797,0.301c0.125,0.174,0.199,0.373,0.174,0.572c0,0.324-0.1,0.572-0.273,0.723
			c-0.174,0.148-0.449,0.225-0.822,0.199L168.057,171.309z"/>
		<path id="path3178" fill="#FFFFFF" d="M174.111,172.654h1.619c0.598-0.025,1.047-0.15,1.371-0.424
			c0.324-0.275,0.523-0.574,0.623-0.896c0.1-0.324,0.174-0.623,0.148-0.824c0-0.672-0.199-1.195-0.547-1.568
			c-0.375-0.375-0.873-0.574-1.545-0.574h-3.09v6.729h1.42V172.654L174.111,172.654z M174.111,171.482v-1.994h1.121
			c0.424,0,0.748,0.076,0.947,0.225c0.199,0.15,0.299,0.375,0.299,0.723c0.025,0.176-0.025,0.398-0.125,0.648
			s-0.424,0.398-0.922,0.424h-1.32V171.482z"/>
		<path id="path3180" fill="#FFFFFF" d="M177.924,171.732c0.025,1.045,0.248,1.818,0.646,2.342c0.4,0.523,0.873,0.848,1.371,0.996
			c0.498,0.15,0.922,0.225,1.246,0.225c0.324,0.025,0.723-0.051,1.246-0.225c0.498-0.148,0.971-0.498,1.369-0.996
			c0.4-0.523,0.623-1.297,0.648-2.342c-0.025-1.047-0.248-1.82-0.648-2.344c-0.398-0.521-0.871-0.846-1.369-0.996
			c-0.498-0.148-0.922-0.225-1.246-0.225c-0.324-0.023-0.723,0.051-1.246,0.225c-0.498,0.15-0.971,0.498-1.371,0.996
			C178.172,169.889,177.949,170.686,177.924,171.732z M179.344,171.732c0.025-0.922,0.248-1.545,0.623-1.895
			c0.398-0.324,0.797-0.498,1.195-0.473c0.398-0.025,0.822,0.148,1.197,0.473c0.398,0.324,0.598,0.973,0.623,1.895
			c-0.025,0.922-0.25,1.545-0.623,1.893c-0.4,0.324-0.799,0.498-1.197,0.475c-0.398,0.023-0.822-0.15-1.195-0.475
			C179.568,173.277,179.369,172.654,179.344,171.732z"/>
		<path id="path3182" fill="#FFFFFF" d="M184.426,173.027c0,0.299,0.051,0.623,0.199,0.947c0.15,0.324,0.424,0.646,0.848,0.896
			s1.021,0.398,1.844,0.398c0.225,0,0.549-0.025,0.947-0.125c0.424-0.1,0.797-0.299,1.146-0.623
			c0.348-0.322,0.549-0.797,0.549-1.469c-0.025-0.6-0.201-1.021-0.549-1.271c-0.35-0.248-0.748-0.447-1.221-0.549l-1.645-0.398
			c-0.15-0.023-0.299-0.074-0.475-0.174c-0.148-0.1-0.248-0.273-0.248-0.523c0.023-0.299,0.148-0.523,0.398-0.623
			c0.248-0.125,0.498-0.174,0.797-0.174c0.598,0.025,0.973,0.148,1.146,0.398s0.25,0.449,0.25,0.623h1.344
			c0-0.299-0.074-0.598-0.223-0.922c-0.15-0.324-0.424-0.623-0.799-0.873c-0.373-0.248-0.922-0.373-1.594-0.373
			c-0.723,0-1.271,0.125-1.645,0.373c-0.373,0.225-0.623,0.523-0.773,0.822c-0.123,0.324-0.199,0.623-0.174,0.873
			c0.025,0.723,0.25,1.195,0.674,1.445c0.422,0.248,0.922,0.424,1.469,0.523l0.723,0.174c0.375,0.074,0.648,0.174,0.873,0.273
			c0.225,0.125,0.348,0.299,0.348,0.549c-0.023,0.35-0.174,0.572-0.447,0.697c-0.275,0.125-0.598,0.176-0.947,0.176
			c-0.598-0.025-0.996-0.15-1.172-0.4c-0.174-0.248-0.273-0.473-0.248-0.697L184.426,173.027z"/>
		<path id="path3184" fill="#FFFFFF" d="M195.266,168.344h-4.959v6.752h5.133V173.9h-3.738v-1.744h3.289v-1.197h-3.289v-1.42h3.588
			v-1.195H195.266z"/>
		<path id="path3186" fill="#FFFFFF" d="M204.732,168.344h-1.443v4.459c0,0.424-0.1,0.723-0.324,0.947s-0.574,0.324-1.047,0.35
			c-0.35,0-0.623-0.102-0.848-0.324c-0.225-0.225-0.348-0.574-0.348-1.021v-4.387h-1.422v4.486c0,0.348,0.051,0.646,0.125,0.922
			c0.074,0.273,0.225,0.523,0.398,0.723c0.324,0.324,0.674,0.547,1.072,0.646s0.748,0.176,1.07,0.15c0.873,0,1.545-0.199,2.02-0.598
			c0.498-0.398,0.746-1.047,0.746-1.943V168.344z"/>
		<path id="path3188" fill="#FFFFFF" d="M205.033,173.027c0,0.299,0.049,0.623,0.199,0.947c0.148,0.324,0.424,0.646,0.846,0.896
			c0.424,0.25,1.021,0.398,1.844,0.398c0.225,0,0.549-0.025,0.947-0.125c0.424-0.1,0.797-0.299,1.146-0.623
			c0.35-0.322,0.549-0.797,0.549-1.469c-0.025-0.6-0.199-1.021-0.549-1.271c-0.35-0.248-0.748-0.447-1.221-0.549l-1.645-0.398
			c-0.15-0.023-0.299-0.074-0.473-0.174c-0.15-0.1-0.25-0.273-0.25-0.523c0.025-0.299,0.148-0.523,0.398-0.623
			c0.25-0.125,0.498-0.174,0.797-0.174c0.598,0.025,0.973,0.148,1.146,0.398s0.25,0.449,0.25,0.623h1.346
			c0-0.299-0.076-0.598-0.225-0.922c-0.15-0.324-0.424-0.623-0.797-0.873c-0.375-0.248-0.922-0.373-1.596-0.373
			c-0.723,0-1.271,0.125-1.645,0.373c-0.373,0.225-0.623,0.523-0.771,0.822c-0.125,0.324-0.199,0.623-0.176,0.873
			c0.025,0.723,0.25,1.195,0.674,1.445c0.424,0.248,0.922,0.424,1.469,0.523l0.723,0.174c0.375,0.074,0.648,0.174,0.873,0.273
			c0.225,0.125,0.348,0.299,0.348,0.549c-0.023,0.35-0.174,0.572-0.447,0.697s-0.598,0.176-0.947,0.176
			c-0.598-0.025-0.996-0.15-1.17-0.4c-0.176-0.248-0.275-0.473-0.25-0.697L205.033,173.027z"/>
		<path id="path3190" fill="#FFFFFF" d="M215.871,168.344h-4.959v6.752h5.133V173.9h-3.736v-1.744h3.289v-1.197h-3.289v-1.42h3.588
			v-1.195H215.871z"/>
	</g>
	<g id="text4039">
		<path id="path3065" d="M17.039,218.648l2.916-4.385h15.896l3.737-5.98l-3.737-4.709c-0.499-0.672-1.246-0.996-2.192-0.996h-6.404
			l2.916-4.385h8.77c0.972,0,1.794,0.424,2.467,1.27l2.068,2.617l2.791-4.535c0.972-1.52,2.442-2.293,4.385-2.293h5.855
			l-8.123,13.057l8.123,10.34h-8.77l-3.214-4.111l-1.719,2.742c-0.598,0.922-1.396,1.369-2.367,1.369H17.039z"/>
		<path id="path3067" d="M62.361,204.023v-4.385h8.945l1.196-2.02c1.046-1.594,2.517-2.367,4.485-2.367h5.855l-2.741,4.387h7.126
			c0.972,0,1.819,0.521,2.566,1.545l5.582,7.773c0.424,0.598,0.499,1.246,0.174,1.918l-4.286,6.205
			c-0.723,1.045-1.595,1.545-2.566,1.545H77.012v-4.387h5.855c0.972,0,1.769-0.373,2.367-1.096l1.544-2.641
			c0.299-0.424,0.299-0.848,0-1.271l-2.915-4.211c-0.523-0.672-1.345-0.996-2.467-0.996h-4.011l-9.145,14.625h-8.771l9.145-14.625
			H62.361z M87.203,195.252h5.855l6.129,8.598l-2.466,4.559L87.203,195.252z M94.803,195.252h9.966l-4.659,7.301L94.803,195.252z"/>
		<path id="path3069" d="M119.37,218.648v-23.396h8.771v5.855h14.625c0.973,0,1.795,0.523,2.467,1.545l4.834,7.227h-8.77
			l-1.819-2.916c-0.723-0.971-1.595-1.469-2.566-1.469h-8.771v13.154H119.37L119.37,218.648z M136.936,199.639l-2.915-4.387h5.855
			l2.915,4.387H136.936z M144.236,199.639l-2.915-4.387h5.854l2.916,4.387H144.236z"/>
		<path id="path3071" d="M153.008,199.639v-4.387h30.695v4.387H153.008z M153.008,205.494v-4.387h30.695v4.387
			c0,0.971-0.223,1.918-0.646,2.84l-4.486,8.945c-0.498,0.922-1.221,1.369-2.191,1.369h-19.012v-4.385h11.686
			c0.973,0,1.744-0.498,2.293-1.471l3.563-7.299H153.008z"/>
		<path id="path3073" d="M186.645,204.023v-4.385h21.104c1.047,0,1.818-0.5,2.367-1.471l1.371-2.916h8.77l-2.914,5.855
			c-0.973,1.943-2.443,2.916-4.387,2.916H207.1v14.625h-8.77v-14.625H186.645z"/>
		<path id="path3075" d="M251.701,213.891l-2.742,3.289c-0.598,0.971-1.395,1.469-2.365,1.469h-23.398v-4.385h16.072
			c0.771,0,1.471-0.498,2.094-1.471l0.82-1.395v-11.76h-19.01v-4.387h29.252v16.072C252.424,212.32,252.199,213.168,251.701,213.891
			L251.701,213.891z M255.363,204.023l4.385-8.771h5.855l-4.385,8.771H255.363z M253.893,204.023v-8.771h4.387L253.893,204.023z"/>
	</g>
	
		<rect id="rect3834" x="157.441" y="50.987" fill="#00AA00" stroke="#000000" stroke-width="5.2212" stroke-linecap="round" stroke-opacity="0" width="30.871" height="93.96"/>
	<path id="path3838" fill="#00AA00" stroke="#000000" stroke-width="5.1549" stroke-linecap="round" stroke-opacity="0" d="
		M194.967,51.037c-0.324,0-0.699-0.025-1.121-0.025l-0.199,32.192c0.023,0,0.049,0,0.074,0v-0.1c0.523-0.075,1.047-0.1,1.594-0.125
		l6.479-31.544C199.277,51.137,196.91,51.112,194.967,51.037L194.967,51.037z M206.852,51.934l-9.096,31.195
		c0.822,0.1,1.596,0.299,2.367,0.523l14.951-29.675C212.432,53.08,209.691,52.382,206.852,51.934L206.852,51.934z M220.057,56.095
		l-17.865,28.38c0.598,0.299,1.172,0.623,1.721,0.997l22.973-25.265C224.74,58.637,222.449,57.266,220.057,56.095z M231.17,63.719
		L205.48,86.643c0.623,0.523,1.197,1.121,1.719,1.744l30.225-17.591C235.58,68.229,233.486,65.862,231.17,63.719L231.17,63.719z
		 M239.766,74.409l-31.469,15.498c0.348,0.573,0.672,1.146,0.971,1.77l34.535-8.297C242.781,80.214,241.41,77.224,239.766,74.409z
		 M245.098,88.137l-35.207,5.158c0.35,1.097,0.598,2.243,0.697,3.414h35.557C246.045,93.769,245.695,90.903,245.098,88.137
		L245.098,88.137z M210.613,99.499c-0.723,7.649-7.125,13.604-14.924,13.604c-0.674,0-1.322-0.05-1.969-0.125v-0.648
		c-0.025,0-0.051,0-0.074,0v32.517c2.666-0.025,4.035-0.125,6.104-0.125c25.141,0,45.598-20.108,46.369-45.198h-35.506V99.499z"/>
	<polygon fill="#D40000" stroke="#000000" stroke-width="0.782" stroke-opacity="0" points="89.745,128.651 89.745,49.093 
		25.834,144.148 79.305,144.148 89.745,144.148 143.215,144.148 143.215,49.093 	"/>
	<path id="text8337" d="M14.572,246.307l12.932-21.453c0.623-1.221,1.221-1.844,1.844-1.844h9.219v2.84l0.623-1.021
		c0.623-1.221,1.221-1.844,1.844-1.844h11.063v23.297h-7.375v-18.389l-11.063,18.389h-7.4l11.088-18.389h-3.713
		c-0.398,0-0.822,0.199-1.221,0.623l-10.465,17.791H14.572L14.572,246.307z M61.938,237.088v4.285h17.217v4.908H54.538v-15.324
		c0-0.398,0.1-0.822,0.299-1.221l3.389-6.129c0.199-0.398,0.623-0.623,1.221-0.623H79.13v4.908H64.354
		c-0.398,0-0.722,0.199-0.921,0.623l-1.545,3.688h17.217l-2.466,4.908H61.938V237.088z M89.022,241.398h12.309v-4.287h-4.933
		l2.466-4.908h9.842v12.883c0,0.822-0.398,1.221-1.221,1.221H82.868c-0.822,0-1.221-0.398-1.221-1.221v-14.104
		c0-0.398,0.1-0.822,0.299-1.221l3.389-6.129c0.199-0.398,0.623-0.623,1.221-0.623h20.93v4.908H91.489
		c-0.399,0-0.723,0.199-0.922,0.623l-1.545,3.688V241.398L89.022,241.398z M141.919,246.307h-8.621l-3.389-4.908h-8.92l-2.466-4.436
		v9.344h-7.375V223.01H125.3c0.623,0,1.221,0.623,1.844,1.844L141.919,246.307z M126.521,236.49l-5.506-7.975
		c-0.399-0.398-0.822-0.623-1.221-0.623h-1.221v8.598H126.521z"/>
	<path id="text8339" d="M153.406,241.447h8.57c0.398,0,0.723-0.174,0.922-0.549l2.617-5.605l0.148-0.623l-0.148-0.623l-2.617-5.531
		c-0.199-0.398-0.498-0.623-0.922-0.623h-8.57V241.447z M146.055,222.984h20.531c0.623,0,1.121,0.398,1.52,1.221l4.76,9.842
		l0.15,0.623l-0.15,0.623l-4.76,9.842c-0.398,0.822-0.922,1.221-1.52,1.221h-20.531V222.984z M175.457,222.984h19.609
		c0.623,0,1.121,0.398,1.52,1.221l3.215,6.752l0.148,0.623l-0.148,0.623l-4.734,5.557l4.908,8.596h-7.352l-7.051-11.686h3.688
		c0.398,0,0.723-0.1,0.922-0.299l2.441-2.766l-1.221-3.064c-0.199-0.398-0.498-0.623-0.922-0.623h-7.648v18.438h-7.35v-23.371
		H175.457z M209.791,246.355h-7.35v-23.371h7.35V246.355z M219.584,230.684l7.35,10.764l7.35-10.764v-7.674h7.377v8.596
		c0,0.822-0.1,1.445-0.299,1.844l-8.299,12.906h-12.258l-8.273-12.906c-0.199-0.398-0.299-1.021-0.299-1.844v-8.596h7.352V230.684
		L219.584,230.684z M251.451,237.137v4.311h17.168v4.908h-24.518v-15.373c0-0.398,0.1-0.822,0.299-1.221l3.363-6.154
		c0.199-0.398,0.623-0.623,1.221-0.623h19.609v4.934h-14.701c-0.398,0-0.723,0.199-0.922,0.623l-1.52,3.688h17.168l-2.441,4.908
		H251.451z"/>
</g>
</svg>
