<?xml version="1.0" encoding="utf-8"?>
<!-- Generator: Adobe Illustrator 16.0.0, SVG Export Plug-In . SVG Version: 6.00 Build 0)  -->
<svg version="1.2" baseProfile="tiny" id="Layer_1" xmlns="http://www.w3.org/2000/svg" xmlns:xlink="http://www.w3.org/1999/xlink"
	 x="0px" y="0px" width="283.465px" height="283.465px" viewBox="0 0 283.465 283.465" xml:space="preserve">
<g>
	<rect id="rect6249" x="14.172" y="94.507" fill="#B2AE85" width="255.121" height="94.451"/>
	<path d="M18.273,98.849v85.769h246.919V98.849H18.273z M258.679,177.428H24.859v-71.993h233.819V177.428L258.679,177.428z"/>
	<g>
		<path d="M131.248,119.358c-83.438,15.575-68.948,53.907,3.712,45.545C19.915,188.879-13.171,138.424,131.248,119.358z"/>
		<path d="M147.41,131.302l7.254,26.565c60.868-6.85,88.677-45.848-10.59-41.421c81.329-10.596,110.014,0.73,103.07,12.383
			c-6.942,11.652-47.743,26.918-100.07,34.068L147.41,131.302z"/>
	</g>
</g>
</svg>
