<?xml version="1.0" encoding="utf-8"?>
<!-- Generator: Adobe Illustrator 16.0.0, SVG Export Plug-In . SVG Version: 6.00 Build 0)  -->
<svg version="1.2" baseProfile="tiny" id="Layer_1" xmlns="http://www.w3.org/2000/svg" xmlns:xlink="http://www.w3.org/1999/xlink"
	 x="0px" y="0px" width="283.465px" height="283.465px" viewBox="0 0 283.465 283.465" xml:space="preserve">
<g>
	<path fill="#7B7692" d="M28.255,159.438h12.479v-27.729h-8.443v15.9h-0.072l-5.567-15.9H14.173v27.729h8.438v-16.006h0.076
		L28.255,159.438z M75.333,159.438h12.479v-27.729h-8.439v15.9h-0.076l-5.567-15.9H61.253v27.729h8.441v-16.006h0.074
		L75.333,159.438z M156.398,159.438h12.481v-27.729h-8.44v15.9h-0.076l-5.566-15.9h-12.479v27.729h8.439v-16.006h0.074
		L156.398,159.438z M45.832,131.709H56.24v27.729H45.832V131.709z M97.446,139.241h-6.614v-7.532h23.656v7.532h-6.637v20.197H97.446
		V139.241L97.446,139.241z M117.561,131.701h20.585v7.334h-10.34v2.9h9.521v7.108h-9.521v3.112h10.669v7.273h-20.914V131.701
		L117.561,131.701z"/>
	<path fill="#0124A6" d="M185.695,131.704h-12.328v27.738h12.951c8.068,0,13.229-5.194,13.229-13.575
		C199.547,137.66,196.223,131.704,185.695,131.704z M188.016,151.512c-0.658,1.108-1.767,1.628-3.463,1.628h-1.005v-15.133h1.005
		c1.696,0,2.805,0.52,3.463,1.628c0.691,1.143,0.762,3.255,0.762,5.921C188.777,148.257,188.707,150.369,188.016,151.512z"/>
	<path fill="#0124A6" d="M215.857,130.977c-9.039,0-13.574,5.956-13.574,14.579c0,8.657,4.535,14.614,13.574,14.614
		c9.072,0,13.574-5.957,13.574-14.614C229.432,136.933,224.93,130.977,215.857,130.977z M215.857,153.14
		c-1.592,0-2.805-0.796-2.805-7.584c0-6.614,1.143-7.549,2.805-7.549c1.697,0,2.805,0.935,2.805,7.549
		C218.662,152.344,217.484,153.14,215.857,153.14z"/>
	<polygon fill="#0124A6" points="28.255,159.438 40.734,159.438 40.734,131.709 32.291,131.709 32.291,147.609 32.219,147.609 
		26.651,131.709 14.173,131.709 14.173,159.438 22.611,159.438 22.611,143.432 22.687,143.432 	"/>
	<polygon fill="#0124A6" points="75.333,159.438 87.813,159.438 87.813,131.709 79.374,131.709 79.374,147.609 79.298,147.609 
		73.731,131.709 61.253,131.709 61.253,159.438 69.694,159.438 69.694,143.432 69.768,143.432 	"/>
	<polygon fill="#0124A6" points="156.398,159.438 168.88,159.438 168.88,131.709 160.439,131.709 160.439,147.609 160.363,147.609 
		154.797,131.709 142.318,131.709 142.318,159.438 150.758,159.438 150.758,143.432 150.832,143.432 	"/>
	<rect x="45.832" y="131.709" fill="#0124A6" width="10.408" height="27.729"/>
	<polygon fill="#0124A6" points="97.446,139.241 90.832,139.241 90.832,131.709 114.488,131.709 114.488,139.241 107.851,139.241 
		107.851,159.438 97.446,159.438 97.446,139.241 	"/>
	<polygon fill="#0124A6" points="117.561,131.701 138.146,131.701 138.146,139.035 127.806,139.035 127.806,141.936 
		137.327,141.936 137.327,149.044 127.806,149.044 127.806,152.156 138.475,152.156 138.475,159.43 117.561,159.43 117.561,131.701 
			"/>
	<g>
		<polygon fill="#FF2D1E" points="248.063,128.033 248.063,128.033 248.063,128.033 		"/>
		<path fill="#FF2D1E" d="M243.805,130.804c-1.801,0-3.152,0.45-4.26,1.42h-0.105c0.625-2.112,2.391-3.982,6.789-4.19
			c0.727-0.035,1.281-0.069,1.834,0v-4.674c-0.449-0.035-1.039-0.104-1.973-0.035c-3.602,0.069-6.545,1.143-8.832,3.255
			c-2.389,2.251-3.844,5.714-3.844,9.835c0,5.056,2.701,9.766,8.865,9.766c4.711,0,8.174-3.532,8.174-8.069
			C250.453,133.332,247.301,130.804,243.805,130.804z M242.211,141.712h-0.035c-1.939,0-2.805-1.87-2.908-3.636
			c0-0.659,0.035-1.039,0.174-1.316c0.346-0.9,1.246-1.628,2.424-1.628c1.904,0,2.631,1.697,2.631,3.256
			C244.496,140.258,243.631,141.712,242.211,141.712z"/>
	</g>
	<path fill="#FF2D1E" d="M266.936,136.275v-12.64h-7.41l-7.41,13.229v3.982h9.246v4.952l0,0h5.574v-4.952h2.355v-4.571H266.936z
		 M261.361,132.466v3.81l0,0h-3.879l0.035-0.069l1.801-3.706c0.797-1.523,1.385-2.943,2.078-4.467h0.104
		C261.43,129.592,261.361,131.046,261.361,132.466z"/>
</g>
</svg>
