<?xml version="1.0" encoding="utf-8"?>
<!-- Generator: Adobe Illustrator 16.0.0, SVG Export Plug-In . SVG Version: 6.00 Build 0)  -->
<svg version="1.2" baseProfile="tiny" id="Layer_1" xmlns="http://www.w3.org/2000/svg" xmlns:xlink="http://www.w3.org/1999/xlink"
	 x="0px" y="0px" width="283.465px" height="283.465px" viewBox="0 0 283.465 283.465" xml:space="preserve">
<g id="g17824" transform="translate(-163.83496,-501.46593)">
	<g id="g17814">
		<path id="path5474" fill="#00A887" d="M337.425,554.008l-0.035,39.4c6.624-1.942,15.677-3.71,27.747-5.341v-34.025
			L337.425,554.008z"/>
		<path id="path5478" fill="#00A887" d="M273.987,732.388l0.036-41.482c-6.591,1.943-15.678,3.746-27.748,5.377v36.105H273.987z"/>
		<path id="path5480" fill="#00A887" d="M246.344,554.043v131.521c9.711-0.275,18.209-0.9,27.053-4.16l0.071-127.36H246.344z"/>
		<path id="path5484" fill="#00A887" d="M364.582,732.388V598.162c-9.711,0.313-18.209,0.936-27.054,4.196l-0.07,130.03H364.582z"/>
		<path id="path5526" fill="#1E4CA1" d="M332.985,679.876c-43.459,17.135-90.907,32.395-138.563,20.359
			c-6.139-1.561-12.174-5.168-14.879-11.445c-5.376-12.625,5.063-23.551,13.18-31.943c14.22-14.672,31.285-24.383,48.592-34.199
			l36.834-16.892c43.459-17.134,90.907-32.395,138.563-20.359c6.174,1.561,12.209,5.168,14.879,11.48
			c5.377,12.591-5.063,23.551-13.18,31.944c-14.186,14.671-31.285,24.347-48.592,34.199L332.985,679.876z M369.819,636.764
			c6.972-5.237,14.221-9.851,18.278-17.966c1.908-3.851,1.109-8.672-3.469-9.816c-29.238-7.388-56.777,3.677-84.386,11.932
			c-7.665,2.324-14.948,5.271-22.094,8.706l-36.8,19.249c-7.006,5.238-14.255,9.885-18.313,18.002
			c-1.908,3.814-1.11,8.672,3.468,9.814c29.238,7.354,56.812-3.711,84.386-11.965c7.665-2.289,14.948-5.238,22.094-8.672
			L369.819,636.764z"/>
	</g>
	<path id="path5530" fill="#00A887" d="M273.467,655.771v-50.743h-27.088v50.743H273.467z"/>
	<path id="path5532" fill="#00A887" d="M364.582,688.548v-50.708h-27.088v50.708H364.582z"/>
</g>
</svg>
