<?xml version="1.0" encoding="utf-8"?>
<!-- Generator: Adobe Illustrator 16.0.0, SVG Export Plug-In . SVG Version: 6.00 Build 0)  -->
<svg version="1.2" baseProfile="tiny" id="Layer_1" xmlns="http://www.w3.org/2000/svg" xmlns:xlink="http://www.w3.org/1999/xlink"
	 x="0px" y="0px" width="283.465px" height="283.465px" viewBox="370.268 370.268 283.465 283.465" xml:space="preserve">
<g>
	<path fill-rule="evenodd" d="M463.72,491.556c0,6.812,0,21.134,0,22.722c0,2.117-1.193,3.555-3.366,3.555
		c-1.962,0-3.128-1.768-3.128-3.155c0-0.42-0.052-12.685-0.052-23.461c0-1.927,1.59-3.206,3.391-3.206
		C462.369,488.01,463.72,489.588,463.72,491.556L463.72,491.556z M454.177,491.556c0,18.767,0.027,20.175,0.027,23.521
		c0,1.308,0.846,3.186,1.985,4.135c1.141,0.959,2.267,1.617,4.192,1.617c2.09,0,3.261-0.619,4.559-1.827
		c1.249-1.158,1.83-2.727,1.83-4.584c0-1.249-0.047-17.718-0.047-23.151c0-2.836-2.257-6.281-5.998-6.281
		C457.333,484.984,454.177,487.031,454.177,491.556L454.177,491.556z"/>
	<path fill-rule="evenodd" d="M573.747,480.36c2.067,0.05,5.993,1.258,6.033,5.553c0.039,4.744-0.04,7.97-0.04,9.179
		c0,1.218,0,2.167-1.538,2.117c-1.379-0.051-5.503-0.051-6.422-0.051c-0.779-0.01-1.648-0.27-1.608-1.758
		c0.021-0.858,0.27-1.837,0.021-4.664c-0.229-2.616-1.897-5.603-5.513-5.513c-2.848,0.07-5.414,1.788-5.674,5.893
		c-0.1,1.548,0.01,17.068-0.05,24.05c-0.02,3.485,2.917,5.902,5.772,5.902c2.308,0,4.404-1.748,5.145-3.556
		c0.729-1.777,0.369-6.472,0.369-6.682c0-1.118,0.43-1.638,1.438-1.638c1.029-0.01,5.434-0.02,5.933-0.02
		c0.63,0,2.287-0.23,2.287,1.927c0,2.447-0.06,5.334-0.06,8.01c0,3.955-2.757,6.093-4.824,6.093c-1.468,0-18.297,0-19.664,0
		c-4.465,0-5.863-3.806-5.863-5.963c0-7.909,0.08-30.411,0.02-33.218c-0.049-2.816,2.627-5.662,5.324-5.712
		C557.538,480.25,571.68,480.311,573.747,480.36L573.747,480.36z M547.391,482.258c-1.128,2.277-0.849,3.605-0.849,4.664
		c0,6.821,0.011,31.42,0.021,32.668c0.049,5.204,4.434,8.6,9.028,8.539c5.753-0.029,16.929,0,19.195,0
		c4.714,0,8.03-4.604,8.03-7.909c-0.011-3.926,0.05-9.009,0.05-10.447c0-2.228-1.299-3.646-2.866-3.605
		c-2.737,0.09-7.211-0.06-10.188-0.02c-2.197,0.03-2.587,2.047-2.587,4.055c0,2.956,0.149,3.386,0.149,4.454
		c0,1.219-0.519,3.336-2.536,3.336s-2.816-1.468-2.816-3.715c0-1.408,0-21.383-0.05-23.012c-0.04-1.248,0.849-3.086,2.696-3.056
		c1.647,0.021,2.567,1.358,2.557,2.577c-0.04,2.337-0.05,3.266-0.06,5.992c0,2.077,1.328,3.396,3.235,3.396
		c1.169,0,7.121-0.02,9.238-0.02c2.118,0,3.177-1.269,3.116-3.745c-0.05-2.487-0.029-4.255-0.029-10.438
		c0-3.136-2.317-8.769-8.72-8.769c-2.167,0-15.001-0.04-19.245,0C551.166,477.244,548.659,479.681,547.391,482.258L547.391,482.258z
		"/>
	<path fill-rule="evenodd" d="M536.256,480.35c1.508,0,1.487,1.199,1.487,1.538c0-1.148,0,4.395,0,5.453
		c0,1.069-0.22,1.368-1.538,1.329c-1.857-0.051-12.744,0.02-14.392,0.02c-3.745,0-5.124,3.476-5.073,4.863
		c0.109,2.777,2.066,5.104,5.303,5.164c3.236,0.05,8.379-0.03,10.977-0.021c4.454,0,6.371,2.178,6.371,6.682
		c0,5.184-0.01,11.286-0.01,13.893c0,4.764-4.254,5.853-5.373,5.853c-1.108,0-22.616-0.02-24.054-0.02
		c-1.428,0-1.378-1.009-1.378-2.228c0-1.229-0.03-2.537-0.02-4.564c0-1.108,0.819-1.488,1.768-1.488c5.179,0,12.839,0,16.015,0
		c1.648,0,4.824-1.378,4.773-4.983c-0.029-1.798-1.588-4.874-4.773-4.874c-2.258,0-6.562,0-11.455,0
		c-3.851,0-6.257-2.387-6.257-6.151c0-3.766,0.02-11.666,0.02-14.632c0-3.276,2.546-5.833,5.817-5.833
		C519.866,480.34,533.868,480.35,536.256,480.35L536.256,480.35z M505.534,485.523c-0.005,3.365,0.025,12.903,0.025,14.762
		c0,6.571,4.305,9.707,9.273,9.707c4.934-0.01,8.27-0.01,10.656-0.01c2.388,0,2.657,1.168,2.657,2.018
		c0,0.849-0.799,1.857-2.067,1.857c-1.338,0-16.584,0-17.922,0c-1.383,0-2.651,1.389-2.651,2.866c-0.005,2.377,0,6.252,0,8.43
		c0,2.177,2.277,3.026,3.341,3.026c1.059,0,22.147-0.07,26.461-0.021c2.457,0.03,4.645-2.048,5.283-2.946
		c0.479-0.659,1.867-2.557,1.867-5.473c0-6.063,0.02-17.538-0.039-15.111c0.069-2.696-1-4.903-2.238-6.202
		c-0.928-0.969-2.966-2.806-6.411-2.806c-3.456,0-8.948,0-12.095,0c-1.358,0-1.857-1.069-1.857-2.128
		c0-0.739,0.559-1.798,2.227-1.798c5.233,0,14.691,0,15.96,0c1.278,0,2.577-1.139,2.677-2.547c0.09-1.397-0.01-7.16-0.02-8.908
		c-0.011-1.678-1.09-3.046-4.105-2.986c-1.768,0.02-15.261,0.05-22.302,0C509.754,477.204,505.534,481.039,505.534,485.523
		L505.534,485.523z"/>
	<path fill-rule="evenodd" d="M496.591,480.35c0.639-0.01,1.458,0.39,1.458,1.559c0,32.698,0.03,38.841,0.03,41.117
		c0,2.287-0.849,2.078-1.428,2.078c-0.584,0-6.277,0.02-7.85,0.02c-0.844,0-1.431-0.399-1.431-1.828
		c0-3.814,0.053-39.34,0.053-41.147c-0.015-1.139,0.272-1.798,1.538-1.798C489.058,480.35,494.114,480.35,496.591,480.35
		L496.591,480.35z M484.506,480.51c0,1.269,0.022,42.846,0.022,44.014c0,2.447,1.421,3.646,3.318,3.656
		c5.063,0,9.009-0.011,10.552-0.011c1.907,0,2.707-2.087,2.646-3.595c-0.03-1.069-0.05-25.668-0.05-43.595
		c0-2.776-1.508-3.785-3.201-3.785c-1.803,0-6.856,0.05-10.267,0.06C485.176,477.273,484.506,479.231,484.506,480.51L484.506,480.51
		z"/>
	<path fill-rule="evenodd" d="M554.183,468.575c-1.06,0-2.128,0-3.187,0c0.52-1.768,1.169-3.925,1.618-5.493
		C553.144,464.71,553.673,466.728,554.183,468.575L554.183,468.575z M545.933,473.759c1.408,0,2.667,0,3.456,0
		c0.35-1.169,0.709-2.218,0.918-2.907c0.8,0,3.976,0,4.615,0c0.189,0.66,0.699,2.497,0.849,2.887c1.108,0,2.847,0,3.466,0
		c-0.32-1.188-3.596-12.414-4.176-13.952c-1.107,0.021-3.774-0.02-4.973,0C549.408,461.953,546.342,472.4,545.933,473.759
		L545.933,473.759z"/>
	<path fill-rule="evenodd" d="M542.198,463.412c0.4,0.289,0.529,2.706,0.08,3.365c-0.449,0.669-3.115,0.43-4.504,0.43
		c0.02-1.229-0.03-2.996,0-4.195C539.841,463.012,541.449,462.862,542.198,463.412L542.198,463.412z M534.298,473.738
		c1.128,0,2.337,0.021,3.466,0.021c0-0.999-0.021-2.427,0.01-3.276c0.499,0.04,2.137,0.03,3.386,0
		c2.058-0.04,3.954-0.279,4.534-1.428c0.529-1.049,0.449-3.985,0.35-5.384c-0.08-0.938-0.03-1.817-0.59-2.546
		c-0.34-0.45-0.609-0.81-1.578-1.149c-1.578-0.569-6.361-0.189-9.558-0.189C534.328,464.171,534.298,472.54,534.298,473.738
		L534.298,473.738z"/>
	<path fill-rule="evenodd" d="M513.934,459.786c0.818,0,3.436,0,5.203,0c1.698,4.764,3.066,8.629,3.565,10.138
		c0.829-2.228,1.688-4.675,3.506-10.138c1.708-0.02,3.485,0,5.173,0c0,4.744,0,12.664,0,13.952c-0.719,0.03-1.938,0.021-3.475,0
		c-0.01-1.438,0-7.58,0-9.987c-0.689,1.857-1.688,4.754-3.477,9.987c-1.158,0-2.227,0.021-3.395,0.021
		c-1.498-4.235-2.917-8.229-3.496-10.058c-0.03,0.898,0,6.781,0,10.037c-1.148,0-2.457,0.021-3.605,0.021
		C513.944,469.514,513.914,461.084,513.934,459.786L513.934,459.786z"/>
	<path fill-rule="evenodd" d="M475.837,462.822c1.323-0.03,1.388,0.969,1.406,1.408c0.033,0.809,0.03,58.096,0.03,59.095
		c0,1.219-0.35,1.808-1.688,1.798c-13.473-0.05-23.69-0.02-25.703-0.02c-2.492,0-5.728-1.988-5.728-5.623
		c-0.058-17.508,0.092-32.209,0.055-34.017c-0.055-2.438,2.606-5.174,5.378-5.174c4.17,0.01,11.059,0.01,13.815,0
		c2.072,0,3.346-1.009,3.313-3.525c0.075-6.432,0.075-9.518,0.027-12.215c-0.038-2.177,1.443-1.697,1.882-1.758
		C468.564,462.803,473.982,462.772,475.837,462.822L475.837,462.822z M463.72,462.853c0.07,1.808,0,4.124,0,13.093
		c0.01,0.779-0.552,1.249-1.505,1.249c-0.951,0-8.169-0.021-12.864,0.02c-4.509,0.03-8.192,4.494-8.192,7.671
		c0.04,16.398-0.025,29.752-0.025,34.485c0,4.844,3.256,7.221,5.618,8.17c1.613,0.64,3.893,0.629,6.152,0.629
		c3.056,0,16.444-0.029,23.462,0.011c4.282,0.02,4.025-3.166,4.025-4.186c0-0.688-0.02-13.492-0.02-60.982
		c0-0.319,0-3.235-3.183-3.235c-1.96,0-7.176-0.101-10.816,0C465.276,459.796,463.643,460.925,463.72,462.853L463.72,462.853z"/>
	<path fill-rule="evenodd" d="M507.567,462.973c0.1,0.039,0.479,0.1,0.544,0.738c0.195,1.738,0.235,5.203,0.015,6.263
		c-0.115,0.539-0.37,0.669-0.739,0.719c-1.068,0.12-2.956,0.22-3.665-0.06c-0.37-0.141-0.56-0.36-0.609-0.709
		c-0.205-1.519-0.21-5.434-0.1-6.103c0.1-0.659,0.304-0.739,0.769-0.849C504.841,462.713,506.903,462.752,507.567,462.973
		L507.567,462.973z M499.562,461.863c-0.365,1.289-0.245,7.4-0.105,9.328c0.13,1.748,1.273,2.168,1.803,2.337
		c1.753,0.55,5.913,0.67,8.265,0.13c2.107-0.489,2.107-1.638,2.207-2.387c0.24-1.857,0.2-7.62-0.08-9.408
		c-0.18-1.128-0.799-1.428-1.698-1.777c-1.598-0.629-5.913-0.68-8.245-0.11C500.076,460.375,499.872,460.765,499.562,461.863
		L499.562,461.863z"/>
	<path fill-rule="evenodd" d="M491.637,459.557c0.824-0.03,2.107,0.05,3.266,0.319c1.308,0.29,2.167,1.049,2.272,1.928
		c0.085,0.709,0.165,1.897,0.165,3.216c-1.169,0-2.687,0.02-3.531-0.01c-0.085-0.77,0.025-1.358-0.235-1.748
		c-0.344-0.499-4.526-0.659-4.934,0c-0.195,0.319-0.18,1.119-0.209,1.538c-0.087,1.148-0.177,4.764,0.237,5.443
		c0.405,0.649,4.267,0.739,4.796,0.1c0.24-0.279,0.33-1.278,0.345-1.728c1.024,0,2.382,0.01,3.531,0.01
		c0,1.019,0.05,1.997-0.15,2.797c-0.3,1.268-0.654,1.717-1.603,2.027c-1.713,0.549-6.569,0.769-8.711,0.029
		c-0.937-0.319-1.708-0.52-1.865-2.018c-0.439-4.185-0.077-8.349,0.025-9.548c0.132-1.538,1.701-1.987,2.939-2.146
		C489.265,459.586,490.739,459.586,491.637,459.557L491.637,459.557z"/>
	<path fill-rule="evenodd" d="M566.367,459.616c0.828-0.03,2.117,0.05,3.266,0.31c1.309,0.3,2.167,1.049,2.277,1.938
		c0.09,0.709,0.159,1.878,0.159,3.187c-1.168,0-2.507,0-3.575,0c0-0.8,0-1.139-0.189-1.729c-0.18-0.579-4.385-0.688-4.694-0.13
		c-0.18,0.33-0.31,0.479-0.37,1.509c-0.069,1.148-0.259,4.924,0.16,5.593c0.4,0.659,4.265,0.749,4.805,0.109
		c0.229-0.289,0.299-1.308,0.309-1.747c1.029,0,2.388,0,3.536,0c-0.11,1.019-0.08,1.787-0.229,2.826
		c-0.12,0.869-0.55,1.718-1.498,2.027c-1.719,0.539-6.572,0.769-8.719,0.03c-0.93-0.32-1.709-0.52-1.858-2.027
		c-0.439-4.175-0.079-8.34,0.021-9.538c0.14-1.538,1.707-1.987,2.945-2.157C564,459.646,565.468,459.637,566.367,459.616
		L566.367,459.616z"/>
	<polygon fill-rule="evenodd" points="572.868,459.786 582.836,459.786 582.836,463.541 579.58,463.531 579.58,473.738 
		576.045,473.738 576.045,463.562 572.868,463.562 572.868,459.786 	"/>
	<g>
		<path d="M505.27,554.556c-0.399,0.629-0.654,1.618-0.41,2.566c1.059,4.095,7.93,2.058,9.124-0.579
			c0.489-1.078,0.3-3.136,0.29-4.594C511.701,552.928,506.638,552.429,505.27,554.556z"/>
		<path d="M484.164,545.317c-1.406,0.1-2.497,0.609-3.276,1.339c-0.582,0.549-1.154,1.428-1.461,2.227
			c-0.27,0.689-0.415,1.548-0.527,2.396c3.423-0.029,7.281-0.029,10.792-0.029c0-1.408-0.24-2.507-0.734-3.426
			C488.189,546.406,486.499,545.147,484.164,545.317z"/>
		<path d="M571.112,545.377c-1.528,0.04-2.537,0.529-3.356,1.259c-0.659,0.569-1.188,1.269-1.558,2.127
			c-0.31,0.76-0.639,1.897-0.639,2.577c0.908,0,7.26,0,10.735,0c0-1.299-0.229-2.517-0.679-3.396
			C574.906,546.556,573.248,545.308,571.112,545.377z"/>
		<path d="M582.406,538.277c0.004,0.123,0.01,0.239,0.01,0.368C582.416,537.812,582.412,537.77,582.406,538.277z"/>
		<path d="M576.384,533.103c-4.324,0-126.187-0.01-130.112-0.01c-4.662,0-4.736,2.927-4.676,4.974c0.057,2.157,0,20.114,0,22.741
			c0,2.637,2.284,3.626,4.384,3.626c1.98,0,21.183,0,132.262,0c-0.051,0.01,0.109,0,0.06,0c2.996,0.239,3.985-2.228,3.985-4.275
			c0-1.715,0.09-19.257,0.119-21.881C582.313,534.037,580.587,533.103,576.384,533.103z M447.034,560.578c0-7.61,0-15.41,0-22.921
			c0.722,0,1.44,0,2.162,0c-0.06,8.898,0.047,21.203,0.047,22.921C448.574,560.578,447.606,560.618,447.034,560.578z
			 M466.736,551.52c0,3.036,0,6.072,0,9.118c-0.624,0-1.548,0-1.867,0c0.03-2.716,0.045-8.878,0.03-10.756
			c-0.022-1.998-0.472-4.574-4.038-4.564c-0.739,0-2.367-0.04-3.683,1.208c-1.026,0.969-1.703,2.747-1.695,3.865
			c0.02,3.217-0.03,7.241-0.03,10.188c-0.512,0.04-1.358,0.04-1.873,0c0-8.39,0-14.911,0-16.549c0.584,0,1.289,0,1.873,0
			c-0.035,1.028,0,1.458-0.028,2.307c1.369-1.148,2.367-2.337,4.529-2.717c1.276-0.219,3.046,0.07,4.415,0.879
			c0.956,0.56,1.673,1.448,1.99,2.277C466.826,548.014,466.736,549.842,466.736,551.52z M475.862,560.698
			c-1.296,0.249-3.111,0.619-4.155-0.181c-0.417-0.319-0.909-1.447-0.934-2.427c0.01,0.46,0-7.729,0-12.483
			c-0.646-0.051-1.541,0-2.28,0c-0.055-0.37,0-1.179,0-1.639c0.921,0,1.661,0,2.334,0c0-0.609,0.003-3.705-0.025-4.494
			c0.937,0,1.401-0.06,1.9,0c0,1.498,0,2.996,0,4.494c0.899,0,2.015,0.03,3.008,0.03c0.042,0.38,0,1.118,0,1.588
			c-0.836,0-2.165-0.08-3.068,0c0,4.654,0.025,9.188,0.025,11.726c0,2.486,1.96,2.127,3.193,1.808
			C475.909,559.549,475.892,560.269,475.862,560.698z M479.308,555.545c0.427,1.298,1.106,2.337,2.167,2.985
			c3.181,1.958,7.238,0.38,8.127-3.006c0.722,0.03,1.011-0.03,1.925-0.03c-0.469,2.317-1.962,4.245-3.913,5.084
			c-1.23,0.52-3.256,0.649-4.793,0.35c-1.171-0.229-2.053-0.489-2.867-1.049c-1.693-1.168-2.569-3.046-2.954-5.563
			c-0.859-5.594,1.848-10.098,6.579-10.697c2.31-0.289,4.162,0.55,5.321,1.459c1.246,0.988,2.077,2.477,2.452,4.334
			c0.205,0.989,0.325,2.037,0.325,3.296c-4.267,0-8.477-0.03-12.746-0.03C478.931,553.816,479.043,554.735,479.308,555.545z
			 M501.615,545.637c-1.059,0.09-2.137,0.21-2.946,0.67c-2.152,1.218-2.507,4.284-2.467,7.311c0.03,2.457-0.05,4.644-0.05,7.021
			c-0.524,0.05-1.199,0-1.813,0c0-5.153,0-10.756,0-16.549c0.604,0,1.313,0.03,1.873,0c0,1.049-0.03,2.067,0,3.126
			c0.739-1.967,2.327-3.635,5.403-3.625C501.619,544.408,501.615,544.658,501.615,545.637z M518.248,560.668
			c-2.517,0.649-3.506,0.09-3.915-2.197c-1.653,1.349-2.841,2.337-5.668,2.627c-2.766,0.289-4.943-1.02-5.672-2.977
			c-0.459-1.219-0.26-2.876,0.229-3.855c1.378-2.766,5.003-2.796,8.539-3.396c0.928-0.159,1.883-0.149,2.282-0.818
			c0.311-0.529,0.359-1.559,0.18-2.287c-0.658-2.558-5.178-3.216-7.255-1.688c-1.249,0.909-1.523,2.457-1.523,2.927
			c-0.754,0-1.159,0-1.928,0c0-0.729,0.17-1.358,0.35-1.817c0.854-2.128,2.802-3.346,5.728-3.566c1.338-0.1,2.546,0.16,3.451,0.47
			c2.357,0.779,3.195,2.646,3.216,4.994c0.021,2.866-0.06,5.972,0,9.388c0.03,1.148,0.979,1.028,1.987,0.759
			C518.248,559.719,518.298,560.269,518.248,560.668z M529.844,560.498c-1.339,0.569-3.256,0.77-4.864,0.43
			c-3.705-0.789-5.343-4.055-5.543-7.61c-0.26-4.475,2.138-9.408,7.091-9.618c2.687-0.109,4.594,0.41,5.942,2.607
			c0.52,0.849,0.859,1.817,1.049,2.985c-0.609,0-1.328,0.05-1.848,0c-0.35-1.158-0.769-2.207-1.578-2.896
			c-1.448-1.219-3.296-1.309-4.833-0.789c-1.498,0.509-2.478,1.538-3.027,2.846c-0.589,1.408-0.738,3.106-0.729,4.974
			c0.01,1.838,0.659,3.825,1.867,4.845c1.668,1.397,3.936,1.607,5.623,0.778c1.719-0.839,2.518-3.116,2.746-4.244
			c0.65,0,1.18,0,1.818,0C533.169,557.442,531.951,559.589,529.844,560.498z M542.168,560.808c-1.248,0.26-2.957,0.51-4.016-0.22
			c-0.639-0.449-1.038-1.208-1.038-2.526c0-0.709,0-7.511,0-12.395c-0.949,0-1.438,0-2.317,0c0-0.51,0-1.039,0-1.548
			c0.659-0.01,1.568,0,2.317,0c0-3.017,0-3.516,0-4.595c1.048,0.03,1.229,0,1.837,0c0.011,1.438,0,3.137,0,4.624
			c0.989,0,2.117,0.021,3.076,0c0,0.51-0.01,1.039-0.01,1.549c-0.979,0-2.037,0-3.036,0c0,5.813-0.03,10.287,0,12.174
			c0.011,0.42,0.181,0.909,0.489,1.139c0.649,0.489,1.818,0.43,2.697,0.28C542.168,559.799,542.168,560.309,542.168,560.808z
			 M546.143,560.688c-0.619,0-1.379,0.011-2.008,0.011c0-5.503,0-15.82,0-16.55c0.789,0.021,1.539,0,2.008,0
			C546.143,547.435,546.143,555.185,546.143,560.688z M556.43,560.688c-0.699,0-1.398,0.03-2.098,0
			c-0.818-2.217-5.793-15.34-6.202-16.539c1.318,0.03,1.288,0,1.938,0c1.239,3.047,2.347,6.253,3.565,9.299
			c0.649,1.628,1.309,3.825,1.867,4.794c0.59-1.578,4.885-13.044,5.324-14.093c0.849,0,1.278,0,1.928,0
			C562.711,544.269,558.507,555.234,556.43,560.688z M578.302,552.857c-4.245,0-8.499,0-12.743,0c0,0.909,0.079,1.729,0.289,2.457
			c0.409,1.438,1.219,2.607,2.337,3.336c3.046,1.958,6.771,0.29,7.78-2.396c0.09-0.25,0.04-0.34,0.12-0.59c0.698,0,1.408,0,2.106,0
			c-0.648,2.128-1.817,4.085-3.745,4.914c-1.238,0.529-3.325,0.759-5.023,0.47c-4.245-0.739-6.192-4.954-5.923-9.039
			c0.27-4.055,2.717-7.989,7.262-8.329c2.167-0.16,4.024,0.689,5.083,1.697c0.779,0.729,1.488,1.838,1.878,2.917
			C578.162,549.512,578.472,551.34,578.302,552.857z"/>
	</g>
</g>
</svg>
