<?xml version="1.0" encoding="utf-8"?>
<!-- Generator: Adobe Illustrator 16.0.0, SVG Export Plug-In . SVG Version: 6.00 Build 0)  -->
<svg version="1.2" baseProfile="tiny" id="Layer_1" xmlns="http://www.w3.org/2000/svg" xmlns:xlink="http://www.w3.org/1999/xlink"
	 x="0px" y="0px" width="283.465px" height="283.465px" viewBox="0 0 283.465 283.465" xml:space="preserve">
<path id="path1" fill="#FFFFFF" d="M211.732,224.771h-140c0-70.229,0-95.849,0-166.076h140
	C211.732,128.922,211.732,154.542,211.732,224.771L211.732,224.771z M96.297,192.373l-4.476-4.11H79.896v29.18h12.168l4.232-4.071
	V192.373z M88.85,211.907h-1.505v-18.11h1.505V211.907z M115.262,188.263h-7.244l-1.343,20.673h-0.407l-1.587-20.673h-7.244
	l3.866,29.18h10.581L115.262,188.263z M133.575,192.373l-4.477-4.11h-11.924v29.18h12.167l4.233-4.071V192.373z M126.128,211.907
	h-1.506v-18.11h1.506V211.907z M142.244,200.918h-7.041v3.99h7.041V200.918z M159.824,192.373l-4.232-4.11h-11.517v29.18h7.244
	v-11.722h1.465v11.722h7.04v-11.722l-3.134-2.808l3.134-2.727V192.373z M152.784,200.187h-1.465v-6.39h1.465V200.187z
	 M179.358,192.373l-4.558-4.11h-7.488l-4.313,4.11v20.998l4.313,4.071h7.813l4.232-4.071V192.373z M171.911,211.907h-1.465v-18.11
	h1.465V211.907z M195.8,188.263l-2.238,14.487h-0.447l-2.239-14.487h-7.976v29.18h6.796l-0.285-15.017h0.326l2.319,15.017h2.564
	l2.319-15.017h0.325l-0.285,15.017h6.797v-29.18H195.8z M138.806,82.375l-17.145-15.189H80.303V175.02h26.77v-36.697h14.588
	l17.145-14.739V82.375z M112.036,117.868h-4.963V87.64h4.963V117.868z M203.776,82.375l-15.49-15.189H159.41l-15.49,15.189v77.604
	l18.348,15.04h24.966l16.543-15.04v-30.981h-26.77v25.567h-5.565V87.64h5.565v21.355h26.77V82.375z"/>
</svg>
