<?xml version="1.0" encoding="utf-8"?>
<!-- Generator: Adobe Illustrator 16.0.0, SVG Export Plug-In . SVG Version: 6.00 Build 0)  -->
<svg version="1.2" baseProfile="tiny" id="Layer_1" xmlns="http://www.w3.org/2000/svg" xmlns:xlink="http://www.w3.org/1999/xlink"
	 x="0px" y="0px" width="283.465px" height="283.465px" viewBox="0 0 283.465 283.465" xml:space="preserve">
<g>
	<g>
		<path fill="#FF0000" d="M51.275,167.308c-0.114,0-0.229-0.024-0.339-0.078c-15.118-7.337-22.926-15.86-22.579-24.649
			c0.282-7.228,6.215-14.072,17.16-19.791c10.448-5.459,25.193-9.794,42.643-12.534c0.424-0.067,0.822,0.224,0.89,0.647
			c0.066,0.425-0.224,0.823-0.648,0.89c-35.554,5.583-57.965,17.404-58.489,30.849c-0.161,4.047,1.656,8.109,5.399,12.076
			c3.698,3.918,9.183,7.656,16.304,11.113c0.386,0.188,0.547,0.652,0.36,1.04C51.84,167.147,51.564,167.308,51.275,167.308z"/>
	</g>
	<g>
		<path fill="#FF0000" d="M184.045,112.57c-0.041,0-0.082-0.003-0.126-0.01c-11.259-1.85-23.146-3.083-35.333-3.667
			c-0.428-0.021-0.76-0.385-0.739-0.814c0.021-0.429,0.385-0.756,0.813-0.74c12.247,0.586,24.194,1.826,35.513,3.685
			c0.423,0.07,0.71,0.47,0.641,0.894C184.751,112.3,184.42,112.57,184.045,112.57z"/>
	</g>
	<g>
		<path fill="#FF0000" d="M150.433,185.503c-0.298,0-0.595-0.001-0.895-0.001c-0.431-0.001-0.777-0.351-0.775-0.78
			c0.001-0.43,0.349-0.776,0.778-0.776h0.001c28.128,0.081,54.294-3.427,73.699-9.863c19.26-6.387,30.026-15.038,30.315-24.36
			c0.214-6.793-5.203-13.66-15.664-19.858c-10.349-6.131-25.17-11.356-42.86-15.108c-0.421-0.089-0.69-0.502-0.601-0.922
			c0.088-0.42,0.503-0.689,0.922-0.6c17.856,3.786,32.839,9.075,43.331,15.292c10.979,6.504,16.66,13.851,16.427,21.243
			c-0.312,10.023-11.457,19.183-31.38,25.791C204.377,181.979,178.377,185.502,150.433,185.503z"/>
	</g>
	<polygon fill="#FF0000" points="169.772,130.198 197.963,108.709 164.852,121.926 155.545,112.241 158.513,125.662 130.321,147.15 
		163.433,133.93 172.737,143.616 	"/>
	<g>
		<path fill="#FF0000" d="M134.465,157.025c0.404-1.991,1.141-1.703,3.159-2.022l1.878-0.297l-0.585,3.132l-1.878,0.3
			C135.021,158.457,134.133,158.998,134.465,157.025z M130.394,154.158l-1.461,7.864c-0.401,2.145,0.248,2.839,2.313,2.51
			l11.964-1.897l2.563-13.789l-11.964,1.893C131.743,151.066,130.79,152.01,130.394,154.158z M206.336,141.746l-0.141,0.761
			l12.339-1.959c0.974-0.156,1.924-1.141,2.124-2.206c0.195-1.065-0.433-1.802-1.406-1.646l-3.171,0.501l-5.056,0.805l-1.283,0.2
			C208.261,138.438,206.636,140.128,206.336,141.746z M119.759,177.305l0.1-0.551c0.425,0.034,0.993,0.197,1.489,0.123l12.825-2.011
			c-0.477,2.559-3.856,3.199-9.013,4.016l-5.87,0.933l-3.146,16.924l7.711-1.221c18.986-1.874,26.21-11.687,28.528-23.386
			l23.135-3.672l3.727-20.06l1.883-0.3c2.063-0.328,1.758-0.702,1.36,1.44l-3.411,18.354l16.608-2.634l0.229-1.217
			c1.253,0.552,2.719,0.748,4.269,0.505l28.723-4.557l2.679-14.42l-1.861-1.324c1.614-1.91,2.87-4.249,3.236-6.21l0.451-2.274
			c1.433-8.505-6.406-10.763-9.985-10.194l-16.484,2.614c-2.92,0.465-6.135,2.499-8.473,5.194c-2.162-2.143-5.501-2.975-7.443-2.667
			l-18.35,2.911l2.055,4.541l16.551-2.623c2.388-0.38,3.98,0.573,4.418,2.463c-0.178,0.5-4.418,23.089-4.418,23.089l-5.933,0.942
			l3.18-17.103c0.396-2.141-0.253-2.833-2.315-2.506l-11.372,1.807l-3.729,20.06l-6.524,1.038l4.269-22.968l-5.368-6.335
			l-19.332,6.988l9.161-1.454l0.148-0.021l-5.826,31.343c-1.481,7.963-9.978,15.575-17.513,16.772l-7.711,1.221l1.169-6.271
			l5.866-0.929c5.157-0.821,10.962-5.981,11.963-11.379l0.633-3.396l-15.275,2.422c-3.274,0.521-5.052-1.469-4.407-4.928
			l2.738-14.735c0.484-2.618,2.119-4.794,4.305-5.921l0.036-0.395l7.664-5.896l-4.477,0.753c-2.382,0.376-6.799,2.162-9.606,5.741
			c-2.122-2.529-5.833-3.523-7.924-3.191l-16.464,2.615l2.683-14.421l12.012-1.906c6.394-1.013,13.469-8.205,14.726-14.958
			l1.806-9.718c1.257-6.759-3.495-12.072-9.889-11.059l-26.25,4.164l-5.594,30.093l-24.172,3.836
			c-2.046,0.325-4.036,2.342-4.436,4.505l-9.033,48.588c-0.4,2.161,0.934,3.655,2.98,3.331l46.12-7.32l3.732-20.059l1.877-0.301
			c2.067-0.324,1.762-0.696,1.362,1.445l-3.412,18.351L119.759,177.305z M85.533,166.307l-15.423,2.445l0.58-3.132l12.457-1.978
			l3.031-16.299l-12.457,1.977l0.581-3.135l15.423-2.447L85.533,166.307z M84.601,171.322l-1.281,6.895l-27.287,4.328l8.504-45.764
			l22.542-3.575l-1.166,6.269l-16.016,2.543l-2.445,13.164l13.048-2.069l-1.166,6.267l-13.048,2.069l-2.451,13.169L84.601,171.322z
			 M115.943,173.044l-6.526,1.032l3.179-17.098c0.4-2.141-0.249-2.836-2.314-2.508l-11.372,1.805l-3.727,20.06l-6.526,1.037
			l4.893-26.331l0.151-0.022l21.649-3.437c3.275-0.52,5.053,1.467,4.408,4.931L115.943,173.044z M158.356,140.761l6.379-1.008
			l-4.897,26.329l-6.522,1.032l4.895-26.325L158.356,140.761z M197.932,153.169l2.266-12.18c0.717-3.852,4.857-7.635,8.384-8.196
			l15.26-2.418c2.57-0.408,4.356,2.462,3.832,5.273l-0.749,3.92c-0.525,2.81-3.396,5.798-5.966,6.206l-15.839,2.515l-0.228,1.422
			c-0.303,1.616,0.771,2.878,2.252,2.644l17.707-2.82l-1.193,6.423l-19.972,3.167C200.158,159.683,197.22,157.025,197.932,153.169z
			 M103.531,119.035l2.214-11.911l8.304-1.318c1.089-0.172,1.646,0.449,1.43,1.598l-1.514,8.153
			c-0.216,1.152-1.041,1.989-2.129,2.161L103.531,119.035z"/>
		<g>
			<path fill="#FF0000" d="M156.611,124.609l-1.764-6.983l-0.991,0.12l-0.321,1.722c-0.22,1.192-1.181,2.166-2.306,2.346
				l-6.821,1.081c-1.125,0.181-1.771-0.54-1.551-1.733l3.439-18.495c0.221-1.189,1.182-2.162,2.307-2.343l6.822-1.081
				c1.125-0.18,1.77,0.541,1.55,1.73l-0.441,2.354l13.795-2.19l0.524-2.819c1.32-7.115-3.516-12.524-10.25-11.459l-13.196,2.094
				c-6.732,1.069-13.939,8.389-15.261,15.503l-3.67,19.748c-1.322,7.115,3.514,12.525,10.25,11.456l4.412-0.696L156.611,124.609z"/>
			<path fill="#FF0000" d="M166.388,120.396c0.36-0.969,0.609-1.336,0.794-2.33l0.469-2.509l-5.491,0.872L166.388,120.396z"/>
		</g>
	</g>
</g>
</svg>
