<?xml version="1.0" encoding="utf-8"?>
<!-- Generator: Adobe Illustrator 16.0.0, SVG Export Plug-In . SVG Version: 6.00 Build 0)  -->
<svg version="1.2" baseProfile="tiny"
	 id="svg41117" xmlns:dc="http://purl.org/dc/elements/1.1/" xmlns:svg="http://www.w3.org/2000/svg" xmlns:rdf="http://www.w3.org/1999/02/22-rdf-syntax-ns#" xmlns:cc="http://creativecommons.org/ns#"
	 xmlns="http://www.w3.org/2000/svg" xmlns:xlink="http://www.w3.org/1999/xlink" x="0px" y="0px" width="1200px" height="1200px"
	 viewBox="0 0 1200 1200" overflow="scroll" xml:space="preserve">
<g>
	<path fill="#FFFFFF" d="M539.271,554.9c-1.297-0.107-19.187-1.659-21.645-1.914c-11.879-1.227-16.845-13.615-16.845-21.486v-6.02
		c0-7.755,2.516-23.689,21.958-23.689c12.248,0,40.482,0,40.482,0l-0.01-18.491c0,0-27.305,0-46.313,0
		c-33.74,0-44.918,27.754-44.918,42.453v10.155c0,12.076,8.336,38.271,36.845,41.529c3.197,0.363,10.578,0.896,14.263,1.191
		c13.71,1.106,19.651,11.438,19.651,22.454c0,3.13-0.056,7.313-0.056,9.029c0,20.673-13.383,25.164-20.991,25.164
		c-7.446,0-43.212,0-43.212,0v18.237c0,0,41.903,0,54.685,0c24.771,0,39.639-20.509,39.639-45.073v-10.618
		C572.805,577.533,559.844,556.646,539.271,554.9z"/>
	<path fill="#FFFFFF" d="M624.902,502.188l-30.231-0.016c0,0,0,99.397,0,115.487c0,14.169,10.342,35.867,34.532,35.867
		c16.422,0,20.091,0,20.091,0V635.3c0,0-1.914,0-13.49,0c-5.726,0-10.895-3.981-10.895-13.596c0-7.4,0-79.33,0-79.33h32.396v-18.479
		h-32.403V502.188L624.902,502.188z"/>
	<path fill="#FFFFFF" d="M217.282,585.656c0,12.677,0.014,6.555,0.014,28.51c0,27.719,18.549,39.376,32.07,39.376
		c18.19,0,30.204,0,30.204,0v-18.267c0,0-10.927,0-19.35,0c-5.543,0-12.734-0.697-12.734-16.991v-36
		c0-37.694,12.69-39.907,21.352-39.907c20.625,0,24.187,0,24.187,0v111.26l29.964-0.076V523.908c0,0-26.026,0-51.349,0
		C252.16,523.908,217.282,527.529,217.282,585.656z"/>
	<polygon fill="#FFFFFF" points="165.321,483.292 165.321,653.521 195.235,653.521 195.231,483.292 	"/>
	<path fill="#FFFFFF" d="M669.396,585.656c0,12.677,0.013,6.555,0.013,28.51c0,27.719,18.55,39.376,32.071,39.376
		c18.189,0,30.202,0,30.202,0v-18.267c0,0-10.926,0-19.35,0c-5.543,0-12.734-0.697-12.734-16.991v-36
		c0-37.694,12.69-39.907,21.352-39.907c20.625,0,24.188,0,24.188,0v111.26l29.964-0.076V523.908c0,0-26.025,0-51.35,0
		C704.274,523.908,669.396,527.529,669.396,585.656z"/>
	<polygon fill="#FFFFFF" points="399.813,609.113 370.867,523.904 339.284,523.904 383.081,652.521 358.439,716.718 
		384.519,716.718 461.362,523.918 432.834,523.918 	"/>
	<path fill="#FFFFFF" d="M107.487,483.282c-26.474,0-73.77,0.036-73.77,0.036V653.52l29.994,0.004V501.818c0,0,23.008,0,35.358,0
		c10.325,0,17.631,12.523,17.631,34.48c0,21.274-6.502,35.224-17.938,35.224c-12.077,0-21.841,0-21.841,0v18.233
		c0,0,16.059-0.004,31.038-0.004c12.813,0,38.726-11.786,38.726-52.751C146.685,493.904,122.005,483.282,107.487,483.282z"/>
	<path fill="#FFFFFF" d="M1114.027,523.91c-25.542,0-53.391,0-53.391,0v129.617l30.407,0.004V542.354c0,0,5.433,0,24.623,0
		c18.754,0,20.547,21.324,20.547,40.777c0,18.582,0,70.393,0,70.393h30.069c0,0,0-55.509,0-70.813
		C1166.284,547.359,1151.549,523.91,1114.027,523.91z"/>
	<path fill="#FFFFFF" d="M985.985,523.918c-52.458,0-55.119,42.029-55.119,57.052v16.729c0,21.925,7.834,55.849,55.85,55.849
		c43.674,0,54.425-30.765,54.425-56.873v-15.615C1041.139,573.438,1041.115,523.918,985.985,523.918z M1010.789,594.476
		L1010.789,594.476c-0.001,25.438-4.467,40.868-24.588,40.868c-17.038,0-25.191-9.206-25.191-41.148v-11.027
		c0-21.719,2.79-40.864,25.014-40.864c21.848,0,24.767,18.294,24.767,40.93L1010.789,594.476L1010.789,594.476z"/>
	<path fill="#FFFFFF" d="M829.999,502.188l-30.229-0.016c0,0,0,99.397,0,115.487c0,14.169,10.34,35.867,34.532,35.867
		c16.42,0,20.089,0,20.089,0V635.3c0,0-1.912,0-13.491,0c-5.724,0-10.895-3.981-10.895-13.596c0-7.4,0-79.33,0-79.33h32.398v-18.479
		h-32.404V502.188L829.999,502.188z"/>
	<rect x="880.832" y="523.908" fill="#FFFFFF" width="29.997" height="129.633"/>
	<rect x="880.832" y="483.282" fill="#FFFFFF" width="29.997" height="25.458"/>
</g>
</svg>
