<?xml version="1.0" encoding="utf-8"?>
<!-- Generator: Adobe Illustrator 16.0.0, SVG Export Plug-In . SVG Version: 6.00 Build 0)  -->
<svg version="1.2" baseProfile="tiny"
	 id="svg41117" xmlns:rdf="http://www.w3.org/1999/02/22-rdf-syntax-ns#" xmlns:cc="http://creativecommons.org/ns#" xmlns:dc="http://purl.org/dc/elements/1.1/" xmlns:svg="http://www.w3.org/2000/svg"
	 xmlns="http://www.w3.org/2000/svg" xmlns:xlink="http://www.w3.org/1999/xlink" x="0px" y="0px" width="1200px" height="1200px"
	 viewBox="0 0 1200 1200" xml:space="preserve">
<g>
	<path d="M539.271,554.9c-1.296-0.107-19.186-1.659-21.644-1.914c-11.879-1.226-16.845-13.615-16.845-21.486v-6.02
		c0-7.754,2.516-23.689,21.958-23.689c12.248,0,40.483,0,40.483,0l-0.01-18.491c0,0-27.305,0-46.314,0
		c-33.74,0-44.918,27.754-44.918,42.453v10.155c0,12.076,8.336,38.271,36.845,41.529c3.197,0.364,10.578,0.896,14.263,1.192
		c13.71,1.106,19.651,11.438,19.651,22.454c0,3.13-0.055,7.313-0.055,9.029c0,20.673-13.383,25.164-20.992,25.164
		c-7.446,0-43.212,0-43.212,0v18.238c0,0,41.904,0,54.685,0c24.771,0,39.639-20.509,39.639-45.074v-10.618
		C572.805,577.533,559.844,556.647,539.271,554.9z"/>
	<path d="M624.902,502.188l-30.231-0.016c0,0,0,99.397,0,115.487c0,14.169,10.342,35.867,34.532,35.867c16.422,0,20.091,0,20.091,0
		v-18.226c0,0-1.914,0-13.49,0c-5.726,0-10.895-3.982-10.895-13.596c0-7.4,0-79.33,0-79.33h32.397v-18.479h-32.404V502.188z"/>
	<path d="M217.282,585.656c0,12.677,0.014,6.555,0.014,28.51c0,27.719,18.549,39.376,32.07,39.376c18.19,0,30.204,0,30.204,0
		v-18.267c0,0-10.927,0-19.35,0c-5.543,0-12.734-0.697-12.734-16.991v-36c0-37.694,12.69-39.907,21.352-39.907
		c20.625,0,24.187,0,24.187,0v111.26l29.964-0.076V523.908c0,0-26.026,0-51.349,0C252.16,523.908,217.282,527.529,217.282,585.656z"
		/>
	<polygon points="165.321,483.292 165.321,653.521 195.235,653.521 195.231,483.292 165.321,483.292 	"/>
	<path d="M669.396,585.656c0,12.677,0.013,6.555,0.013,28.51c0,27.719,18.55,39.376,32.071,39.376c18.19,0,30.203,0,30.203,0
		v-18.267c0,0-10.926,0-19.35,0c-5.543,0-12.734-0.697-12.734-16.991v-36c0-37.694,12.69-39.907,21.351-39.907
		c20.625,0,24.188,0,24.188,0v111.26l29.964-0.076V523.908c0,0-26.026,0-51.35,0C704.274,523.908,669.396,527.529,669.396,585.656z"
		/>
	<polygon points="399.813,609.113 370.867,523.904 339.284,523.904 383.081,652.521 358.439,716.718 384.519,716.718 
		461.362,523.918 432.834,523.918 	"/>
	<path d="M107.487,483.282c-26.474,0-73.77,0.036-73.77,0.036v170.201l29.994,0.004V501.818c0,0,23.008,0,35.358,0
		c10.325,0,17.631,12.524,17.631,34.481c0,21.274-6.502,35.223-17.938,35.223c-12.077,0-21.841,0-21.841,0v18.234
		c0,0,16.059-0.004,31.038-0.004c12.813,0,38.726-11.786,38.726-52.751C146.685,493.904,122.005,483.282,107.487,483.282z"/>
	<path d="M1114.027,523.91c-25.542,0-53.39,0-53.39,0v129.617l30.407,0.004V542.354c0,0,5.433,0,24.623,0
		c18.754,0,20.547,21.324,20.547,40.777c0,18.582,0,70.392,0,70.392h30.069c0,0,0-55.508,0-70.812
		C1166.284,547.359,1151.549,523.91,1114.027,523.91z"/>
	<path d="M985.985,523.918c-52.458,0-55.119,42.029-55.119,57.052v16.728c0,21.925,7.834,55.849,55.85,55.849
		c43.674,0,54.425-30.765,54.425-56.873v-15.615C1041.139,573.437,1041.115,523.918,985.985,523.918z M1010.789,594.476
		L1010.789,594.476c-0.001,25.438-4.467,40.868-24.588,40.868c-17.038,0-25.191-9.206-25.191-41.149v-11.027
		c0-21.719,2.79-40.864,25.013-40.864c21.848,0,24.767,18.294,24.767,40.929V594.476z"/>
	<path d="M829.999,502.188l-30.23-0.016c0,0,0,99.397,0,115.487c0,14.169,10.34,35.867,34.533,35.867c16.42,0,20.089,0,20.089,0
		v-18.226c0,0-1.913,0-13.492,0c-5.723,0-10.894-3.982-10.894-13.596c0-7.4,0-79.33,0-79.33h32.398v-18.479h-32.404V502.188z"/>
	<rect x="880.832" y="523.908" width="29.997" height="129.633"/>
	<rect x="880.832" y="483.282" width="29.997" height="25.458"/>
</g>
</svg>
