<?xml version="1.0" encoding="utf-8"?>
<!-- Generator: Adobe Illustrator 16.0.0, SVG Export Plug-In . SVG Version: 6.00 Build 0)  -->
<svg version="1.2" baseProfile="tiny" id="Layer_1" xmlns="http://www.w3.org/2000/svg" xmlns:xlink="http://www.w3.org/1999/xlink"
	 x="0px" y="0px" width="283.465px" height="283.465px" viewBox="0 0 283.465 283.465" overflow="scroll" xml:space="preserve">
<g>
	<g>
		<path fill="#FFFFFF" d="M177.481,114.5h-33.464c-10.322,0-15.38,6.377-15.38,14.659v25.158c0,5.139-2.428,8.828-7.549,8.828
			H91.817c-0.205,0-0.375,0.17-0.375,0.365v5.076c0,0.207,0.17,0.381,0.375,0.381h33.131c10.318,0,15.389-6.35,15.389-14.635
			v-25.174c0-5.143,2.408-8.84,7.56-8.84h29.585c0.232,0,0.415-0.166,0.415-0.373v-5.069
			C177.896,114.678,177.715,114.5,177.481,114.5z"/>
		<path fill="#FFFFFF" d="M78.975,114.5H14.577c-0.233,0-0.404,0.179-0.404,0.377v5.068c0,0.207,0.17,0.381,0.404,0.381h60.524
			c5.116,0,7.544,3.689,7.544,8.832c0,5.123-2.429,8.804-7.544,8.804H27.221c-7.436,0-13.047,6.246-13.047,14.529v16.082
			c0,0.219,0.169,0.395,0.403,0.395h10.911c0.213,0,0.393-0.176,0.393-0.395V152.49c0-5.107,2.936-8.715,7.196-8.715h45.898
			c10.301,0,15.351-6.33,15.351-14.615C94.325,120.89,89.275,114.5,78.975,114.5z"/>
		<path fill="#FFFFFF" d="M264.495,141.053c-0.145-0.162-0.145-0.439,0-0.599c3.208-2.656,4.795-6.659,4.795-11.294
			c0-8.271-5.039-14.663-15.371-14.663h-64.381c-0.22,0-0.381,0.18-0.381,0.395v5.052c0,0.207,0.161,0.381,0.381,0.381h60.515
			c5.102,0,7.563,3.689,7.563,8.832c0,5.123-2.444,8.803-7.563,8.803h-0.075l-60.438,0.014c-0.221,0-0.381,0.158-0.381,0.39v5.047
			c0,0.203,0.16,0.365,0.381,0.365h60.514c6.673,0.078,7.551,6.576,7.551,9.9l0.014,0.625c0,5.15-2.463,8.855-7.563,8.855H189.54
			c-0.22,0-0.381,0.158-0.381,0.365v5.061c0,0.207,0.161,0.381,0.381,0.381h64.381c10.341,0,15.371-6.863,15.371-14.662v-0.627
			C269.29,148.703,267.703,143.955,264.495,141.053z"/>
	</g>
</g>
</svg>
