<?xml version="1.0" encoding="utf-8"?>
<!-- Generator: Adobe Illustrator 16.0.0, SVG Export Plug-In . SVG Version: 6.00 Build 0)  -->
<svg version="1.2" baseProfile="tiny" id="Layer_1" xmlns="http://www.w3.org/2000/svg" xmlns:xlink="http://www.w3.org/1999/xlink"
	 x="0px" y="0px" width="283.465px" height="283.465px" viewBox="0 0 283.465 283.465" overflow="scroll" xml:space="preserve">
<g>
	<g id="g4695" transform="matrix(12.843235,0,0,-12.843235,544.02576,775.52698)">
		<path id="path4697" fill="#FFFFFF" d="M-33.492,41.24c-3.181,0.772-6.313,2.607-7.889,5.52c-0.085,0.157-0.864,1.426,0.705,1.515
			c1.573,0.09,4.543,0.102,5.95-0.059c1.113-0.128,2.891-0.457,2.891-2.171c0-1.62,0-0.616,0-0.953c0-0.335-0.147-0.482-0.359,0
			c-0.337,0.769-1.177,2.253-3.699,2.399c-2.067,0.121-1.804,0.109-2.268,0.039c-0.464-0.066-1.363-0.347-0.82-1.675
			c0.869-2.122,3.939-3.673,5.994-4.086c1.025-0.208,1.995-0.277,2.069,0.922c0.053,0.873,0.078,2.066,0.13,3.033
			c0.045,0.791,0.105,2.275,2.84,2.466c1.933,0.133,4.48,0.201,5.354,0.133c1.093-0.086,2.143-0.079,1.541-1.234
			c-1.577-3.012-4.74-4.925-7.325-5.667c-0.272-0.082-0.919-0.107-0.167,0.282c0.848,0.44,5.023,2.455,5.023,4.834
			c0,0.809-0.627,0.939-1.312,0.939c-0.89,0-1.153,0-1.831-0.039c-1.014-0.061-2.216-0.43-2.411-1.97
			c-0.24-1.905-0.065-1.23-0.372-2.705c-0.263-1.279-1.206-1.602-2.024-1.653C-32.323,41.057-33.157,41.161-33.492,41.24"/>
	</g>
	<g id="g4699" transform="matrix(12.724991,0,0,-12.724991,735.26364,593.57034)">
		<path id="path4701" fill="#FFFFFF" d="M-36.788,38.706c-1.677,2.936-5.611,5.132-9.905,5.132c-5.093,0-9.297-2.86-10.425-6.653
			c-0.14-0.474-0.153-1.11,0.034-1.356c0.262-0.344,0.831-0.347,1.233-0.023c0,0,0.453,0.313,1.663,1.323
			c1.123,0.942,2.999,2.173,3.927,2.173c0.748,0,1.294-0.429,1.294-1.149c0-1.399-1.661-1.822-2.823-2.031
			c-0.751-0.134-2.313-0.24-2.503-0.258c-0.459-0.042-0.594-0.442-0.067-0.459c0.428-0.015,2.809,0.028,3.84,0.069
			c1.261,0.048,3.374,0.183,3.374,2.596c0,2.134-1.571,2.639-2.156,2.639c-1.574,0-3.375-1.413-4.496-2.436
			c-0.827-0.756-1.072-0.406-0.712,0.457c0.582,1.401,3.417,4.471,7.806,4.471c2.182,0,4.793-0.977,6.117-2.3
			c1.577-1.583,2.192-2.546,2.192-3.641c0-0.935-0.871-1.037-1.392-1.037c-0.52,0-2.608,0.102-3.374,0.466
			c-0.751,0.36-1.055,0.818-1.055,1.449c0,0.676,0.484,1.26,1.298,1.26c0.819,0,2.454-0.793,2.783-1.124
			c0.328-0.331,0.348-0.013,0.068,0.298c-0.279,0.311-1.86,2.112-3.756,2.112c-1.903,0-2.293-1.556-2.293-2.476
			c0-1.118,0.464-2.749,3.413-2.749c2.61,0,4.124-0.095,5.086-0.054C-37.278,35.42-34.888,35.378-36.788,38.706"/>
	</g>
</g>
</svg>
