<?xml version="1.0" encoding="utf-8"?>
<!-- Generator: Adobe Illustrator 16.0.0, SVG Export Plug-In . SVG Version: 6.00 Build 0)  -->
<svg version="1.2" baseProfile="tiny" id="Layer_1" xmlns="http://www.w3.org/2000/svg" xmlns:xlink="http://www.w3.org/1999/xlink"
	 x="0px" y="0px" width="1189.387px" height="190px" viewBox="0 5.5 1189.387 190" xml:space="preserve">
<g>
	<g>
		<path id="path6717" fill="#FF0000" d="M208.557,147.854h-55.246v-6.256c1.996-0.054,4.564-0.265,7.709-0.617
			c3.145-0.352,5.303-0.846,6.477-1.498c1.822-1.109,3.156-2.388,4.01-3.833c0.854-1.437,1.277-3.242,1.277-5.419V39.299h-1.322
			l-42.646,106.527h-4.406L83.787,37.096h-1.146v74.631c0,7.225,0.457,12.724,1.367,16.477c0.912,3.764,2.307,6.47,4.186,8.107
			c1.293,1.233,3.965,2.414,8.02,3.524c4.053,1.118,6.697,1.709,7.93,1.763v6.256h-50.49v-6.256c2.645-0.229,5.42-0.67,8.328-1.322
			c2.906-0.644,5.152-1.611,6.74-2.908c2.057-1.639,3.467-4.168,4.229-7.576c0.764-3.401,1.146-9.104,1.146-17.096V48.727
			c0-3.701-0.441-6.726-1.322-9.076c-0.881-2.348-2.145-4.258-3.789-5.728c-1.818-1.586-4.053-2.761-6.697-3.524
			c-2.643-0.762-5.256-1.203-7.842-1.322V22.82h42.646l35.775,93.752l30.576-78.42c1.117-2.877,2.07-5.888,2.863-9.032
			c0.793-3.141,1.219-5.242,1.279-6.3h40.797v6.256c-1.646,0.061-3.746,0.324-6.301,0.793c-2.555,0.472-4.42,0.912-5.596,1.322
			c-1.998,0.705-3.348,1.881-4.053,3.524c-0.705,1.646-1.059,3.437-1.059,5.375v90.14c0,2.063,0.354,3.789,1.059,5.198
			c0.705,1.41,2.055,2.644,4.053,3.701c1.059,0.591,2.938,1.137,5.641,1.63c2.703,0.502,4.846,0.784,6.432,0.838v6.257H208.557z"/>
		<path id="path6719" fill="#FF0000" d="M286.762,146.269c-2.762,1.004-5.184,1.806-7.27,2.423
			c-2.086,0.616-4.451,0.925-7.094,0.925c-4.582,0-8.238-1.065-10.971-3.216c-2.73-2.142-4.479-5.27-5.242-9.384h-0.527
			c-3.818,4.229-7.916,7.463-12.293,9.692c-4.377,2.236-9.648,3.349-15.816,3.349c-6.52,0-11.879-1.992-16.08-5.992
			c-4.201-3.992-6.301-9.217-6.301-15.685c0-3.35,0.469-6.345,1.41-8.987c0.941-2.644,2.352-5.022,4.229-7.138
			c1.471-1.764,3.408-3.331,5.816-4.714c2.408-1.375,4.67-2.478,6.785-3.306c2.643-0.996,8.002-2.846,16.08-5.551
			c8.078-2.699,13.525-4.813,16.346-6.342v-8.723c0-0.763-0.162-2.231-0.484-4.406c-0.324-2.172-1.014-4.229-2.07-6.168
			c-1.174-2.172-2.836-4.066-4.98-5.685c-2.143-1.613-5.182-2.423-9.119-2.423c-2.703,0-5.215,0.456-7.533,1.366
			c-2.32,0.912-3.951,1.866-4.891,2.864c0,1.176,0.279,2.908,0.836,5.199c0.559,2.291,0.838,4.405,0.838,6.344
			c0,2.058-0.926,3.937-2.775,5.64c-1.852,1.705-4.422,2.556-7.711,2.556c-2.938,0-5.096-1.043-6.477-3.129
			c-1.381-2.084-2.07-4.419-2.07-7.005c0-2.7,0.953-5.287,2.863-7.754c1.91-2.468,4.391-4.67,7.445-6.608
			c2.645-1.644,5.844-3.04,9.605-4.186c3.76-1.145,7.43-1.719,11.014-1.719c4.934,0,9.236,0.339,12.91,1.014
			c3.672,0.676,7.004,2.13,10,4.361c2.996,2.174,5.271,5.126,6.83,8.854c1.557,3.732,2.334,8.534,2.334,14.407
			c0,8.401-0.088,15.851-0.266,22.335c-0.176,6.494-0.264,13.587-0.264,21.279c0,2.291,0.396,4.115,1.189,5.464
			c0.793,1.356,2.012,2.502,3.656,3.436c0.881,0.529,2.277,0.828,4.188,0.883c1.91,0.062,3.861,0.088,5.859,0.088V146.269z
			 M256.01,99.744c-4.994,1.471-9.369,2.907-13.129,4.317c-3.76,1.409-7.254,3.172-10.486,5.287c-2.938,2-5.258,4.361-6.961,7.093
			s-2.557,5.983-2.557,9.736c0,4.882,1.279,8.459,3.834,10.75s5.799,3.437,9.736,3.437c4.17,0,7.842-1.014,11.016-3.04
			c3.172-2.025,5.844-4.413,8.018-7.181L256.01,99.744z"/>
		<path id="path6721" fill="#FF0000" d="M334.037,105.295c2.408,2.113,4.258,4.556,5.553,7.313
			c1.293,2.768,1.938,6.143,1.938,10.133c0,8.055-3.012,14.627-9.031,19.738c-6.021,5.11-13.818,7.666-23.396,7.666
			c-5.051,0-9.707-0.908-13.965-2.731c-4.258-1.814-7.299-3.488-9.121-5.021l-1.762,5.728h-6.607l-0.883-30.224h6.08
			c0.471,2.291,1.471,4.969,2.996,8.019c1.527,3.059,3.377,5.815,5.551,8.282c2.291,2.592,5.039,4.759,8.24,6.521
			s6.799,2.644,10.793,2.644c5.641,0,9.986-1.276,13.041-3.833c3.053-2.556,4.582-6.212,4.582-10.97
			c0-2.468-0.484-4.592-1.453-6.389c-0.971-1.789-2.395-3.357-4.273-4.715c-1.939-1.349-4.318-2.563-7.139-3.656
			c-2.818-1.084-5.963-2.159-9.428-3.217c-2.762-0.818-5.83-1.947-9.207-3.393c-3.379-1.437-6.271-3.128-8.68-5.066
			c-2.584-2.054-4.699-4.582-6.344-7.576c-1.646-2.996-2.467-6.521-2.467-10.574c0-7.106,2.645-13.129,7.93-18.063
			c5.287-4.935,12.365-7.401,21.236-7.401c3.408,0,6.889,0.439,10.441,1.322c3.553,0.881,6.445,1.938,8.68,3.172l2.025-4.582h6.344
			l1.322,27.933h-6.08c-1.232-6.226-3.893-11.292-7.975-15.2c-4.082-3.904-9.061-5.858-14.936-5.858
			c-4.818,0-8.605,1.205-11.367,3.611c-2.76,2.41-4.141,5.318-4.141,8.725c0,2.644,0.455,4.847,1.365,6.607
			c0.91,1.764,2.275,3.262,4.098,4.494c1.762,1.176,3.98,2.277,6.652,3.304c2.672,1.029,5.977,2.19,9.914,3.48
			c3.877,1.231,7.533,2.676,10.969,4.315C328.971,101.479,331.805,103.304,334.037,105.295z"/>
		<path id="path6723" fill="#FF0000" d="M389.508,144.065c-3.82,1.586-7.434,2.927-10.838,4.009
			c-3.408,1.094-7.578,1.631-12.514,1.631c-7.285,0-12.41-1.832-15.375-5.508c-2.969-3.665-4.451-8.854-4.451-15.552V69.787h-15.682
			v-8.459h16.035V34.276h16.037v27.052h24.938v8.459h-24.762v48.549c0,3.646,0.133,6.688,0.398,9.12
			c0.264,2.439,0.893,4.571,1.893,6.388c0.939,1.71,2.35,2.996,4.23,3.877c1.879,0.882,4.406,1.322,7.578,1.322
			c1.467,0,3.625-0.133,6.477-0.396c2.85-0.265,4.859-0.6,6.035-1.014V144.065L389.508,144.065z"/>
		<path id="path6725" fill="#FF0000" d="M456.696,127.41c-3.643,6.937-8.518,12.461-14.627,16.566
			c-6.107,4.114-13.129,6.168-21.061,6.168c-6.99,0-13.113-1.234-18.371-3.701c-5.256-2.467-9.59-5.814-12.998-10.045
			c-3.404-4.229-5.947-9.164-7.621-14.804c-1.676-5.64-2.512-11.596-2.512-17.887c0-5.641,0.896-11.173,2.688-16.607
			c1.795-5.433,4.422-10.323,7.887-14.671c3.348-4.17,7.506-7.534,12.469-10.089c4.965-2.555,10.529-3.833,16.697-3.833
			c6.344,0,11.779,1,16.301,2.996c4.523,1.998,8.195,4.729,11.014,8.193c2.703,3.292,4.715,7.168,6.037,11.633
			s1.982,9.312,1.982,14.539v5.813h-57.539c0,5.701,0.545,10.874,1.631,15.508c1.088,4.645,2.807,8.724,5.154,12.248
			c2.291,3.41,5.285,6.098,8.986,8.063c3.701,1.974,8.107,2.95,13.219,2.95c5.229,0,9.736-1.216,13.523-3.655
			c3.789-2.433,7.447-6.829,10.971-13.175L456.696,127.41z M437.221,94.282c0-3.288-0.275-6.813-0.836-10.573
			c-0.557-3.759-1.455-6.902-2.688-9.43c-1.352-2.699-3.201-4.902-5.553-6.607c-2.348-1.703-5.375-2.556-9.074-2.556
			c-6.168,0-11.293,2.571-15.377,7.71c-4.082,5.143-6.301,12.293-6.652,21.456H437.221z"/>
		<path id="path6727" fill="#FF0000" d="M514.721,72.166c0,2.996-0.732,5.653-2.203,7.974c-1.469,2.322-3.729,3.48-6.785,3.48
			c-3.287,0-5.799-0.851-7.533-2.556c-1.734-1.703-2.6-3.582-2.6-5.64c0-1.291,0.105-2.467,0.309-3.524
			c0.207-1.058,0.396-2.114,0.572-3.172c-2.76,0-5.99,1.117-9.691,3.349c-3.701,2.233-6.842,5.405-9.428,9.516v50.576
			c0,2.062,0.395,3.734,1.188,5.021c0.793,1.295,2.043,2.266,3.746,2.908c1.469,0.59,3.363,1.03,5.684,1.321
			c2.32,0.3,4.332,0.502,6.035,0.616v5.815h-45.818v-5.815c1.352-0.114,2.746-0.229,4.186-0.353
			c1.439-0.115,2.688-0.353,3.744-0.705c1.646-0.529,2.863-1.454,3.656-2.774c0.793-1.322,1.189-3.04,1.189-5.155v-53.66
			c0-1.82-0.424-3.613-1.277-5.375c-0.852-1.762-2.039-3.172-3.568-4.229c-1.115-0.704-2.438-1.218-3.965-1.542
			c-1.527-0.321-3.172-0.542-4.936-0.66v-5.729l28.902-1.938l1.234,1.232v12.248h0.439c3.645-4.758,7.697-8.371,12.16-10.838
			c4.465-2.468,8.547-3.701,12.248-3.701s6.711,1.205,9.031,3.613C513.563,64.883,514.721,68.112,514.721,72.166L514.721,72.166z"/>
		<path id="path6729" fill="#FF0000" d="M608.567,90.494c2.645,2.938,4.598,6.156,5.861,9.646c1.264,3.498,1.895,7.569,1.895,12.204
			c0,11.05-4.084,20.152-12.248,27.314c-8.164,7.174-18.297,10.75-30.398,10.75c-5.582,0-11.16-0.862-16.742-2.6
			c-5.58-1.727-10.396-3.832-14.451-6.3l-3.789,6.433h-7.049l-1.232-42.824h7.137c1.469,5.287,3.188,10.063,5.154,14.319
			c1.967,4.265,4.566,8.238,7.799,11.939c3.053,3.472,6.623,6.229,10.705,8.281c4.084,2.063,8.824,3.084,14.23,3.084
			c4.055,0,7.592-0.527,10.617-1.586c3.027-1.057,5.477-2.555,7.357-4.493c1.883-1.938,3.273-4.212,4.186-6.828
			c0.912-2.608,1.367-5.622,1.367-9.032c0-4.987-1.41-9.648-4.23-13.966c-2.818-4.318-7.018-7.587-12.6-9.825
			c-3.82-1.524-8.195-3.214-13.129-5.064c-4.936-1.85-9.195-3.597-12.777-5.241c-7.049-3.173-12.527-7.327-16.434-12.47
			c-3.906-5.139-5.859-11.852-5.859-20.134c0-4.759,0.969-9.193,2.908-13.306c1.939-4.11,4.699-7.783,8.283-11.016
			c3.408-3.053,7.43-5.446,12.072-7.181c4.639-1.732,9.484-2.6,14.539-2.6c5.758,0,10.914,0.881,15.465,2.644
			c4.551,1.762,8.709,3.819,12.467,6.168l3.613-5.992h7.049l0.705,41.502h-7.137c-1.291-4.758-2.744-9.309-4.361-13.656
			s-3.715-8.283-6.301-11.809c-2.523-3.406-5.607-6.124-9.252-8.149c-3.645-2.027-8.107-3.04-13.395-3.04
			c-5.582,0-10.34,1.793-14.273,5.375c-3.938,3.584-5.904,7.961-5.904,13.129c0,5.405,1.262,9.884,3.789,13.438
			c2.525,3.556,6.199,6.478,11.016,8.769c4.285,2.058,8.502,3.833,12.645,5.331c4.141,1.497,8.15,3.099,12.027,4.802
			c3.523,1.528,6.916,3.261,10.178,5.199C603.326,85.647,606.158,87.91,608.567,90.494L608.567,90.494z"/>
		<path id="path6731" fill="#FF0000" d="M604.299,176.228c0-2.935,0.803-5.331,2.424-7.182c1.611-1.852,3.621-2.775,6.035-2.775
			c1.877,0,3.49,0.354,4.848,1.058c1.348,0.704,2.555,1.621,3.611,2.731c0.881,0.881,1.816,2.088,2.82,3.612
			c0.996,1.533,1.789,2.793,2.379,3.789c2.934-1.586,6.439-5.729,10.529-12.426c4.078-6.695,7.031-12.563,8.855-17.622
			c-5.588-13.923-10.637-26.372-15.156-37.36c-4.527-10.979-9.252-22.348-14.188-34.098c-1.119-2.701-2.994-4.804-5.639-6.302
			s-5.287-2.451-7.932-2.862v-5.816h39.652v6.168c-1.764,0.059-3.877,0.427-6.346,1.102c-2.467,0.676-3.699,1.453-3.699,2.335
			c0,0.352,0.133,0.939,0.395,1.762c0.266,0.824,0.574,1.674,0.926,2.556c2.23,5.815,5.641,14.202,10.223,25.154
			c4.582,10.962,8.133,19.729,10.662,26.303c2.643-6.283,5.383-12.785,8.238-19.518c2.846-6.725,6.035-14.669,9.561-23.833
			c0.406-1.115,0.996-2.657,1.762-4.626c0.758-1.968,1.146-3.657,1.146-5.066c0-1.527-1.34-2.952-4.01-4.273
			c-2.678-1.322-5.217-2.129-7.621-2.424v-5.639h32.25v5.463c-1.764,0.295-4.09,1.31-6.961,3.04
			c-2.883,1.733-5.023,4.187-6.434,7.357c-6.996,16.213-13.207,30.986-18.635,44.318c-5.439,13.341-9.563,23.148-12.381,29.432
			c-3.701,8.229-7.006,14.645-9.914,19.253c-2.906,4.617-5.744,8.237-8.502,10.882c-2.705,2.468-5.154,4.133-7.357,4.979
			c-2.203,0.854-4.486,1.278-6.83,1.278c-4.582,0-8.186-1.084-10.793-3.261C605.602,181.55,604.299,179.047,604.299,176.228z"/>
		<path id="path6733" fill="#FF0000" d="M738.365,105.295c2.404,2.113,4.256,4.556,5.553,7.313
			c1.291,2.768,1.938,6.143,1.938,10.133c0,8.055-3.014,14.627-9.031,19.738c-6.023,5.11-13.82,7.666-23.396,7.666
			c-5.053,0-9.709-0.908-13.965-2.731c-4.262-1.814-7.301-3.488-9.121-5.021l-1.762,5.728h-6.609l-0.881-30.224h6.08
			c0.467,2.291,1.467,4.969,2.996,8.019c1.523,3.059,3.375,5.815,5.551,8.282c2.291,2.592,5.037,4.759,8.238,6.521
			c3.199,1.763,6.799,2.644,10.795,2.644c5.639,0,9.982-1.276,13.041-3.833c3.053-2.556,4.582-6.212,4.582-10.97
			c0-2.468-0.484-4.592-1.453-6.389c-0.971-1.789-2.398-3.357-4.273-4.715c-1.938-1.349-4.316-2.563-7.139-3.656
			c-2.818-1.084-5.965-2.159-9.428-3.217c-2.764-0.818-5.834-1.947-9.209-3.393c-3.379-1.437-6.273-3.128-8.68-5.066
			c-2.586-2.054-4.699-4.582-6.344-7.576c-1.646-2.996-2.467-6.521-2.467-10.574c0-7.106,2.643-13.129,7.93-18.063
			s12.363-7.401,21.236-7.401c3.404,0,6.885,0.439,10.441,1.322c3.551,0.881,6.443,1.938,8.68,3.172l2.025-4.582h6.346l1.32,27.933
			h-6.08c-1.232-6.226-3.895-11.292-7.975-15.2c-4.084-3.904-9.063-5.858-14.936-5.858c-4.82,0-8.609,1.205-11.367,3.611
			c-2.762,2.41-4.143,5.318-4.143,8.725c0,2.644,0.455,4.847,1.367,6.607c0.906,1.764,2.273,3.262,4.098,4.494
			c1.762,1.176,3.979,2.277,6.652,3.304c2.67,1.029,5.975,2.19,9.912,3.48c3.877,1.231,7.533,2.676,10.971,4.315
			C733.299,101.479,736.133,103.304,738.365,105.295L738.365,105.295z"/>
		<path id="path6735" fill="#FF0000" d="M793.834,144.065c-3.814,1.586-7.428,2.927-10.838,4.009
			c-3.41,1.094-7.578,1.631-12.514,1.631c-7.285,0-12.404-1.832-15.375-5.508c-2.967-3.665-4.449-8.854-4.449-15.552V69.787h-15.686
			v-8.459h16.037V34.276h16.037v27.052h24.936v8.459h-24.76v48.549c0,3.646,0.133,6.688,0.396,9.12
			c0.264,2.439,0.898,4.571,1.895,6.388c0.943,1.71,2.354,2.996,4.229,3.877c1.883,0.882,4.406,1.322,7.578,1.322
			c1.473,0,3.631-0.133,6.477-0.396c2.852-0.265,4.865-0.6,6.037-1.014V144.065L793.834,144.065z"/>
		<path id="path6737" fill="#FF0000" d="M861.022,127.41c-3.641,6.937-8.518,12.461-14.627,16.566
			c-6.105,4.114-13.131,6.168-21.061,6.168c-6.988,0-13.111-1.234-18.371-3.701c-5.256-2.467-9.588-5.814-12.998-10.045
			c-3.404-4.229-5.947-9.164-7.621-14.804s-2.512-11.596-2.512-17.887c0-5.641,0.898-11.173,2.688-16.607
			c1.793-5.433,4.424-10.323,7.887-14.671c3.35-4.17,7.508-7.534,12.469-10.089c4.965-2.555,10.529-3.833,16.697-3.833
			c6.346,0,11.781,1,16.303,2.996c4.523,1.998,8.193,4.729,11.014,8.193c2.705,3.292,4.715,7.168,6.035,11.633
			c1.322,4.465,1.982,9.312,1.982,14.539v5.813h-57.539c0,5.701,0.547,10.874,1.631,15.508c1.088,4.645,2.807,8.724,5.154,12.248
			c2.291,3.41,5.287,6.098,8.986,8.063c3.701,1.974,8.107,2.95,13.219,2.95c5.229,0,9.736-1.216,13.525-3.655
			c3.789-2.433,7.445-6.829,10.971-13.175L861.022,127.41z M841.549,94.282c0-3.288-0.277-6.813-0.838-10.573
			c-0.555-3.759-1.453-6.902-2.688-9.43c-1.35-2.699-3.197-4.902-5.553-6.607c-2.348-1.703-5.375-2.556-9.074-2.556
			c-6.168,0-11.293,2.571-15.377,7.71c-4.08,5.143-6.301,12.293-6.652,21.456H841.549z"/>
		<path id="path6739" fill="#FF0000" d="M1001.348,147.854h-42.383v-5.815c1.352-0.114,2.719-0.229,4.098-0.353
			c1.379-0.115,2.6-0.353,3.656-0.705c1.645-0.528,2.863-1.454,3.656-2.774c0.793-1.322,1.189-3.04,1.189-5.155V88.204
			c0-6.108-1.396-10.823-4.186-14.143c-2.789-3.317-6.271-4.979-10.441-4.979c-2.877,0-5.582,0.439-8.105,1.32
			c-2.525,0.882-4.848,2.115-6.961,3.701c-1.705,1.293-3.129,2.688-4.273,4.187s-2.014,2.747-2.6,3.744v50.136
			c0,2.062,0.352,3.745,1.057,5.065c0.705,1.321,1.908,2.335,3.613,3.04c1.352,0.528,2.568,0.927,3.656,1.189
			c1.088,0.265,2.512,0.458,4.273,0.572v5.815h-41.502v-5.815c1.354-0.114,2.656-0.229,3.92-0.353
			c1.266-0.115,2.424-0.353,3.48-0.705c1.645-0.529,2.865-1.454,3.658-2.774c0.793-1.322,1.188-3.04,1.188-5.155V88.202
			c0-6.107-1.395-10.822-4.186-14.142c-2.789-3.318-6.27-4.979-10.441-4.979c-2.877,0-5.582,0.455-8.105,1.364
			c-2.525,0.912-4.848,2.159-6.963,3.745c-1.703,1.293-3.141,2.747-4.316,4.362c-1.176,1.617-2.059,2.835-2.645,3.657v49.781
			c0,2,0.41,3.676,1.234,5.023c0.824,1.356,2.057,2.379,3.701,3.084c1.232,0.59,2.498,1.03,3.789,1.321
			c1.291,0.3,2.73,0.502,4.316,0.616v5.815H852.52v-5.815c1.354-0.114,2.744-0.229,4.186-0.353c1.439-0.115,2.688-0.353,3.746-0.705
			c1.643-0.529,2.861-1.454,3.654-2.774c0.795-1.322,1.191-3.04,1.191-5.155V79.039c0-1.879-0.428-3.569-1.279-5.067
			c-0.85-1.498-2.039-2.776-3.566-3.833c-1.115-0.705-2.498-1.278-4.143-1.718c-1.645-0.44-3.35-0.718-5.109-0.837v-5.729
			l29.076-1.938l1.234,1.232v12.424h0.615c1.469-1.467,3.262-3.2,5.375-5.198c2.115-1.996,4.086-3.613,5.904-4.848
			c2.059-1.409,4.627-2.584,7.711-3.523c3.084-0.938,6.418-1.41,10-1.41c5.641,0,10.484,1.513,14.539,4.538
			c4.053,3.027,6.961,6.684,8.725,10.971c2.113-2.056,3.979-3.861,5.594-5.419c1.617-1.556,3.746-3.217,6.389-4.979
			c2.234-1.527,4.859-2.762,7.887-3.701c3.027-0.938,6.389-1.41,10.09-1.41c7.344,0,13.16,2.41,17.447,7.225
			c4.285,4.818,6.432,12.221,6.432,22.205v44.145c0,2.062,0.354,3.745,1.059,5.065c0.703,1.321,1.906,2.335,3.611,3.04
			c1.354,0.528,2.689,0.927,4.01,1.189c1.322,0.265,2.807,0.458,4.449,0.572v5.818H1001.348z"/>
	</g>
	<g>
		<path fill="#000080" d="M1083.619,145.201v3.198h-50.213v-3.198h4.148c4.84,0,8.354-1.411,10.543-4.235
			c1.383-1.843,2.074-6.279,2.074-13.31V51.947c0-5.934-0.375-9.853-1.123-11.754c-0.576-1.439-1.758-2.679-3.543-3.716
			c-2.536-1.383-5.186-2.074-7.951-2.074h-4.148v-3.198h50.213v3.198h-4.234c-4.783,0-8.269,1.413-10.458,4.235
			c-1.44,1.845-2.161,6.281-2.161,13.31v75.709c0,5.935,0.375,9.853,1.124,11.754c0.575,1.441,1.785,2.679,3.63,3.716
			c2.477,1.383,5.1,2.074,7.865,2.074H1083.619z"/>
		<path fill="#000080" d="M1142.562,145.201v3.198h-50.213v-3.198h4.148c4.84,0,8.354-1.411,10.543-4.235
			c1.383-1.843,2.074-6.279,2.074-13.31V51.947c0-5.934-0.375-9.853-1.123-11.754c-0.576-1.439-1.758-2.679-3.543-3.716
			c-2.536-1.383-5.186-2.074-7.951-2.074h-4.148v-3.198h50.213v3.198h-4.234c-4.783,0-8.269,1.413-10.458,4.235
			c-1.44,1.845-2.161,6.281-2.161,13.31v75.709c0,5.935,0.375,9.853,1.124,11.754c0.575,1.441,1.785,2.679,3.63,3.716
			c2.477,1.383,5.1,2.074,7.865,2.074H1142.562z"/>
	</g>
	<g>
		<rect x="20" y="158.382" fill="#000080" width="1149" height="4"/>
	</g>
</g>
</svg>
