<?xml version="1.0" encoding="utf-8"?>
<!-- Generator: Adobe Illustrator 16.0.0, SVG Export Plug-In . SVG Version: 6.00 Build 0)  -->
<svg version="1.2" baseProfile="tiny" id="Layer_1" xmlns="http://www.w3.org/2000/svg" xmlns:xlink="http://www.w3.org/1999/xlink"
	 x="0px" y="0px" width="283.465px" height="283.465px" viewBox="0 0 283.465 283.465" xml:space="preserve">
<g id="layer1" transform="translate(0,-950.12716)">
	<path id="path4173" stroke="#FDFDFD" stroke-width="0.2817" d="M15.464,1092.166c-0.113-0.113-0.068-3.048,0.048-3.165
		c0.081-0.082,1.464-0.108,5.672-0.108c5.407,0,5.574-0.005,5.913-0.182c0.192-0.1,0.43-0.272,0.528-0.383
		c0.193-0.218,0.389-0.805,0.389-1.168c0-0.493-0.497-1.33-0.79-1.33c-0.071,0-0.256-0.06-0.412-0.132
		c-0.234-0.109-0.998-0.137-4.346-0.158c-2.831-0.018-4.101-0.056-4.189-0.126c-0.069-0.056-0.349-0.154-0.621-0.219
		c-0.273-0.065-0.56-0.172-0.638-0.237c-0.079-0.065-0.191-0.119-0.251-0.119s-0.45-0.342-0.866-0.761
		c-0.59-0.593-0.788-0.856-0.892-1.193c-0.173-0.559-0.326-0.993-0.476-1.347c-0.174-0.41-0.164-1.957,0.015-2.135
		c0.074-0.074,0.135-0.261,0.135-0.416c0-0.533,0.483-1.363,1.228-2.11c0.385-0.387,0.784-0.739,0.885-0.784
		c0.101-0.044,0.245-0.117,0.319-0.161c0.074-0.044,0.361-0.146,0.638-0.226c0.444-0.128,1.377-0.145,7.949-0.145h7.446v1.513
		c0,1.057-0.033,1.546-0.108,1.622c-0.082,0.082-1.511,0.108-5.881,0.108c-5.357,0-5.795,0.012-6.087,0.161
		c-0.62,0.316-0.92,0.808-0.92,1.506c0,0.638,0.395,1.396,0.726,1.396c0.071,0,0.256,0.06,0.412,0.133
		c0.234,0.11,0.989,0.137,4.337,0.157c2.854,0.018,4.106,0.056,4.233,0.128c0.099,0.058,0.362,0.153,0.585,0.214
		c0.685,0.185,0.999,0.379,1.675,1.034c0.69,0.668,1.026,1.142,1.027,1.446c0,0.102,0.06,0.264,0.133,0.36s0.133,0.281,0.135,0.411
		c0.001,0.13,0.063,0.287,0.138,0.349c0.191,0.159,0.194,1.959,0.003,2.212c-0.073,0.096-0.134,0.307-0.135,0.468
		c-0.001,0.161-0.084,0.444-0.183,0.629s-0.18,0.384-0.18,0.442c0,0.171-1.37,1.579-1.666,1.713
		c-0.148,0.067-0.332,0.156-0.405,0.198c-0.075,0.042-0.407,0.162-0.738,0.269c-0.595,0.191-0.689,0.193-7.664,0.193
		C18.702,1092.226,15.497,1092.199,15.464,1092.166L15.464,1092.166z"/>
	<path id="path4175" stroke="#FDFDFD" stroke-width="0.2817" d="M39.814,1092.141c-0.404-0.126-1.441-0.646-1.441-0.723
		c0-0.041-0.111-0.117-0.248-0.167c-0.278-0.104-1.013-0.749-1.013-0.889c0-0.05-0.132-0.269-0.294-0.486
		c-0.343-0.461-0.696-1.16-0.696-1.377c0-0.083-0.061-0.245-0.136-0.358c-0.118-0.18-0.133-1.004-0.113-6.37l0.023-6.163
		l2.362-0.024l2.362-0.024l0.025,5.654l0.025,5.654l0.25,0.495c0.306,0.608,0.81,1.063,1.438,1.3
		c0.433,0.163,0.744,0.181,3.514,0.208l3.04,0.028l0.023-6.645l0.023-6.646l2.455-0.024l2.455-0.024l-0.023,8.311l-0.022,8.311
		l-6.891,0.015C43.14,1092.205,39.938,1092.18,39.814,1092.141L39.814,1092.141z"/>
	<path id="path4177" stroke="#FDFDFD" stroke-width="0.2817" d="M57.117,1092.118c-0.082-0.083-0.107-2.014-0.107-8.146v-8.037
		l0.237-0.187c0.235-0.185,0.292-0.187,6.958-0.183c5.618,0.003,6.78,0.025,7.082,0.134c0.198,0.071,0.426,0.13,0.506,0.131
		c0.081,0,0.197,0.062,0.259,0.137c0.062,0.074,0.2,0.135,0.308,0.135c0.353,0,0.859,0.333,1.53,1.007
		c0.648,0.65,0.959,1.159,1.09,1.785c0.036,0.173,0.122,0.425,0.19,0.559c0.18,0.352,0.171,3.267-0.011,3.585
		c-0.07,0.124-0.13,0.339-0.132,0.479c-0.012,0.905-1.873,2.944-2.688,2.944c-0.087,0-0.258,0.071-0.38,0.158
		c-0.205,0.145-0.618,0.16-4.952,0.183c-4.288,0.023-4.739,0.039-4.841,0.175c-0.083,0.111-0.112,0.778-0.112,2.591
		c0,1.78-0.029,2.472-0.108,2.55C61.792,1092.272,57.271,1092.272,57.117,1092.118L57.117,1092.118z M68.811,1083.276
		c0.286-0.151,0.475-0.341,0.649-0.653c0.224-0.401,0.246-0.526,0.248-1.387c0.002-0.918-0.006-0.96-0.291-1.394
		c-0.495-0.756-0.599-0.774-4.241-0.746l-3.078,0.024l-0.024,2.069c-0.013,1.138-0.004,2.122,0.02,2.184
		c0.035,0.09,0.726,0.115,3.178,0.115C68.395,1083.489,68.408,1083.489,68.811,1083.276L68.811,1083.276z"/>
	<path id="path4179" stroke="#FDFDFD" stroke-width="0.2817" d="M82.365,1092.075c-0.247-0.074-0.571-0.157-0.72-0.185
		c-0.148-0.027-0.412-0.157-0.585-0.288c-0.173-0.131-0.498-0.356-0.721-0.5c-0.454-0.293-1.621-1.392-1.621-1.525
		c0-0.047-0.079-0.171-0.175-0.273c-0.3-0.319-1.176-2.12-1.179-2.423c-0.001-0.157-0.062-0.363-0.135-0.459
		c-0.073-0.097-0.133-0.359-0.135-0.585c-0.001-0.226-0.062-0.512-0.132-0.636c-0.184-0.322-0.185-2.137,0-2.489
		c0.074-0.142,0.135-0.446,0.135-0.675c0-0.26,0.051-0.459,0.136-0.529c0.079-0.066,0.136-0.266,0.137-0.484
		c0.001-0.229,0.069-0.458,0.178-0.597c0.097-0.124,0.177-0.293,0.178-0.377c0.001-0.083,0.041-0.176,0.088-0.206
		c0.048-0.029,0.195-0.295,0.328-0.591c0.132-0.295,0.278-0.537,0.324-0.537s0.138-0.132,0.205-0.294
		c0.145-0.346,1.231-1.418,1.437-1.418c0.079,0,0.143-0.039,0.143-0.086c0-0.048,0.192-0.199,0.428-0.335
		c0.235-0.137,0.481-0.3,0.547-0.364c0.065-0.063,0.21-0.115,0.321-0.115c0.11,0,0.28-0.06,0.376-0.132s0.318-0.134,0.493-0.135
		s0.406-0.064,0.513-0.14c0.171-0.12,0.88-0.134,5.612-0.113c5.242,0.024,5.42,0.03,5.543,0.199
		c0.196,0.269,0.184,3.134-0.014,3.332c-0.125,0.125-0.694,0.142-4.895,0.142c-5.335,0-5.008-0.04-5.724,0.687
		c-0.395,0.4-1.129,1.721-1.129,2.03c0,0.159,0.23,0.166,5.771,0.166c3.806,0,5.83,0.031,5.945,0.093
		c0.161,0.086,0.174,0.202,0.174,1.57c0,1.222-0.025,1.501-0.142,1.618c-0.125,0.125-0.789,0.141-5.944,0.141
		c-5.792,0-5.804,0-5.804,0.185c0,0.102,0.079,0.335,0.176,0.518c0.097,0.184,0.2,0.394,0.229,0.469
		c0.221,0.564,1.17,1.571,1.702,1.806c0.225,0.1,0.433,0.221,0.462,0.269c0.034,0.055,1.748,0.087,4.579,0.087
		c3.4,0,4.553,0.027,4.634,0.108c0.114,0.114,0.161,2.803,0.053,3.082c-0.049,0.128-0.63,0.142-5.697,0.134
		C83.723,1092.212,82.744,1092.189,82.365,1092.075L82.365,1092.075z"/>
	<path id="path4181" stroke="#FDFDFD" stroke-width="0.2817" d="M96.972,1092.166c-0.033-0.033-0.06-3.717-0.06-8.186
		c0-7.448,0.013-8.136,0.149-8.25c0.123-0.102,1.383-0.128,7.184-0.15c6.308-0.024,7.09-0.012,7.575,0.121
		c0.297,0.082,0.648,0.206,0.779,0.275c0.132,0.069,0.321,0.126,0.422,0.126c0.1,0,0.243,0.061,0.317,0.135
		c0.074,0.075,0.193,0.135,0.264,0.135s0.451,0.335,0.845,0.746c0.716,0.746,0.879,1.039,1.121,2.002
		c0.049,0.198,0.128,0.398,0.175,0.446c0.112,0.113,0.112,3.382,0,3.382c-0.046,0-0.111,0.193-0.145,0.428
		c-0.1,0.717-0.428,1.282-1.203,2.073c-0.398,0.408-0.782,0.741-0.852,0.741s-0.177,0.061-0.238,0.135
		c-0.062,0.075-0.223,0.135-0.357,0.135c-0.237,0-0.543,0.236-0.543,0.419c0,0.049,0.164,0.249,0.365,0.443
		c0.2,0.194,0.429,0.475,0.507,0.624c0.079,0.149,0.28,0.423,0.446,0.608c0.167,0.186,0.303,0.378,0.303,0.428
		c0,0.049,0.161,0.25,0.357,0.447c0.197,0.196,0.456,0.51,0.576,0.698c0.121,0.188,0.365,0.48,0.543,0.651
		c0.179,0.171,0.326,0.358,0.326,0.417s0.065,0.161,0.144,0.227c0.188,0.156,0.314,0.495,0.249,0.667
		c-0.045,0.117-0.437,0.136-2.829,0.136c-2.966,0-2.961,0-3.104-0.451c-0.031-0.099-0.092-0.179-0.135-0.179
		c-0.043,0-0.106-0.089-0.141-0.198c-0.034-0.109-0.26-0.453-0.501-0.763c-0.241-0.311-0.439-0.594-0.439-0.629
		c0-0.099-1.022-1.599-1.141-1.676c-0.058-0.038-0.132-0.189-0.165-0.338c-0.033-0.148-0.096-0.27-0.141-0.27
		s-0.105-0.097-0.135-0.215c-0.03-0.118-0.162-0.311-0.294-0.428c-0.238-0.21-0.267-0.212-2.601-0.24
		c-1.59-0.019-2.42,0.004-2.545,0.071c-0.179,0.095-0.184,0.172-0.184,2.564c0,1.356-0.024,2.531-0.055,2.609
		c-0.048,0.125-0.346,0.142-2.417,0.142C98.095,1092.226,97.005,1092.199,96.972,1092.166L96.972,1092.166z M109.332,1083.293
		c0.45-0.271,0.581-0.419,0.758-0.865c0.2-0.502,0.206-1.727,0.011-2.3c-0.164-0.481-0.525-0.825-1.008-0.959
		c-0.203-0.057-1.688-0.093-3.78-0.094l-3.445,0v2.146c0,1.181,0.027,2.174,0.06,2.207s1.639,0.06,3.57,0.06
		C108.94,1083.489,109.012,1083.485,109.332,1083.293L109.332,1083.293z"/>
	<path id="path4183" stroke="#FDFDFD" stroke-width="0.2817" d="M127.384,1092.166c-0.033-0.033-0.06-2.419-0.06-5.303
		c0-4.551,0.018-5.258,0.135-5.356c0.075-0.063,0.136-0.259,0.136-0.442c0-0.219,0.137-0.586,0.408-1.092
		c0.224-0.419,0.451-0.875,0.504-1.01c0.053-0.136,0.133-0.248,0.177-0.248s0.136-0.132,0.204-0.293
		c0.146-0.346,1.241-1.418,1.447-1.418c0.078,0,0.143-0.039,0.143-0.086c0-0.047,0.192-0.198,0.428-0.334
		c0.235-0.137,0.481-0.301,0.547-0.364s0.208-0.117,0.315-0.119c0.108-0.001,0.275-0.063,0.372-0.135
		c0.096-0.073,0.32-0.133,0.498-0.133s0.412-0.062,0.52-0.138c0.172-0.121,0.884-0.134,5.747-0.112
		c5.375,0.024,5.554,0.031,5.678,0.2c0.185,0.252,0.185,3.001,0,3.253c-0.123,0.168-0.31,0.176-5.066,0.22
		c-3.546,0.033-5.007,0.076-5.18,0.153c-0.401,0.18-1.07,0.921-1.334,1.481c-0.138,0.291-0.298,0.587-0.357,0.658
		c-0.058,0.07-0.094,0.283-0.078,0.472l0.028,0.344l5.97,0.045c5.176,0.039,5.983,0.063,6.057,0.18
		c0.047,0.074,0.086,0.789,0.086,1.589c0.001,1.253-0.021,1.48-0.155,1.645c-0.158,0.19-0.169,0.191-6.058,0.212l-5.9,0.021
		l-0.024,2.965c-0.016,2.004-0.056,3.003-0.124,3.085c-0.078,0.095-0.616,0.12-2.551,0.12
		C128.547,1092.226,127.417,1092.199,127.384,1092.166L127.384,1092.166z"/>
	<path id="path4185" stroke="#FDFDFD" stroke-width="0.2817" d="M149.617,1092.03c-0.997-0.343-1.263-0.513-2.039-1.309
		c-0.596-0.61-0.786-0.868-0.834-1.125c-0.034-0.184-0.12-0.447-0.192-0.586c-0.072-0.138-0.132-0.34-0.132-0.449
		c0-0.108-0.041-0.222-0.09-0.253c-0.112-0.069-0.122-2.207-0.012-2.207c0.045,0,0.108-0.22,0.142-0.49
		c0.033-0.269,0.117-0.535,0.185-0.591c0.068-0.056,0.148-0.215,0.179-0.352c0.074-0.338,1.372-1.649,1.862-1.881
		c0.215-0.102,0.574-0.236,0.797-0.298s0.463-0.156,0.531-0.209c0.086-0.065,1.707-0.104,5.021-0.122
		c4.843-0.025,4.896-0.027,4.896-0.208c0-0.1-0.077-0.332-0.171-0.515c-0.095-0.183-0.265-0.516-0.379-0.738
		c-0.254-0.495-0.731-1-1.187-1.252c-0.335-0.185-0.432-0.189-5.272-0.189c-4.316,0-4.956-0.018-5.131-0.14
		c-0.193-0.136-0.2-0.191-0.2-1.663c0-1.45,0.009-1.531,0.197-1.706c0.193-0.181,0.286-0.184,5.754-0.184
		c4.755,0,5.595,0.02,5.815,0.135c0.142,0.074,0.38,0.136,0.528,0.138c0.148,0.001,0.349,0.063,0.444,0.135
		c0.097,0.073,0.253,0.132,0.348,0.132c0.193,0,1.324,0.703,1.324,0.823c0,0.042,0.065,0.078,0.145,0.078
		c0.174,0,1.388,1.152,1.388,1.317c0,0.064,0.075,0.189,0.168,0.278c0.179,0.171,0.822,1.368,0.822,1.529
		c0,0.053,0.06,0.146,0.133,0.206c0.073,0.061,0.16,0.259,0.193,0.439c0.032,0.18,0.114,0.409,0.183,0.506
		c0.099,0.145,0.122,1.151,0.122,5.42c0,2.883-0.025,5.306-0.055,5.384c-0.05,0.129-0.791,0.142-7.499,0.137
		C150.331,1092.215,150.145,1092.21,149.617,1092.03L149.617,1092.03L149.617,1092.03z M159.91,1087.204l0.024-1.644h-3.406
		c-3.683,0-3.718,0.004-4.221,0.507c-0.373,0.374-0.506,1.216-0.288,1.84c0.119,0.341,0.479,0.714,0.695,0.718
		c0.08,0.002,0.246,0.062,0.37,0.133c0.187,0.107,0.793,0.126,3.514,0.109l3.287-0.02L159.91,1087.204L159.91,1087.204z"/>
	<path id="path4187" stroke="#FDFDFD" stroke-width="0.2817" d="M167.912,1092.086c-0.03-0.08-0.056-3.741-0.056-8.137
		c0-6.759,0.021-8.019,0.129-8.167c0.125-0.171,0.346-0.176,9.93-0.201c9.724-0.026,9.809-0.024,10.39,0.162
		c0.321,0.104,0.727,0.265,0.9,0.359c0.173,0.094,0.403,0.211,0.511,0.261c0.108,0.05,0.527,0.419,0.932,0.821
		c0.718,0.715,1.351,1.715,1.351,2.139c0,0.089,0.062,0.25,0.137,0.358c0.12,0.171,0.134,0.955,0.112,6.284
		c-0.021,5.295-0.042,6.099-0.16,6.173c-0.209,0.132-4.622,0.114-4.755-0.02c-0.082-0.082-0.109-1.461-0.11-5.652
		c-0.001-4.136-0.029-5.639-0.112-5.916c-0.118-0.395-0.917-1.246-1.31-1.396c-0.252-0.095-3.268-0.104-3.396-0.01
		c-0.059,0.043-0.09,2.311-0.09,6.487c0,5.609-0.018,6.432-0.135,6.506c-0.076,0.048-1.131,0.086-2.398,0.087
		c-1.787,0-2.285-0.023-2.364-0.12c-0.071-0.086-0.107-1.984-0.124-6.553l-0.022-6.431h-2.207h-2.207l-0.046,6.53l-0.045,6.53
		l-2.398,0.024C168.238,1092.227,167.961,1092.213,167.912,1092.086L167.912,1092.086z"/>
	<path id="path4189" stroke="#FDFDFD" stroke-width="0.2817" d="M195.445,1092.166c-0.033-0.033-0.06-3.717-0.06-8.186
		c0-7.451,0.012-8.136,0.149-8.25c0.116-0.097,0.616-0.124,2.349-0.124c2.073,0,2.208,0.01,2.328,0.175
		c0.108,0.148,0.128,1.413,0.128,8.202c0,6.123-0.026,8.052-0.108,8.134C200.114,1092.235,195.561,1092.281,195.445,1092.166
		L195.445,1092.166z"/>
	<path id="path4191" stroke="#FDFDFD" stroke-width="0.2817" d="M208.61,1092.141c-0.396-0.077-1.985-0.848-2.145-1.04
		c-0.063-0.075-0.162-0.136-0.22-0.136c-0.148,0-1.209-1.064-1.534-1.538c-0.441-0.644-1.237-2.263-1.325-2.695
		c-0.045-0.223-0.131-0.648-0.189-0.946c-0.141-0.705-0.133-3.002,0.013-3.693c0.062-0.297,0.135-0.703,0.162-0.901
		c0.027-0.198,0.098-0.421,0.156-0.495c0.06-0.074,0.205-0.358,0.324-0.631s0.262-0.556,0.318-0.631
		c0.057-0.074,0.154-0.266,0.218-0.428c0.063-0.161,0.145-0.292,0.181-0.292c0.035,0,0.112-0.105,0.171-0.233
		c0.218-0.479,1.171-1.352,2.123-1.944c0.357-0.224,1.448-0.706,1.596-0.706c0.098,0,0.368-0.062,0.601-0.138
		c0.363-0.119,1.147-0.134,5.632-0.113c5.036,0.025,5.213,0.032,5.337,0.201c0.194,0.266,0.183,2.685-0.014,2.881
		c-0.125,0.125-0.666,0.142-4.589,0.142c-4.44,0-4.447,0-4.79,0.202c-0.399,0.234-1.649,1.482-1.649,1.646
		c0,0.061-0.059,0.161-0.131,0.22c-0.283,0.235-0.573,1.043-0.647,1.804c-0.022,0.223-0.079,0.444-0.126,0.491
		c-0.115,0.115-0.111,1.556,0.004,1.627c0.05,0.03,0.09,0.202,0.09,0.382c0,0.35,0.128,0.824,0.327,1.208
		c0.067,0.132,0.123,0.305,0.123,0.386c0,0.08,0.063,0.17,0.14,0.2c0.077,0.029,0.188,0.17,0.248,0.312
		c0.147,0.353,1.373,1.581,1.646,1.649c0.12,0.03,0.22,0.094,0.22,0.143c0,0.057,1.633,0.088,4.545,0.088
		c4.402,0,4.549,0.006,4.639,0.174c0.135,0.252,0.122,2.644-0.015,2.78c-0.082,0.082-1.438,0.106-5.607,0.098
		C211.416,1092.21,208.793,1092.177,208.61,1092.141L208.61,1092.141z"/>
	<path id="path4193" stroke="#FDFDFD" stroke-width="0.2817" d="M226.956,1092.164c-0.346-0.079-0.992-0.33-1.125-0.438
		c-0.075-0.06-0.236-0.138-0.361-0.174c-0.124-0.036-0.374-0.183-0.557-0.326c-0.184-0.144-0.372-0.261-0.42-0.261
		c-0.147,0-1.229-1.098-1.552-1.576c-0.406-0.6-1.253-2.297-1.254-2.514c0-0.095-0.059-0.378-0.131-0.63
		c-0.288-1.021-0.34-1.469-0.291-2.534c0.028-0.592,0.092-1.279,0.143-1.527c0.196-0.97,0.327-1.464,0.421-1.585
		c0.054-0.069,0.189-0.349,0.303-0.622c0.113-0.273,0.262-0.559,0.331-0.638c0.068-0.078,0.124-0.184,0.124-0.235
		c0-0.26,1.602-2.098,1.83-2.099c0.04,0,0.223-0.118,0.405-0.262s0.434-0.291,0.558-0.326s0.286-0.113,0.36-0.172
		c0.159-0.126,0.69-0.34,1.262-0.508c0.304-0.089,1.494-0.126,4.773-0.149c3.735-0.026,4.43-0.01,4.791,0.108
		c0.232,0.076,0.501,0.138,0.599,0.138c0.143,0,1.184,0.46,1.599,0.708c0.898,0.534,2.018,1.563,2.147,1.975
		c0.035,0.11,0.098,0.2,0.139,0.2c0.042,0,0.121,0.111,0.177,0.248c0.056,0.136,0.24,0.511,0.412,0.833
		c0.171,0.322,0.313,0.636,0.313,0.698s0.04,0.112,0.088,0.112s0.109,0.152,0.138,0.338c0.028,0.186,0.122,0.541,0.207,0.789
		c0.229,0.668,0.227,4-0.003,4.45c-0.087,0.168-0.157,0.409-0.157,0.533c0,0.255-1.017,2.372-1.22,2.541
		c-0.072,0.06-0.132,0.157-0.132,0.215c0,0.163-0.895,1.064-1.43,1.44c-0.735,0.517-1.738,1.027-2.317,1.178
		c-0.439,0.115-1.295,0.135-5.257,0.126C229.267,1092.211,227.056,1092.188,226.956,1092.164L226.956,1092.164L226.956,1092.164z
		 M234.793,1089.049c0.562-0.312,1.65-1.364,1.815-1.754c0.067-0.161,0.153-0.293,0.19-0.293c0.152,0,0.551-1.093,0.709-1.937
		c0.248-1.333-0.169-3.719-0.731-4.187c-0.075-0.063-0.138-0.165-0.138-0.227c0-0.244-1.347-1.497-1.941-1.807l-0.594-0.31h-2.144
		c-2.275,0-2.266-0.001-3.134,0.487c-0.335,0.189-1.255,1.108-1.47,1.47c-0.112,0.187-0.26,0.386-0.33,0.443
		c-0.186,0.152-0.561,1.278-0.566,1.698c-0.003,0.198-0.064,0.439-0.137,0.535c-0.173,0.227-0.18,1.293-0.011,1.54
		c0.066,0.098,0.147,0.432,0.179,0.743c0.064,0.64,0.287,1.185,0.757,1.853c0.361,0.513,1.43,1.59,1.579,1.59
		c0.053,0,0.16,0.057,0.238,0.127c0.295,0.264,0.793,0.312,3.024,0.295l2.252-0.018L234.793,1089.049L234.793,1089.049z"/>
	<path id="path4195" stroke="#FDFDFD" stroke-width="0.2817" d="M245.214,1092.118c-0.082-0.083-0.108-2.023-0.108-8.187v-8.078
		l0.223-0.146c0.201-0.132,1.145-0.146,9.923-0.146c8.644,0,9.756,0.015,10.204,0.145c0.277,0.08,0.564,0.181,0.639,0.226
		s0.195,0.104,0.271,0.131c0.781,0.29,2.168,1.633,2.624,2.541l0.304,0.605v6.485v6.486h-2.388h-2.387l-0.045-5.81
		c-0.051-6.478,0.01-5.888-0.676-6.652c-0.528-0.591-0.744-0.644-2.608-0.644h-1.67l-0.001,6.463
		c-0.001,3.554-0.034,6.514-0.074,6.577c-0.057,0.089-0.608,0.109-2.453,0.09l-2.381-0.024l-0.045-6.53l-0.045-6.53h-2.162h-2.161
		l-0.046,6.466c-0.039,5.616-0.063,6.478-0.18,6.551C249.761,1092.27,245.348,1092.252,245.214,1092.118L245.214,1092.118z"/>
	<path id="path4197" stroke="#FDFDFD" stroke-width="0.2817" d="M14.174,1106.143v-1.666h3.052c2.532,0,3.096-0.023,3.31-0.135
		c0.142-0.074,0.323-0.135,0.403-0.135c0.08-0.001,0.411-0.14,0.736-0.31c0.739-0.385,2.317-1.926,2.317-2.262
		c0-0.119,0.083-0.426,0.185-0.683c0.122-0.311,0.175-0.623,0.157-0.927l-0.026-0.459l-4.684-0.022
		c-4.276-0.021-4.694-0.036-4.796-0.175c-0.079-0.106-0.113-0.577-0.113-1.57c0-1.168,0.025-1.442,0.142-1.559
		c0.126-0.126,0.8-0.142,6.069-0.142c5.043,0,5.943,0.02,6.035,0.129c0.079,0.096,0.1,0.802,0.079,2.685
		c-0.026,2.25-0.048,2.583-0.187,2.795c-0.087,0.132-0.159,0.313-0.161,0.401c-0.001,0.088-0.103,0.363-0.225,0.61
		c-0.122,0.248-0.222,0.525-0.222,0.616c0,0.09,0.333,0.523,0.742,0.961c1.356,1.454,1.959,2.159,1.959,2.291
		c0,0.072,0.051,0.164,0.112,0.204c0.063,0.04,0.21,0.184,0.331,0.318c0.188,0.213,0.203,0.278,0.114,0.474l-0.103,0.226h-1.521
		h-1.522l-0.646-0.681c-0.355-0.373-0.69-0.775-0.743-0.893c-0.13-0.285-0.385-0.338-0.626-0.129
		c-0.108,0.094-0.238,0.171-0.289,0.171c-0.05,0-0.157,0.06-0.237,0.132c-0.191,0.172-1.336,0.769-1.477,0.769
		c-0.061,0-0.268,0.081-0.461,0.18c-0.193,0.099-0.486,0.204-0.65,0.235c-0.165,0.03-0.321,0.092-0.348,0.136
		c-0.027,0.044-1.54,0.08-3.377,0.08h-3.328V1106.143L14.174,1106.143z"/>
	<path id="path4199" stroke="#FDFDFD" stroke-width="0.2817" d="M28.833,1103.332c-0.329-0.051-0.35-0.17-0.319-1.783l0.026-1.352
		l5.349-0.023c3.876-0.017,5.383,0.005,5.472,0.078c0.094,0.078,0.123,0.427,0.123,1.477c0,1.168-0.022,1.393-0.149,1.498
		c-0.122,0.101-1.063,0.125-5.202,0.134C31.354,1103.366,28.97,1103.354,28.833,1103.332L28.833,1103.332z"/>
	<path id="path4201" stroke="#FDFDFD" stroke-width="0.2817" d="M39.142,1107.701c-0.151-0.152-0.151-3.235,0-3.387
		c0.067-0.067,0.403-0.109,0.878-0.111c0.534-0.003,0.824-0.043,0.945-0.135c0.096-0.073,0.344-0.133,0.551-0.133
		c0.239,0,0.459-0.065,0.605-0.18c0.126-0.1,0.266-0.181,0.31-0.181c0.256,0,1.106-1.21,1.11-1.581
		c0.002-0.146,0.062-0.367,0.132-0.49c0.103-0.18,0.129-0.726,0.132-2.707c0.002-1.807,0.033-2.511,0.111-2.59
		c0.174-0.174,2.003-0.146,2.182,0.033c0.21,0.211,0.21,6.993,0,7.605c-0.197,0.575-0.67,1.531-0.756,1.531
		c-0.04,0-0.097,0.091-0.126,0.202c-0.063,0.241-0.833,1.06-0.996,1.06c-0.063,0-0.185,0.079-0.274,0.177
		c-0.088,0.098-0.531,0.361-0.983,0.585l-0.822,0.409h-1.445C39.692,1107.81,39.217,1107.777,39.142,1107.701L39.142,1107.701z"/>
	<path id="path4203" stroke="#FDFDFD" stroke-width="0.2817" d="M51.093,1107.373c-0.972-0.526-1.284-0.722-1.603-1.006
		c-0.334-0.297-1.179-1.528-1.179-1.72c0-0.082-0.061-0.2-0.135-0.262c-0.074-0.062-0.135-0.198-0.135-0.304
		s-0.062-0.308-0.135-0.449c-0.112-0.216-0.134-0.824-0.134-3.716c0-4.146-0.104-3.817,1.21-3.817c0.467,0,0.952,0.038,1.076,0.086
		l0.226,0.086l0.028,2.647c0.018,1.766,0.061,2.689,0.127,2.773c0.056,0.069,0.125,0.284,0.155,0.477
		c0.029,0.192,0.136,0.427,0.237,0.521c0.101,0.094,0.184,0.227,0.184,0.295c0,0.151,0.506,0.59,0.682,0.59
		c0.07,0,0.178,0.081,0.24,0.181c0.088,0.142,0.21,0.18,0.569,0.18c0.262,0,0.531,0.057,0.631,0.133
		c0.118,0.089,0.403,0.133,0.879,0.135c1.104,0.004,1.052-0.081,1.052,1.756c0,1.305-0.023,1.591-0.142,1.708
		c-0.118,0.118-0.387,0.141-1.599,0.134l-1.457-0.007L51.093,1107.373L51.093,1107.373z"/>
	<path id="path4205" stroke="#FDFDFD" stroke-width="0.2817" d="M52.236,1100.483c-0.47-0.132-1.32-0.923-1.479-1.379
		c-0.327-0.932-0.158-1.771,0.491-2.438c0.517-0.53,1.173-0.776,1.929-0.725c0.323,0.022,0.728,0.114,0.901,0.203
		c0.549,0.283,1.037,0.859,1.252,1.481c0.205,0.593,0.195,0.88-0.044,1.339c-0.069,0.134-0.126,0.282-0.127,0.332
		c-0.001,0.119-0.469,0.614-0.834,0.882C53.777,1100.579,52.995,1100.693,52.236,1100.483z M53.439,1098.525
		c0.152-0.152,0.277-0.331,0.277-0.396c0-0.129-0.583-0.679-0.721-0.679c-0.046,0-0.228,0.127-0.405,0.282
		c-0.362,0.318-0.357,0.505,0.023,0.858C52.917,1098.872,53.107,1098.857,53.439,1098.525L53.439,1098.525z"/>
	<path id="path4207" stroke="#FDFDFD" stroke-width="0.2817" d="M55.355,1103.332c-0.12-0.023-0.247-0.143-0.3-0.281
		c-0.106-0.275-0.072-2.612,0.04-2.785c0.057-0.089,1.242-0.113,5.424-0.113c5.198,0,5.354,0.006,5.444,0.175
		c0.149,0.278,0.12,2.637-0.035,2.849c-0.124,0.169-0.291,0.175-5.247,0.186C57.866,1103.368,55.469,1103.356,55.355,1103.332z"/>
	<path id="path4209" stroke="#FDFDFD" stroke-width="0.2817" d="M70.435,1107.667c-0.108-0.281-0.061-3.239,0.054-3.353
		c0.08-0.081,1.013-0.108,3.64-0.108c2.879,0,3.58-0.023,3.788-0.129c0.141-0.07,0.559-0.223,0.931-0.338
		c0.852-0.264,1.405-0.639,1.78-1.206l0.294-0.443l-0.024-1.396l-0.024-1.396l-5.655-0.022l-5.655-0.023l-0.087-0.23
		c-0.048-0.127-0.088-0.755-0.088-1.396c0-1.045,0.019-1.184,0.18-1.345c0.177-0.178,0.3-0.181,6.974-0.181
		c6.056,0,6.81,0.016,6.936,0.142c0.123,0.123,0.142,0.54,0.142,3.203c0,2.887-0.011,3.096-0.193,3.664
		c-0.199,0.618-0.429,1.187-0.692,1.711c-0.19,0.379-1.655,1.818-1.85,1.818c-0.081,0-0.147,0.038-0.147,0.083
		c0,0.187-0.929,0.625-1.756,0.829c-0.198,0.049-0.399,0.128-0.446,0.175c-0.051,0.05-1.694,0.084-4.066,0.084
		C70.923,1107.81,70.483,1107.794,70.435,1107.667L70.435,1107.667z"/>
	<path id="path4211" stroke="#FDFDFD" stroke-width="0.2817" d="M85.521,1107.685c-0.07-0.085-0.096-0.541-0.079-1.415l0.025-1.29
		l0.225-0.063c0.124-0.034,0.931-0.066,1.793-0.071l1.568-0.009l0.301-0.338c0.276-0.311,0.3-0.387,0.3-0.929
		c0-0.928-0.11-0.885,2.355-0.915c1.983-0.023,2.144-0.037,2.33-0.205c0.248-0.225,0.38-0.557,0.311-0.777
		c-0.052-0.162-0.245-0.169-4.814-0.169c-2.618,0-4.824-0.024-4.902-0.055c-0.214-0.082-0.214-2.511,0-2.594
		c0.078-0.029,2.806-0.054,6.062-0.054c4.484,0,5.946,0.025,6.028,0.107c0.151,0.152,0.141,3.66-0.012,4.216
		c-0.257,0.931-0.666,1.433-1.55,1.906l-0.537,0.287l-1.688,0.037l-1.689,0.038v0.458c0,0.778-0.399,1.406-1.131,1.779
		c-0.318,0.162-0.537,0.178-2.57,0.178C86.063,1107.809,85.604,1107.784,85.521,1107.685L85.521,1107.685z"/>
	<path id="path4213" stroke="#FDFDFD" stroke-width="0.2817" d="M110.553,1107.945c-0.174-0.067-0.68-0.125-1.131-0.129
		c-0.516-0.004-0.855-0.047-0.925-0.117c-0.065-0.064-0.546-0.141-1.167-0.184c-0.581-0.04-1.441-0.11-1.912-0.156
		c-0.471-0.045-1.301-0.109-1.846-0.143c-0.599-0.036-1.062-0.109-1.169-0.184c-0.119-0.083-0.451-0.124-1.003-0.124
		c-0.557,0-0.909-0.043-1.083-0.134c-0.173-0.091-0.526-0.136-1.073-0.136c-0.514,0-0.855-0.04-0.924-0.108
		c-0.073-0.073-0.108-0.491-0.108-1.292c0-1.549-0.03-1.518,1.367-1.446c2.254,0.116,3.042,0.191,3.151,0.302
		c0.074,0.074,0.401,0.112,0.956,0.112c0.474,0,0.93,0.047,1.041,0.106c0.109,0.058,1.03,0.153,2.074,0.215
		c1.108,0.064,1.918,0.15,1.977,0.209c0.059,0.059,0.439,0.101,0.916,0.101c0.547,0,0.9,0.045,1.073,0.136
		c0.171,0.089,0.521,0.134,1.038,0.134c1.173,0,1.181,0.01,1.179,1.424c0,0.63-0.031,1.188-0.067,1.243
		c-0.148,0.222-0.5,0.306-1.254,0.299C111.226,1108.069,110.726,1108.011,110.553,1107.945L110.553,1107.945z"/>
	<path id="path4215" stroke="#FDFDFD" stroke-width="0.2817" d="M110.553,1104.116c-0.124-0.04-0.615-0.077-1.092-0.081
		c-0.653-0.007-0.895-0.043-0.979-0.145c-0.085-0.103-0.316-0.135-0.963-0.135c-0.486,0-0.935-0.046-1.047-0.107
		c-0.112-0.061-1.001-0.152-2.071-0.212c-1.145-0.065-1.915-0.146-1.978-0.209c-0.061-0.061-0.423-0.103-0.898-0.103
		c-0.503,0-0.914-0.05-1.119-0.135c-0.198-0.083-0.608-0.135-1.058-0.135c-1.121,0-1.136-0.019-1.134-1.425
		c0-0.629,0.031-1.188,0.068-1.242c0.146-0.218,0.495-0.307,1.208-0.305c0.422,0,0.906,0.058,1.109,0.131
		c0.209,0.075,0.702,0.132,1.175,0.134c0.527,0.004,0.854,0.044,0.927,0.117c0.066,0.065,0.51,0.14,1.077,0.178
		c0.53,0.037,1.39,0.106,1.91,0.156c0.521,0.05,1.4,0.115,1.956,0.146c0.697,0.039,1.043,0.096,1.114,0.182
		c0.077,0.092,0.35,0.126,1.017,0.129c0.659,0.003,0.96,0.039,1.086,0.135c0.125,0.094,0.415,0.132,1.007,0.132
		c1.126,0,1.115-0.014,1.115,1.403c0,1.477-0.005,1.482-1.284,1.471C111.193,1104.193,110.677,1104.156,110.553,1104.116
		L110.553,1104.116z"/>
	<path id="path4217" stroke="#FDFDFD" stroke-width="0.2817" d="M110.508,1100.284c-0.163-0.074-0.594-0.125-1.085-0.128
		c-0.527-0.003-0.854-0.044-0.927-0.116c-0.067-0.067-0.516-0.139-1.122-0.178c-0.555-0.035-1.455-0.108-2-0.161
		c-0.545-0.054-1.396-0.12-1.89-0.147c-0.549-0.03-0.969-0.1-1.079-0.176c-0.123-0.086-0.453-0.127-1.038-0.13
		c-0.574-0.003-0.933-0.046-1.083-0.132c-0.148-0.084-0.504-0.13-1.04-0.132c-0.51-0.003-0.855-0.043-0.923-0.111
		c-0.073-0.072-0.108-0.493-0.108-1.304c0-1.675-0.325-1.55,3.396-1.31c0.605,0.039,1.054,0.109,1.122,0.177
		c0.074,0.074,0.401,0.113,0.956,0.113c0.51,0,0.922,0.045,1.04,0.111c0.185,0.106,0.684,0.156,2.899,0.294
		c0.496,0.03,0.981,0.092,1.081,0.136c0.099,0.045,0.597,0.094,1.107,0.107c0.574,0.017,0.951,0.066,0.991,0.13
		c0.039,0.064,0.418,0.116,0.974,0.136c0.598,0.021,0.96,0.074,1.058,0.155c0.124,0.103,0.148,0.314,0.148,1.268
		c0,1.08-0.012,1.156-0.208,1.34c-0.187,0.176-0.303,0.195-1.104,0.189C111.12,1100.411,110.675,1100.362,110.508,1100.284
		L110.508,1100.284z"/>
	<path id="path4219" stroke="#FDFDFD" stroke-width="0.2817" d="M114.358,1108.11c-0.084-0.034-0.113-0.45-0.113-1.648
		c0-1.38,0.021-1.619,0.149-1.726c0.122-0.102,1.218-0.132,5.968-0.169l5.818-0.045l0.024-2.243
		c0.021-1.992,0.007-2.262-0.126-2.409c-0.144-0.159-0.42-0.167-5.817-0.167c-3.734,0-5.726-0.032-5.841-0.093
		c-0.161-0.086-0.174-0.201-0.174-1.483c0-1.281,0.014-1.396,0.174-1.482c0.242-0.13,14.092-0.13,14.333,0
		c0.169,0.09,0.174,0.249,0.174,5.754v5.661l-0.203,0.054C128.482,1108.178,114.52,1108.175,114.358,1108.11L114.358,1108.11
		L114.358,1108.11z"/>
	<path id="path4221" stroke="#FDFDFD" stroke-width="0.2817" d="M130.601,1099.561c-0.116-0.116-0.142-0.382-0.142-1.468
		c0-0.912,0.034-1.36,0.108-1.435c0.082-0.081,1.166-0.108,4.326-0.108h4.218l0.087,0.231c0.048,0.127,0.088,0.772,0.088,1.435
		c0,0.974-0.027,1.23-0.142,1.345c-0.125,0.125-0.637,0.142-4.272,0.142C131.238,1099.702,130.726,1099.686,130.601,1099.561z"/>
	<path id="path4223" stroke="#FDFDFD" stroke-width="0.2817" d="M130.572,1108.113c-0.138-0.059-0.16-2.882-0.025-3.096
		c0.074-0.116,0.685-0.139,4.421-0.161c3.437-0.021,4.375-0.051,4.53-0.146c0.107-0.066,0.378-0.144,0.604-0.173
		c0.569-0.071,0.761-0.191,1.502-0.939c0.496-0.501,0.663-0.734,0.708-0.991c0.032-0.185,0.115-0.426,0.184-0.535
		c0.1-0.158,0.125-0.73,0.125-2.752c0-1.865,0.029-2.581,0.108-2.66c0.126-0.125,2.026-0.151,2.218-0.029
		c0.098,0.062,0.115,0.771,0.091,3.772c-0.027,3.369-0.044,3.712-0.188,3.87c-0.087,0.096-0.158,0.241-0.158,0.322
		c0,0.336-0.435,0.965-1.178,1.701c-0.645,0.638-0.928,0.847-1.54,1.132c-1.599,0.748-1.087,0.691-6.47,0.714
		C132.853,1108.152,130.634,1108.14,130.572,1108.113L130.572,1108.113z"/>
</g>
</svg>
