<?xml version="1.0" encoding="utf-8"?>
<!-- Generator: Adobe Illustrator 16.0.0, SVG Export Plug-In . SVG Version: 6.00 Build 0)  -->
<svg version="1.2" baseProfile="tiny" id="Layer_1" xmlns="http://www.w3.org/2000/svg" xmlns:xlink="http://www.w3.org/1999/xlink"
	 x="0px" y="0px" width="283.465px" height="283.465px" viewBox="370.268 370.268 283.465 283.465" xml:space="preserve">
<path id="path1363" fill="#989898" d="M464.35,545.63c-2.945-0.809-5.815-3.537-7.071-6.722
	c-0.842-2.135-3.884-12.843-14.547-51.209l-1.598-5.752l7.214-0.042c3.968-0.023,7.265,0.013,7.327,0.081
	c0.063,0.067,2.764,10.522,6.002,23.234l5.89,23.11l2.8-10.712c6.646-25.442,7.776-29.545,8.615-31.307
	c1.131-2.375,3.106-4.072,5.452-4.683c1.236-0.322,4.085-0.325,5.31-0.006c2.586,0.673,4.607,2.538,5.719,5.276
	c0.679,1.67,2.139,7.044,7.592,27.947c1.837,7.04,3.393,12.929,3.456,13.085c0.074,0.176,2.351-8.463,6.033-22.89l5.916-23.171
	l7.326-0.001c5.793-0.001,7.314,0.042,7.258,0.202c-0.039,0.111-1.6,5.708-3.467,12.438c-8.93,32.159-12.039,42.958-12.914,44.862
	c-1.486,3.236-3.986,5.485-6.955,6.259c-1.239,0.323-3.936,0.326-5.165,0.007c-1.712-0.446-2.691-1.036-4.16-2.505
	c-1.146-1.147-1.514-1.647-2.14-2.923c-1.024-2.088-2.013-5.49-8.302-28.604c-1.479-5.437-2.73-9.995-2.781-10.128
	c-0.05-0.133-1.575,5.183-3.392,11.814c-3.991,14.574-6.093,22.104-6.747,24.162c-1.411,4.449-3.979,7.298-7.364,8.17
	C468.436,545.935,465.48,545.94,464.35,545.63z M540.254,523.271V501.15h6.889h6.887v22.121v22.119h-6.887h-6.889V523.271z
	 M567.965,523.271V501.15h6.887h6.887v22.121v22.119h-6.887h-6.887V523.271z M545.198,493.516c-3.121-0.633-5.707-3.305-6.236-6.447
	c-0.646-3.829,1.906-7.681,5.754-8.682c1.965-0.512,4.48-0.247,6.273,0.663c1.074,0.543,2.705,2.104,3.254,3.114
	c1.887,3.466,0.768,7.988-2.49,10.079C549.944,493.402,547.235,493.929,545.198,493.516z M572.908,493.516
	c-4.043-0.819-6.904-4.848-6.25-8.8c0.5-3.032,2.801-5.557,5.77-6.33c1.963-0.511,4.48-0.246,6.268,0.66
	c1.076,0.545,2.598,1.997,3.205,3.06c1.953,3.412,0.842,8.031-2.438,10.136C577.655,493.402,574.946,493.929,572.908,493.516z"/>
</svg>
