<?xml version="1.0" encoding="utf-8"?>
<!-- Generator: Adobe Illustrator 16.0.0, SVG Export Plug-In . SVG Version: 6.00 Build 0)  -->
<svg version="1.2" baseProfile="tiny" id="Layer_1" xmlns="http://www.w3.org/2000/svg" xmlns:xlink="http://www.w3.org/1999/xlink"
	 x="0px" y="0px" width="283.465px" height="283.465px" viewBox="0 0 283.465 283.465" xml:space="preserve">
<g>
	<path fill="#1A8240" d="M134.912,142.498c-1.052-0.896-2.224-1.642-3.482-2.216c3.934-2.09,6.391-6.183,6.388-10.638
		c0-3.398-1.253-14.45-17.269-14.45H98.98v22.9h-7.183c-0.932,1.216-3.049,4.134-3.854,5.331H98.98v24.885l21.574,0.004
		c11.687,0,18.944-5.931,18.944-15.509C139.498,148.625,137.919,145.072,134.912,142.498z M104.945,120.738h15.608
		c4.224,0,11.3,1.052,11.3,8.44c0,5.587-4.121,8.915-11.3,8.915h-15.608V120.738z M120.549,162.773H104.94v-19.336h15.609
		c5.918,0,12.999,1.635,12.999,9.25C133.548,161.46,125.406,162.773,120.549,162.773z"/>
	<path fill="#1A8240" d="M167.558,113.973c-14.923,0-25.35,11.411-25.35,27.752c0,16.364,10.429,27.766,25.35,27.766
		c14.906,0,25.307-11.402,25.307-27.766C192.864,125.384,182.464,113.973,167.558,113.973z M167.558,163.873
		c-11.37,0-19.336-9.112-19.336-22.148c0-13.035,7.965-22.141,19.336-22.141c11.349,0,19.269,9.105,19.269,22.141
		C186.826,154.761,178.906,163.873,167.558,163.873z"/>
	<polygon fill="#1A8240" points="87.309,115.198 72.123,135.831 56.95,115.198 49.986,115.198 68.608,140.487 48.189,168.31 
		55.181,168.31 72.132,145.286 89.097,168.31 96.085,168.31 75.661,140.487 94.292,115.198 87.309,115.198 	"/>
	<polygon fill="#1A8240" points="226.528,115.198 211.348,135.828 196.164,115.198 189.182,115.198 207.814,140.491 
		187.413,168.318 194.396,168.318 211.348,145.287 228.316,168.318 235.275,168.318 235.275,168.293 214.891,140.487 
		233.507,115.199 226.528,115.199 	"/>
</g>
</svg>
