<?xml version="1.0" encoding="utf-8"?>
<!-- Generator: Adobe Illustrator 16.0.0, SVG Export Plug-In . SVG Version: 6.00 Build 0)  -->
<svg version="1.2" baseProfile="tiny" id="Layer_1" xmlns="http://www.w3.org/2000/svg" xmlns:xlink="http://www.w3.org/1999/xlink"
	 x="0px" y="0px" width="283.465px" height="283.465px" viewBox="0 0 283.465 283.465" xml:space="preserve">
<g id="Layer_2">
	<g>
		<rect x="60.982" y="135.357" fill="#FF0000" width="4.25" height="21.25"/>
		<rect x="60.982" y="128.982" fill="#FF0000" width="4.25" height="4.25"/>
		<rect x="218.232" y="128.982" fill="#FF0000" width="4.25" height="4.25"/>
		<polygon fill="#FF0000" points="14.232,135.357 14.232,148.107 52.482,148.107 52.482,152.357 14.232,152.357 14.232,156.607 
			56.732,156.607 56.732,143.857 18.482,143.857 18.482,139.607 56.732,139.607 56.732,135.357 		"/>
		<polygon fill="#FF0000" points="69.482,135.357 69.482,156.607 73.732,156.607 73.732,139.607 107.732,139.607 107.732,156.607 
			111.982,156.607 111.982,135.357 		"/>
		<polygon fill="#FF0000" points="116.232,135.357 116.232,156.607 158.732,156.607 158.732,152.357 120.482,152.357 
			120.482,139.607 158.732,139.607 158.732,135.357 		"/>
		<path fill="#FF0000" d="M171.482,135.357v4.25h38.25v4.25h-38.25v12.75h42.5v-21.25H171.482z M209.732,152.357h-34v-4.25h34
			V152.357L209.732,152.357z"/>
		<rect x="218.232" y="135.357" fill="#FF0000" width="4.25" height="21.25"/>
		<rect x="162.982" y="126.857" fill="#FF0000" width="4.25" height="29.75"/>
		<polygon fill="#FF0000" points="226.732,135.357 226.732,156.607 230.982,156.607 230.982,139.607 269.232,139.607 
			269.232,135.357 		"/>
	</g>
</g>
</svg>
